<svg width="379" height="40" viewBox="0 0 379 40" fill="none" xmlns="http://www.w3.org/2000/svg">
<path d="M2.976 8.52L10.944 8.472C9.6 19.368 9.504 27.048 13.776 28.056C17.376 28.92 21.312 27.192 23.472 23.928C23.76 30.696 18.576 36.312 10.656 34.68C3.648 33.432 0.912001 23.88 2.976 8.52ZM57.312 19.08C61.776 18.984 63.888 21.576 63.888 24.744C63.84 27.672 61.728 30.648 57.6 31.512C58.848 29.832 59.376 27.768 59.472 26.136C59.424 24.36 58.944 22.728 56.688 22.68L54.048 26.424L53.856 22.392C53.856 22.392 49.728 23.112 48.96 23.4C49.296 25.032 49.728 29.016 53.088 37.08L47.952 38.76C47.952 38.76 45.456 27.864 44.544 24.792C44.544 24.792 41.328 26.328 39.36 27.384L37.824 22.728C37.824 22.728 41.616 21.672 43.728 21.048L42.336 15.72C42.336 15.72 45.408 14.904 47.52 14.472C47.52 14.472 48.048 18.648 48.288 20.184C50.4 19.704 51.264 19.464 53.52 19.08L53.424 15.144H57.936C57.936 15.144 57.408 18.456 57.312 19.08ZM98.832 9V12.552C98.832 12.552 97.584 12.888 96.72 13.32L95.808 9.576L98.832 9ZM103.2 8.328L102.912 11.88C102.912 11.88 101.664 12.216 100.848 12.648L100.224 8.904L103.2 8.328ZM74.112 22.008C74.112 22.008 86.016 12.408 87.504 11.736C87.504 11.736 104.304 22.296 107.52 24.792L102.624 30.456C98.64 27.288 91.008 20.472 87.456 18.744C83.376 21.768 80.496 24.888 78.144 26.904C78.144 26.904 74.832 22.92 74.112 22.008ZM130.752 18.696C132.816 18.984 139.824 20.28 139.824 27.24C139.824 35.208 132.384 38.088 125.856 36.504C122.064 35.592 121.008 31.992 121.632 29.928C122.112 28.2 123.792 26.568 126.816 26.712C128.208 26.808 130.656 27.768 131.472 30.888C132.48 30.744 133.824 29.16 133.824 27.432C133.824 22.296 127.728 21.048 123.264 21.24L129.408 12.984C129.408 12.984 122.88 13.272 120.72 13.272L120.624 7.128C120.624 7.128 133.152 7.08 138 7.272C135.456 12.264 133.92 14.472 130.752 18.696ZM126.384 32.328C127.44 32.424 127.968 31.752 127.92 31.512C127.776 31.032 127.344 30.456 126.816 30.264C126 30.024 125.136 30.504 125.28 31.272C125.424 32.04 126.048 32.232 126.384 32.328ZM159.552 13.848L159.456 3.48C159.456 3.48 162.72 3.24 164.16 3.048L164.016 0.407999L168.672 0.359997L168.768 3.144C168.768 3.144 171.12 3.144 171.648 3.144L171.6 0.407999L175.824 0.647999V3.144L181.2 2.856C181.2 2.856 181.632 13.656 181.296 14.376C181.296 14.376 160.464 13.944 159.552 13.848ZM177.648 5.592H175.536V7.176C176.352 7.416 177.456 7.32 177.456 7.32L177.648 5.592ZM177.168 9.72L175.056 9.528L175.2 10.92C175.536 11.016 177.264 11.4 177.264 11.4L177.168 9.72ZM171.168 11.16L171.216 9.816L169.44 9.624L169.344 10.92C170.064 11.208 171.168 11.16 171.168 11.16ZM171.024 5.496H169.296L169.344 7.224C170.256 7.128 171.12 7.176 171.12 7.176L171.024 5.496ZM164.976 5.928L163.104 5.784L163.248 7.272L164.976 7.128V5.928ZM163.104 9.768L163.056 11.016L165.456 11.4L165.552 9.72C165.552 9.72 163.728 9.864 163.104 9.768ZM184.368 15.864L184.128 19.656C184.128 19.656 168.816 20.04 159.504 19.8C159.504 19.8 160.992 29.448 151.2 32.376C154.224 26.232 155.712 20.568 155.088 16.152C155.088 16.152 179.28 15.96 184.368 15.864ZM179.616 21.528L179.712 25.08C179.712 25.08 164.016 25.08 162.144 24.84V21.96C178.752 21.624 178.992 21.624 179.616 21.528ZM159.408 26.856C168.336 26.808 175.968 27 181.728 26.52L181.536 30.264C181.536 30.264 168.672 30.504 166.704 30.504L166.608 35.304C166.608 35.304 169.296 34.344 170.448 33.624C170.208 35.4 167.376 39.24 162.768 40.008L162.96 30.408C162.96 30.408 161.184 30.504 159.648 30.312L159.408 26.856ZM176.496 30.504C178.944 33.192 182.16 34.44 183.984 34.152L181.392 39.528C178.416 37.512 175.44 35.208 173.856 33L176.496 30.504ZM182.592 30.984C183.792 29.976 186.192 27.384 186.672 26.616L189.36 30.264C188.112 30.84 186.096 32.184 182.592 30.984ZM224.112 3.864C224.112 3.864 224.736 34.92 224.544 38.52C224.544 38.52 196.416 38.52 193.536 38.52C193.536 38.52 193.92 5.448 194.208 3.672C207.6 3.768 212.16 3.816 224.112 3.864ZM220.464 34.248C220.464 31.992 220.944 7.848 220.944 7.848C219.744 7.752 197.808 8.232 197.808 8.232C197.424 9.432 197.616 34.248 197.616 34.248C198.816 34.152 220.464 34.248 220.464 34.248ZM211.008 16.104L217.296 16.056L217.344 18.696C217.344 18.696 203.904 18.648 200.784 18.744L200.832 15.672C200.832 15.672 205.92 15.432 207.648 15.432L207.744 13.896C204.864 13.944 205.392 13.8 203.568 13.8L203.472 11.496C203.472 11.496 206.064 11.448 207.264 11.4L207.072 9L211.056 9.288L211.008 11.592C211.008 11.592 214.848 11.64 215.616 11.592L215.52 14.52C215.52 14.52 211.584 14.616 211.008 14.616V16.104ZM216 27.336C216 27.336 215.04 28.344 214.224 28.632C214.224 28.632 215.904 29.304 217.296 29.784L214.8 33.096C214.8 33.096 209.712 28.632 208.8 27.288L209.472 33.048H205.968C206.208 30.504 206.16 29.448 206.256 27.48C206.256 27.48 204.912 29.64 200.064 29.496C202.224 28.2 204.528 26.472 205.344 24.936C205.344 24.936 203.712 24.936 202.944 24.936C202.944 24.936 202.896 21.096 203.04 20.04C203.04 20.04 212.256 19.8 214.704 19.896L214.8 25.416C214.8 25.416 213.264 25.512 211.104 25.464C211.152 25.896 212.352 27.288 212.928 27.48L214.224 25.8L216 27.336ZM207.264 23.784C209.184 23.928 211.152 23.736 211.152 23.736L211.104 22.008L207.168 21.912L207.264 23.784ZM243.072 28.68C243.072 28.68 237.552 33.048 234.432 35.928C234.432 35.928 234.144 18.84 234.144 8.04L240.048 7.992C239.472 15.336 239.136 21.576 239.28 29.112L243.072 28.68ZM248.4 16.776L248.496 10.632C253.776 10.68 260.304 10.776 264.048 12.936C262.224 15.72 260.736 18.456 258.96 20.856L258.576 17.112C254.352 16.536 251.04 16.776 248.4 16.776ZM262.272 33.192C259.872 34.296 252.192 34.92 248.256 31.128L250.608 26.376C254.064 28.632 258.288 27.864 261.312 26.52L262.272 33.192ZM301.44 21.576C301.968 27.336 297.552 33.144 285.6 32.808C290.64 30.744 294.336 27.144 294 23.016C293.616 17.784 282.048 20.04 273.84 21.96L272.784 15.816C286.128 13.128 300.432 10.44 301.44 21.576ZM316.848 32.136C316.848 32.136 311.376 27.528 311.232 14.376L317.856 13.368C317.856 13.368 317.76 22.152 319.248 24.264L324.528 23.064C320.304 27.624 319.728 28.008 316.848 32.136ZM333.36 25.896C333.36 25.896 336.24 25.512 337.44 25.464C337.872 21 336.096 16.344 333.84 13.32L340.128 11.784C341.664 15.816 343.296 22.104 341.712 31.32C341.712 31.32 334.992 26.472 333.36 25.896ZM378.192 14.664C370.032 16.872 366.24 25.272 373.872 32.52L366.144 35.88C360.096 27.864 361.344 18.84 368.448 15.528C368.448 15.528 360.624 16.2 352.992 16.488L352.848 10.248C352.848 10.248 371.76 10.248 377.664 9.336L378.192 14.664Z" fill="#D9333F"/>
</svg>
