<svg width="253" height="27" viewBox="0 0 253 27" fill="none" xmlns="http://www.w3.org/2000/svg">
<path d="M1.984 5.68L7.296 5.648C6.4 12.912 6.336 18.032 9.184 18.704C11.584 19.28 14.208 18.128 15.648 15.952C15.84 20.464 12.384 24.208 7.104 23.12C2.432 22.288 0.608001 15.92 1.984 5.68ZM38.208 12.72C41.184 12.656 42.592 14.384 42.592 16.496C42.56 18.448 41.152 20.432 38.4 21.008C39.232 19.888 39.584 18.512 39.648 17.424C39.616 16.24 39.296 15.152 37.792 15.12L36.032 17.616L35.904 14.928C35.904 14.928 33.152 15.408 32.64 15.6C32.864 16.688 33.152 19.344 35.392 24.72L31.968 25.84C31.968 25.84 30.304 18.576 29.696 16.528C29.696 16.528 27.552 17.552 26.24 18.256L25.216 15.152C25.216 15.152 27.744 14.448 29.152 14.032L28.224 10.48C28.224 10.48 30.272 9.936 31.68 9.648C31.68 9.648 32.032 12.432 32.192 13.456C33.6 13.136 34.176 12.976 35.68 12.72L35.616 10.096H38.624C38.624 10.096 38.272 12.304 38.208 12.72ZM65.888 6V8.368C65.888 8.368 65.056 8.592 64.48 8.88L63.872 6.384L65.888 6ZM68.8 5.552L68.608 7.92C68.608 7.92 67.776 8.144 67.232 8.432L66.816 5.936L68.8 5.552ZM49.408 14.672C49.408 14.672 57.344 8.272 58.336 7.824C58.336 7.824 69.536 14.864 71.68 16.528L68.416 20.304C65.76 18.192 60.672 13.648 58.304 12.496C55.584 14.512 53.664 16.592 52.096 17.936C52.096 17.936 49.888 15.28 49.408 14.672ZM87.168 12.464C88.544 12.656 93.216 13.52 93.216 18.16C93.216 23.472 88.256 25.392 83.904 24.336C81.376 23.728 80.672 21.328 81.088 19.952C81.408 18.8 82.528 17.712 84.544 17.808C85.472 17.872 87.104 18.512 87.648 20.592C88.32 20.496 89.216 19.44 89.216 18.288C89.216 14.864 85.152 14.032 82.176 14.16L86.272 8.656C86.272 8.656 81.92 8.848 80.48 8.848L80.416 4.752C80.416 4.752 88.768 4.72 92 4.848C90.304 8.176 89.28 9.648 87.168 12.464ZM84.256 21.552C84.96 21.616 85.312 21.168 85.28 21.008C85.184 20.688 84.896 20.304 84.544 20.176C84 20.016 83.424 20.336 83.52 20.848C83.616 21.36 84.032 21.488 84.256 21.552ZM106.368 9.232L106.304 2.32C106.304 2.32 108.48 2.16 109.44 2.032L109.344 0.271999L112.448 0.239998L112.512 2.096C112.512 2.096 114.08 2.096 114.432 2.096L114.4 0.271999L117.216 0.431999V2.096L120.8 1.904C120.8 1.904 121.088 9.104 120.864 9.584C120.864 9.584 106.976 9.296 106.368 9.232ZM118.432 3.728H117.024V4.784C117.568 4.944 118.304 4.88 118.304 4.88L118.432 3.728ZM118.112 6.48L116.704 6.352L116.8 7.28C117.024 7.344 118.176 7.6 118.176 7.6L118.112 6.48ZM114.112 7.44L114.144 6.544L112.96 6.416L112.896 7.28C113.376 7.472 114.112 7.44 114.112 7.44ZM114.016 3.664H112.864L112.896 4.816C113.504 4.752 114.08 4.784 114.08 4.784L114.016 3.664ZM109.984 3.952L108.736 3.856L108.832 4.848L109.984 4.752V3.952ZM108.736 6.512L108.704 7.344L110.304 7.6L110.368 6.48C110.368 6.48 109.152 6.576 108.736 6.512ZM122.912 10.576L122.752 13.104C122.752 13.104 112.544 13.36 106.336 13.2C106.336 13.2 107.328 19.632 100.8 21.584C102.816 17.488 103.808 13.712 103.392 10.768C103.392 10.768 119.52 10.64 122.912 10.576ZM119.744 14.352L119.808 16.72C119.808 16.72 109.344 16.72 108.096 16.56V14.64C119.168 14.416 119.328 14.416 119.744 14.352ZM106.272 17.904C112.224 17.872 117.312 18 121.152 17.68L121.024 20.176C121.024 20.176 112.448 20.336 111.136 20.336L111.072 23.536C111.072 23.536 112.864 22.896 113.632 22.416C113.472 23.6 111.584 26.16 108.512 26.672L108.64 20.272C108.64 20.272 107.456 20.336 106.432 20.208L106.272 17.904ZM117.664 20.336C119.296 22.128 121.44 22.96 122.656 22.768L120.928 26.352C118.944 25.008 116.96 23.472 115.904 22L117.664 20.336ZM121.728 20.656C122.528 19.984 124.128 18.256 124.448 17.744L126.24 20.176C125.408 20.56 124.064 21.456 121.728 20.656ZM149.408 2.576C149.408 2.576 149.824 23.28 149.696 25.68C149.696 25.68 130.944 25.68 129.024 25.68C129.024 25.68 129.28 3.632 129.472 2.448C138.4 2.512 141.44 2.544 149.408 2.576ZM146.976 22.832C146.976 21.328 147.296 5.232 147.296 5.232C146.496 5.168 131.872 5.488 131.872 5.488C131.616 6.288 131.744 22.832 131.744 22.832C132.544 22.768 146.976 22.832 146.976 22.832ZM140.672 10.736L144.864 10.704L144.896 12.464C144.896 12.464 135.936 12.432 133.856 12.496L133.888 10.448C133.888 10.448 137.28 10.288 138.432 10.288L138.496 9.264C136.576 9.296 136.928 9.2 135.712 9.2L135.648 7.664C135.648 7.664 137.376 7.632 138.176 7.6L138.048 6L140.704 6.192L140.672 7.728C140.672 7.728 143.232 7.76 143.744 7.728L143.68 9.68C143.68 9.68 141.056 9.744 140.672 9.744V10.736ZM144 18.224C144 18.224 143.36 18.896 142.816 19.088C142.816 19.088 143.936 19.536 144.864 19.856L143.2 22.064C143.2 22.064 139.808 19.088 139.2 18.192L139.648 22.032H137.312C137.472 20.336 137.44 19.632 137.504 18.32C137.504 18.32 136.608 19.76 133.376 19.664C134.816 18.8 136.352 17.648 136.896 16.624C136.896 16.624 135.808 16.624 135.296 16.624C135.296 16.624 135.264 14.064 135.36 13.36C135.36 13.36 141.504 13.2 143.136 13.264L143.2 16.944C143.2 16.944 142.176 17.008 140.736 16.976C140.768 17.264 141.568 18.192 141.952 18.32L142.816 17.2L144 18.224ZM138.176 15.856C139.456 15.952 140.768 15.824 140.768 15.824L140.736 14.672L138.112 14.608L138.176 15.856ZM162.048 19.12C162.048 19.12 158.368 22.032 156.288 23.952C156.288 23.952 156.096 12.56 156.096 5.36L160.032 5.328C159.648 10.224 159.424 14.384 159.52 19.408L162.048 19.12ZM165.6 11.184L165.664 7.088C169.184 7.12 173.536 7.184 176.032 8.624C174.816 10.48 173.824 12.304 172.64 13.904L172.384 11.408C169.568 11.024 167.36 11.184 165.6 11.184ZM174.848 22.128C173.248 22.864 168.128 23.28 165.504 20.752L167.072 17.584C169.376 19.088 172.192 18.576 174.208 17.68L174.848 22.128ZM200.96 14.384C201.312 18.224 198.368 22.096 190.4 21.872C193.76 20.496 196.224 18.096 196 15.344C195.744 11.856 188.032 13.36 182.56 14.64L181.856 10.544C190.752 8.752 200.288 6.96 200.96 14.384ZM211.232 21.424C211.232 21.424 207.584 18.352 207.488 9.584L211.904 8.912C211.904 8.912 211.84 14.768 212.832 16.176L216.352 15.376C213.536 18.416 213.152 18.672 211.232 21.424ZM222.24 17.264C222.24 17.264 224.16 17.008 224.96 16.976C225.248 14 224.064 10.896 222.56 8.88L226.752 7.856C227.776 10.544 228.864 14.736 227.808 20.88C227.808 20.88 223.328 17.648 222.24 17.264ZM252.128 9.776C246.688 11.248 244.16 16.848 249.248 21.68L244.096 23.92C240.064 18.576 240.896 12.56 245.632 10.352C245.632 10.352 240.416 10.8 235.328 10.992L235.232 6.832C235.232 6.832 247.84 6.832 251.776 6.224L252.128 9.776Z" fill="#D9333F"/>
</svg>
