<svg width="448" height="127" viewBox="0 0 448 127" fill="none" xmlns="http://www.w3.org/2000/svg">
<path d="M0 73.2358C0 50.3734 12.3063 46.6204 30.5204 46.6204C48.7346 46.6204 65.9605 50.3734 65.9605 73.2358C65.9605 96.0981 49.2251 126.466 32.4897 126.466C13.5508 126.466 0 96.0981 0 73.2358Z" fill="#D9333F"/>
<path d="M49.8206 49.8415C49.8206 51.5097 42.5652 51.5239 41.8816 52.964C41.1981 54.4041 45.8119 60.0004 44.573 61.0769C43.3341 62.1534 38.3856 56.8066 36.8263 57.3627C35.3596 57.8902 34.968 65.1976 33.2876 65.1976C31.6073 65.1976 31.2441 57.8831 29.7774 57.3484C28.2181 56.7852 23.2055 62.075 22.0164 61.0342C20.8274 59.9933 25.4199 54.3756 24.7292 52.9284C24.0386 51.4811 16.7902 51.4526 16.7974 49.7916C16.8045 48.1305 23.8178 48.7436 24.5654 47.6457C25.3629 46.4623 22.1232 40.2457 23.5615 39.6254C24.8004 39.0908 28.1326 45.6567 29.6991 45.4499C31.0732 45.2646 32.1057 37.9929 33.6294 38C35.1531 38.0071 36.0431 45.2931 37.3675 45.4784C38.9054 45.6923 42.3017 39.1763 43.4837 39.7181C44.865 40.3455 41.369 46.391 42.1024 47.6029C42.7574 48.6865 49.8206 48.1732 49.8206 49.8343V49.8415Z" fill="#2F5D50"/>
<path d="M10.9435 59.6956C10.7624 60.2245 10.1888 60.5117 9.65294 60.3303C9.11709 60.149 8.83785 59.5747 9.01898 59.0381C9.20011 58.5016 10.1058 57.2623 10.6341 57.4437C11.1624 57.625 11.1246 59.1666 10.9435 59.6956Z" fill="#FBFAF5"/>
<path d="M19.0641 65.7938C18.883 66.3228 18.3094 66.61 17.7735 66.4286C17.2377 66.2472 16.9585 65.6729 17.1396 65.1364C17.3207 64.5999 18.2264 63.3606 18.7547 63.5419C19.283 63.7233 19.2452 65.2649 19.0641 65.7938Z" fill="#FBFAF5"/>
<path d="M30.3849 68.6578C30.317 69.217 29.8113 69.6099 29.2604 69.5495C28.7094 69.489 28.3094 68.9751 28.3698 68.4235C28.4302 67.8719 29.0641 66.4588 29.6151 66.5268C30.166 66.5948 30.4453 68.1061 30.3849 68.6653V68.6578Z" fill="#FBFAF5"/>
<path d="M7.2152 72.0961C6.98879 72.6099 6.38502 72.8442 5.87936 72.6099C5.3737 72.3757 5.13219 71.7787 5.36615 71.2724C5.60011 70.7661 6.60388 69.6024 7.11709 69.8291C7.6303 70.0558 7.44917 71.5898 7.22275 72.0961H7.2152Z" fill="#FBFAF5"/>
<path d="M15.7738 78.8895C15.5474 79.4034 14.9436 79.6376 14.4379 79.4034C13.9323 79.1691 13.6908 78.5721 13.9247 78.0658C14.1587 77.5595 15.1625 76.3958 15.6757 76.6225C16.1889 76.8492 16.0078 78.3832 15.7813 78.8895H15.7738Z" fill="#FBFAF5"/>
<path d="M26.8756 81.8366C26.7624 82.3883 26.219 82.7359 25.6756 82.6225C25.1322 82.5092 24.7775 81.9651 24.8907 81.421C25.0039 80.8769 25.7586 79.5243 26.302 79.6452C26.8454 79.7661 26.9888 81.2925 26.8756 81.8442V81.8366Z" fill="#FBFAF5"/>
<path d="M42.7094 68.3177C42.8226 68.8693 42.4754 69.4059 41.932 69.5268C41.3886 69.6477 40.8452 69.2925 40.7245 68.7484C40.6037 68.2044 40.7471 66.6628 41.2905 66.5494C41.8339 66.4361 42.5886 67.7736 42.7094 68.3253V68.3177Z" fill="#FBFAF5"/>
<path d="M52.8908 65.1213C53.0795 65.6502 52.8078 66.2321 52.2795 66.421C51.7512 66.6099 51.1701 66.3379 50.9814 65.8089C50.7927 65.28 50.7248 63.7384 51.2531 63.5495C51.7814 63.3606 52.7022 64.5923 52.8908 65.1213Z" fill="#FBFAF5"/>
<path d="M60.9736 58.5847C61.3509 59.0004 61.3207 59.6427 60.9056 60.0205C60.4906 60.3983 59.849 60.3681 59.4717 59.9525C59.0943 59.5369 58.4453 58.1389 58.8604 57.7611C59.2755 57.3832 60.5962 58.1691 60.9736 58.5847Z" fill="#FBFAF5"/>
<path d="M40.2945 81.7989C40.3549 82.358 39.9549 82.8568 39.3964 82.9172C38.8379 82.9777 38.3398 82.5772 38.2794 82.018C38.219 81.4588 38.5058 79.9475 39.0643 79.887C39.6228 79.8266 40.2341 81.2397 40.2945 81.7989Z" fill="#FBFAF5"/>
<path d="M51.6607 79.6301C51.7965 80.1742 51.4644 80.7258 50.921 80.8618C50.3776 80.9978 49.8267 80.6653 49.6909 80.1213C49.555 79.5772 49.6456 78.0356 50.189 77.9072C50.7324 77.7787 51.5248 79.0936 51.6607 79.6376V79.6301Z" fill="#FBFAF5"/>
<path d="M16.7699 93.149C16.5737 93.6779 15.9925 93.9424 15.4642 93.746C14.9359 93.5495 14.6718 92.9676 14.868 92.4386C15.0642 91.9097 16.0001 90.6931 16.5208 90.882C17.0416 91.0709 16.9661 92.6125 16.7699 93.1414V93.149Z" fill="#FBFAF5"/>
<path d="M29.0492 96.3379C28.9662 96.8895 28.453 97.2749 27.9021 97.1993C27.3511 97.1238 26.9662 96.6024 27.0417 96.0507C27.1171 95.4991 27.7813 94.1087 28.3398 94.1842C28.8983 94.2598 29.1322 95.7863 29.0492 96.3454V96.3379Z" fill="#FBFAF5"/>
<path d="M40.4076 96.5268C40.5057 97.0784 40.1359 97.6074 39.5849 97.7056C39.034 97.8039 38.5057 97.4336 38.4076 96.8819C38.3094 96.3303 38.5057 94.8039 39.0566 94.7056C39.6076 94.6074 40.3094 95.9827 40.4076 96.5343V96.5268Z" fill="#FBFAF5"/>
<path d="M52.6944 92.688C52.8604 93.2246 52.5661 93.7913 52.0303 93.9651C51.4944 94.1389 50.9284 93.8367 50.7548 93.3001C50.5812 92.7636 50.5737 91.222 51.1095 91.0558C51.6454 90.8896 52.5208 92.1515 52.6869 92.688H52.6944Z" fill="#FBFAF5"/>
<path d="M60.3697 73.7359C60.7018 74.1893 60.6037 74.8241 60.1584 75.1566C59.7131 75.489 59.0716 75.3908 58.7395 74.945C58.4075 74.4991 57.9018 73.0407 58.3546 72.7082C58.8075 72.3757 60.0452 73.2901 60.3773 73.7435L60.3697 73.7359Z" fill="#FBFAF5"/>
<path d="M23.0946 107.673C24.0783 107.673 24.8757 106.874 24.8757 105.89C24.8757 104.905 24.0783 104.106 23.0946 104.106C22.1109 104.106 21.3135 104.905 21.3135 105.89C21.3135 106.874 22.1109 107.673 23.0946 107.673Z" fill="#181818"/>
<path d="M33.7811 107.673C34.7648 107.673 35.5623 106.874 35.5623 105.89C35.5623 104.905 34.7648 104.106 33.7811 104.106C32.7974 104.106 32 104.905 32 105.89C32 106.874 32.7974 107.673 33.7811 107.673Z" fill="#181818"/>
<path d="M32 111.24C32 112.222 30.7321 113.62 28.4378 113.62C26.1434 113.62 24.8755 112.23 24.8755 111.24C24.8755 110.25 26.1434 110.053 28.4378 110.053C30.7321 110.053 32 110.257 32 111.24Z" fill="#181818"/>
<path d="M448 59.4868C448 109.176 365.845 114.774 264.5 114.774C235.882 114.774 205.99 116.902 181.855 113.375C177.611 112.759 139.678 126.686 135.63 125.972C129.256 124.852 152.691 110.519 146.836 109.176C102.586 99.084 81 97.9782 81 59.4868C81 12.5972 168.758 0 270.103 0C371.448 0 448 11.1975 448 59.4868Z" fill="#2F5D50"/>
<path d="M151.144 69.2C160.648 48.704 161.032 48.752 166.216 39.392C171.688 48.368 179.944 63.92 182.92 70.256C182.92 70.256 176.152 70.88 173.896 70.88C173.896 70.88 172.408 66.368 171.208 63.44C171.208 63.44 167.128 63.488 161.368 63.584L158.488 70.496C158.488 70.496 154.216 69.776 151.144 69.2ZM162.856 56.624C165.976 56.72 169.144 56.432 169.144 56.432C167.8 53.408 165.832 49.568 165.832 49.568L162.856 56.624ZM204.301 48.032C211.069 48.272 214.813 54.272 214.429 59.744C213.853 68.384 207.901 71.264 203.437 70.976C198.877 70.688 197.005 68.336 195.661 66.608L194.797 70.976L189.661 71.024C189.661 71.024 189.421 46.688 189.373 39.824H196.765L195.997 53.264C196.909 49.712 200.749 47.936 204.301 48.032ZM202.909 64.496C205.357 64.688 207.565 62.816 207.469 59.12C207.421 56.336 205.453 54.272 202.573 54.368C201.181 54.416 198.253 55.472 198.109 59.216C198.157 61.616 199.357 64.208 202.909 64.496ZM233.6 47.6C242.288 47.552 244.304 55.184 244.448 59.024C244.688 65.456 240.464 71.264 234.128 71.456C226.4 71.696 221.792 67.088 221.6 59.456C221.264 53.984 225.056 47.648 233.6 47.6ZM237.296 59.6C237.44 56 235.952 54.224 233.552 53.744C232.064 53.456 228.272 54.176 228.176 58.736C228.08 62.48 229.808 64.736 232.784 64.832C235.28 64.88 237.152 62.72 237.296 59.6ZM260.76 71.072C254.808 71.12 249.768 66.752 251.64 48.464L258.504 48.608C258.024 55.376 256.296 64.544 262.296 64.256C264.36 64.352 268.296 61.616 267.144 48.752L273.912 48.608C273.912 48.608 274.104 69.872 274.008 71.072L267.816 71.024C267.816 71.024 268.344 67.472 268.344 66.992C268.344 66.992 265.704 71.072 260.76 71.072ZM293.619 70.88C285.699 69.824 286.371 60.704 286.563 54.128C286.563 54.128 284.163 53.6 282.003 53.36L281.811 48.32L287.523 48.368L287.619 42.176L294.099 42.656L293.859 48.464L299.379 48.512L299.331 53.456C299.331 53.456 295.155 53.84 293.283 53.744C292.995 62.576 292.803 64.064 295.107 64.448C297.459 64.832 299.043 62.336 299.523 60.752L303.123 65.408C301.011 69.056 297.891 71.456 293.619 70.88ZM335.433 71.072C329.481 71.12 324.441 66.752 326.313 48.464L333.177 48.608C332.697 55.376 330.969 64.544 336.969 64.256C339.033 64.352 342.969 61.616 341.817 48.752L348.585 48.608C348.585 48.608 348.777 69.872 348.681 71.072L342.489 71.024C342.489 71.024 343.017 67.472 343.017 66.992C343.017 66.992 340.377 71.072 335.433 71.072ZM366.469 52.592C365.077 52.496 363.925 53.216 363.781 54.32C363.733 54.896 363.877 55.616 364.789 56.192C367.189 57.632 373.381 57.632 374.581 62.576C375.493 66.128 373.909 70.832 367.909 71.84C361.621 72.848 357.253 68.864 356.245 64.688L360.613 61.952C361.573 64.688 363.253 66.368 365.701 66.368C367.285 66.368 368.437 65.216 368.533 64.064C368.581 63.2 368.149 61.952 366.277 61.472C360.709 59.984 358.837 58.784 358.069 55.952C356.965 51.92 359.797 47.936 365.077 47.408C370.117 46.928 374.341 49.712 375.157 53.888L370.501 56.096C370.117 54.08 368.149 52.64 366.469 52.592Z" fill="#FDFDFD"/>
</svg>
