<svg width="230" height="24" viewBox="0 0 230 24" fill="none" xmlns="http://www.w3.org/2000/svg">
<path d="M15.4 5.088C15.4 5.088 17.672 7.84 21.768 10.176L19.368 13.344C19.368 13.344 17.512 12.096 16.104 10.336C17.544 15.552 15.496 23.04 8.712 22.976C3.784 22.944 0.968 18.88 1.16 14.24C1.352 9.6 4.168 7.136 5.672 6.528C5.672 6.528 3.208 7.008 0.488 7.104L0.392 3.104L9.512 3.136V6.624C7.432 7.552 4.296 10.016 4.616 14.336C4.84 16.928 6.472 18.72 8.744 18.816C13.576 19.008 15.24 13.472 13.064 6.464L15.4 5.088ZM42.376 8.384C38.184 8.928 33.992 11.136 34.728 15.104C35.208 17.888 39.848 18.144 42.344 16.896L41.672 21.952C35.24 23.04 30.312 21.664 29.416 16.256C28.872 13.088 30.312 11.008 31.912 9.824C31.912 9.824 29.96 5.024 29.736 2.88L34.216 2.144C34.504 4.48 34.664 5.76 35.208 7.456L39.528 4.544L42.376 8.384ZM70.76 12.384C71.112 16.224 68.168 20.096 60.2 19.872C63.56 18.496 66.024 16.096 65.8 13.344C65.544 9.856 57.832 11.36 52.36 12.64L51.656 8.544C60.552 6.752 70.088 4.96 70.76 12.384ZM94.12 5.088C94.12 5.088 96.392 7.84 100.488 10.176L98.088 13.344C98.088 13.344 96.232 12.096 94.824 10.336C96.264 15.552 94.216 23.04 87.432 22.976C82.504 22.944 79.688 18.88 79.88 14.24C80.072 9.6 82.888 7.136 84.392 6.528C84.392 6.528 81.928 7.008 79.208 7.104L79.112 3.104L88.232 3.136V6.624C86.152 7.552 83.016 10.016 83.336 14.336C83.56 16.928 85.192 18.72 87.464 18.816C92.296 19.008 93.96 13.472 91.784 6.464L94.12 5.088ZM121.096 8.384C116.904 8.928 112.712 11.136 113.448 15.104C113.928 17.888 118.568 18.144 121.064 16.896L120.392 21.952C113.96 23.04 109.032 21.664 108.136 16.256C107.592 13.088 109.032 11.008 110.632 9.824C110.632 9.824 108.68 5.024 108.456 2.88L112.936 2.144C113.224 4.48 113.384 5.76 113.928 7.456L118.248 4.544L121.096 8.384ZM149.48 12.384C149.832 16.224 146.888 20.096 138.92 19.872C142.28 18.496 144.744 16.096 144.52 13.344C144.264 9.856 136.552 11.36 131.08 12.64L130.376 8.544C139.272 6.752 148.808 4.96 149.48 12.384ZM156.2 11.36L156.136 7.2C156.136 7.2 163.432 7.136 164.744 6.912L164.392 0.703999L168.936 0.991999L168.552 6.976C168.552 6.976 174.28 7.136 176.648 7.072L176.296 10.816L169.16 10.784C169.16 10.784 172.36 18.4 178.792 19.36L175.848 23.584C172.072 22.368 167.24 17.504 166.536 12.224C165.576 16.48 162.248 21.856 155.752 23.072C160.84 17.92 162.472 14.688 162.824 11.424C162.824 11.424 158.024 11.424 156.2 11.36ZM182.92 12.48C182.92 12.48 179.08 13.28 178.76 13.28L178.376 10.112C178.376 10.112 181.352 9.696 182.6 9.376L182.504 3.872L186.184 4L185.768 8.544L190.408 7.616L190.504 11.136L185.352 11.904L185.416 16.64C186.6 16.64 189.768 15.904 190.568 15.072L190.856 18.88C189.64 19.36 185.8 20.064 182.92 19.52C182.92 15.232 182.92 14.528 182.92 12.48ZM192.552 6.304L192.488 2.816C192.488 2.816 203.144 2.656 205.768 2.496C205.768 2.496 206.216 17.952 203.016 23.712C201.192 21.728 200.04 20.32 199.432 19.68L201.8 19.744C201.8 19.744 202.952 12.832 202.664 6.432L199.304 6.624C198.984 9.184 197.416 16.704 192.2 18.528C193.992 15.2 196.104 9.952 195.912 6.08C195.912 6.08 194.12 6.24 192.552 6.304ZM215.528 17.12C215.528 17.12 211.848 20.032 209.768 21.952C209.768 21.952 209.576 10.56 209.576 3.36L213.512 3.328C213.128 8.224 212.904 12.384 213 17.408L215.528 17.12ZM219.08 9.184L219.144 5.088C222.664 5.12 227.016 5.184 229.512 6.624C228.296 8.48 227.304 10.304 226.12 11.904L225.864 9.408C223.048 9.024 220.84 9.184 219.08 9.184ZM228.328 20.128C226.728 20.864 221.608 21.28 218.984 18.752L220.552 15.584C222.856 17.088 225.672 16.576 227.688 15.68L228.328 20.128Z" fill="#D9333F"/>
</svg>
