<svg width="294" height="166" viewBox="0 0 294 166" fill="none" xmlns="http://www.w3.org/2000/svg">
<path d="M294 50.5019C294 91.9134 236 93.9335 149 93.9335C131.78 93.9335 115.52 93.7214 100.56 93.0547C95.97 92.8527 64.33 107.367 60 107.064C53.69 106.63 74.84 91.3276 69.11 90.6609C29.03 85.9946 4 75.0862 4 50.5019C4 15.1506 42 0 149 0C256 0 294 16.1606 294 50.5019Z" fill="#2F5D50"/>
<path d="M63.608 56.4C70.736 41.028 71.024 41.064 74.912 34.044C79.016 40.776 85.208 52.44 87.44 57.192C87.44 57.192 82.364 57.66 80.672 57.66C80.672 57.66 79.556 54.276 78.656 52.08C78.656 52.08 75.596 52.116 71.276 52.188L69.116 57.372C69.116 57.372 65.912 56.832 63.608 56.4ZM72.392 46.968C74.732 47.04 77.108 46.824 77.108 46.824C76.1 44.556 74.624 41.676 74.624 41.676L72.392 46.968ZM103.475 40.524C108.551 40.704 111.359 45.204 111.071 49.308C110.639 55.788 106.175 57.948 102.827 57.732C99.4075 57.516 98.0035 55.752 96.9955 54.456L96.3475 57.732L92.4955 57.768C92.4955 57.768 92.3155 39.516 92.2795 34.368H97.8235L97.2475 44.448C97.9315 41.784 100.811 40.452 103.475 40.524ZM102.431 52.872C104.267 53.016 105.923 51.612 105.851 48.84C105.815 46.752 104.339 45.204 102.179 45.276C101.135 45.312 98.9395 46.104 98.8315 48.912C98.8675 50.712 99.7675 52.656 102.431 52.872ZM125.45 40.2C131.966 40.164 133.478 45.888 133.586 48.768C133.766 53.592 130.598 57.948 125.846 58.092C120.05 58.272 116.594 54.816 116.45 49.092C116.198 44.988 119.042 40.236 125.45 40.2ZM128.222 49.2C128.33 46.5 127.214 45.168 125.414 44.808C124.298 44.592 121.454 45.132 121.382 48.552C121.31 51.36 122.606 53.052 124.838 53.124C126.71 53.16 128.114 51.54 128.222 49.2ZM145.82 57.804C141.356 57.84 137.576 54.564 138.98 40.848L144.128 40.956C143.768 46.032 142.472 52.908 146.972 52.692C148.52 52.764 151.472 50.712 150.608 41.064L155.684 40.956C155.684 40.956 155.828 56.904 155.756 57.804L151.112 57.768C151.112 57.768 151.508 55.104 151.508 54.744C151.508 54.744 149.528 57.804 145.82 57.804ZM170.464 57.66C164.524 56.868 165.028 50.028 165.172 45.096C165.172 45.096 163.372 44.7 161.752 44.52L161.608 40.74L165.892 40.776L165.964 36.132L170.824 36.492L170.644 40.848L174.784 40.884L174.748 44.592C174.748 44.592 171.616 44.88 170.212 44.808C169.996 51.432 169.852 52.548 171.58 52.836C173.344 53.124 174.532 51.252 174.892 50.064L177.592 53.556C176.008 56.292 173.668 58.092 170.464 57.66ZM201.825 57.804C197.361 57.84 193.581 54.564 194.985 40.848L200.133 40.956C199.773 46.032 198.477 52.908 202.977 52.692C204.525 52.764 207.477 50.712 206.613 41.064L211.689 40.956C211.689 40.956 211.833 56.904 211.761 57.804L207.117 57.768C207.117 57.768 207.513 55.104 207.513 54.744C207.513 54.744 205.533 57.804 201.825 57.804ZM225.101 43.944C224.057 43.872 223.193 44.412 223.085 45.24C223.049 45.672 223.157 46.212 223.841 46.644C225.641 47.724 230.285 47.724 231.185 51.432C231.869 54.096 230.681 57.624 226.181 58.38C221.465 59.136 218.189 56.148 217.433 53.016L220.709 50.964C221.429 53.016 222.689 54.276 224.525 54.276C225.713 54.276 226.577 53.412 226.649 52.548C226.685 51.9 226.361 50.964 224.957 50.604C220.781 49.488 219.377 48.588 218.801 46.464C217.973 43.44 220.097 40.452 224.057 40.056C227.837 39.696 231.005 41.784 231.617 44.916L228.125 46.572C227.837 45.06 226.361 43.98 225.101 43.944Z" fill="#FDFDFD"/>
<path d="M0 125.686C0 108.371 9.32015 105.529 23.1146 105.529C36.9091 105.529 49.9551 108.371 49.9551 125.686C49.9551 143.001 37.2806 166 24.6061 166C10.2627 166 0 143.001 0 125.686Z" fill="#D9333F"/>
<path d="M37.7318 107.968C37.7318 109.232 32.2369 109.242 31.7192 110.333C31.2016 111.424 34.6959 115.662 33.7576 116.477C32.8193 117.293 29.0715 113.243 27.8906 113.664C26.7798 114.064 26.4832 119.598 25.2106 119.598C23.9379 119.598 23.6629 114.058 22.5521 113.654C21.3712 113.227 17.5749 117.233 16.6743 116.445C15.7738 115.657 19.2519 111.402 18.7289 110.306C18.2058 109.21 12.7163 109.188 12.7217 107.93C12.7271 106.672 18.0386 107.137 18.6048 106.305C19.2088 105.409 16.7552 100.701 17.8445 100.231C18.7828 99.8261 21.3064 104.799 22.4928 104.642C23.5335 104.502 24.3154 98.9946 25.4694 99C26.6234 99.0054 27.2974 104.523 28.3004 104.664C29.4652 104.826 32.0374 99.8909 32.9325 100.301C33.9787 100.776 31.331 105.355 31.8864 106.273C32.3825 107.093 37.7318 106.705 37.7318 107.963V107.968Z" fill="#2F5D50"/>
<path d="M8.28785 115.431C8.15067 115.832 7.71627 116.049 7.31044 115.912C6.90462 115.774 6.69313 115.34 6.83031 114.933C6.96749 114.527 7.65339 113.588 8.0535 113.726C8.45361 113.863 8.42503 115.03 8.28785 115.431Z" fill="#FBFAF5"/>
<path d="M14.4382 120.05C14.3011 120.45 13.8667 120.668 13.4608 120.53C13.055 120.393 12.8435 119.958 12.9807 119.552C13.1179 119.145 13.8038 118.207 14.2039 118.344C14.604 118.482 14.5754 119.649 14.4382 120.05Z" fill="#FBFAF5"/>
<path d="M23.0121 122.219C22.9607 122.642 22.5777 122.94 22.1605 122.894C21.7432 122.848 21.4403 122.459 21.486 122.041C21.5317 121.623 22.0119 120.553 22.4291 120.605C22.8464 120.656 23.0579 121.801 23.0121 122.224V122.219Z" fill="#FBFAF5"/>
<path d="M5.46447 124.823C5.293 125.212 4.83573 125.389 4.45277 125.212C4.0698 125.034 3.8869 124.582 4.06409 124.199C4.24128 123.815 5.00149 122.934 5.39017 123.106C5.77884 123.277 5.64166 124.439 5.47019 124.823H5.46447Z" fill="#FBFAF5"/>
<path d="M11.9464 129.968C11.7749 130.357 11.3177 130.534 10.9347 130.357C10.5517 130.179 10.3688 129.727 10.546 129.344C10.7232 128.96 11.4834 128.079 11.8721 128.251C12.2608 128.422 12.1236 129.584 11.9521 129.968H11.9464Z" fill="#FBFAF5"/>
<path d="M20.3542 132.2C20.2684 132.617 19.8569 132.881 19.4454 132.795C19.0338 132.709 18.7652 132.297 18.8509 131.885C18.9367 131.473 19.5082 130.448 19.9198 130.54C20.3313 130.632 20.4399 131.788 20.3542 132.205V132.2Z" fill="#FBFAF5"/>
<path d="M32.346 121.961C32.4317 122.379 32.1688 122.785 31.7573 122.877C31.3457 122.968 30.9342 122.699 30.8427 122.287C30.7513 121.875 30.8599 120.708 31.2714 120.622C31.683 120.536 32.2545 121.549 32.346 121.967V121.961Z" fill="#FBFAF5"/>
<path d="M40.057 119.54C40.1999 119.941 39.9941 120.382 39.594 120.525C39.1939 120.668 38.7537 120.462 38.6109 120.061C38.468 119.66 38.4165 118.493 38.8166 118.35C39.2167 118.207 39.9141 119.14 40.057 119.54Z" fill="#FBFAF5"/>
<path d="M46.1783 114.59C46.4641 114.905 46.4413 115.391 46.1269 115.677C45.8125 115.963 45.3267 115.941 45.0409 115.626C44.7551 115.311 44.2635 114.252 44.5779 113.966C44.8923 113.68 45.8925 114.275 46.1783 114.59Z" fill="#FBFAF5"/>
<path d="M30.517 132.171C30.5627 132.595 30.2598 132.972 29.8368 133.018C29.4138 133.064 29.0366 132.761 28.9909 132.337C28.9451 131.913 29.1623 130.769 29.5853 130.723C30.0083 130.677 30.4713 131.748 30.517 132.171Z" fill="#FBFAF5"/>
<path d="M39.1251 130.529C39.228 130.941 38.9765 131.358 38.565 131.461C38.1534 131.564 37.7362 131.313 37.6333 130.901C37.5304 130.488 37.599 129.321 38.0105 129.224C38.4221 129.126 39.0222 130.122 39.1251 130.534V130.529Z" fill="#FBFAF5"/>
<path d="M12.7009 140.767C12.5523 141.168 12.1121 141.368 11.712 141.219C11.3119 141.07 11.1119 140.63 11.2605 140.229C11.4091 139.828 12.1179 138.907 12.5122 139.05C12.9066 139.193 12.8495 140.361 12.7009 140.761V140.767Z" fill="#FBFAF5"/>
<path d="M22.0002 143.182C21.9374 143.6 21.5487 143.892 21.1314 143.835C20.7142 143.777 20.4227 143.383 20.4798 142.965C20.537 142.547 21.04 141.494 21.4629 141.551C21.8859 141.608 22.0631 142.764 22.0002 143.188V143.182Z" fill="#FBFAF5"/>
<path d="M30.6024 143.325C30.6767 143.743 30.3966 144.144 29.9794 144.218C29.5621 144.292 29.162 144.012 29.0877 143.594C29.0134 143.176 29.162 142.02 29.5793 141.946C29.9965 141.872 30.5281 142.913 30.6024 143.331V143.325Z" fill="#FBFAF5"/>
<path d="M39.9082 140.418C40.0339 140.824 39.811 141.254 39.4052 141.385C38.9993 141.517 38.5706 141.288 38.4392 140.882C38.3077 140.475 38.302 139.308 38.7078 139.182C39.1137 139.056 39.7767 140.012 39.9024 140.418H39.9082Z" fill="#FBFAF5"/>
<path d="M45.7209 126.065C45.9724 126.408 45.8981 126.889 45.5609 127.141C45.2236 127.392 44.7378 127.318 44.4863 126.98C44.2348 126.643 43.8518 125.538 44.1948 125.286C44.5377 125.034 45.4751 125.727 45.7266 126.07L45.7209 126.065Z" fill="#FBFAF5"/>
<path d="M17.4905 151.767C18.2355 151.767 18.8395 151.162 18.8395 150.416C18.8395 149.67 18.2355 149.065 17.4905 149.065C16.7455 149.065 16.1416 149.67 16.1416 150.416C16.1416 151.162 16.7455 151.767 17.4905 151.767Z" fill="#181818"/>
<path d="M25.5843 151.767C26.3293 151.767 26.9332 151.162 26.9332 150.416C26.9332 149.67 26.3293 149.065 25.5843 149.065C24.8393 149.065 24.2354 149.67 24.2354 150.416C24.2354 151.162 24.8393 151.767 25.5843 151.767Z" fill="#181818"/>
<path d="M24.2351 154.468C24.2351 155.212 23.2749 156.271 21.5372 156.271C19.7996 156.271 18.8394 155.218 18.8394 154.468C18.8394 153.718 19.7996 153.569 21.5372 153.569C23.2749 153.569 24.2351 153.724 24.2351 154.468Z" fill="#181818"/>
</svg>
