<svg width="344" height="35" viewBox="0 0 344 35" fill="none" xmlns="http://www.w3.org/2000/svg">
<path d="M22.6 6.632C22.6 6.632 26.008 10.76 32.152 14.264L28.552 19.016C28.552 19.016 25.768 17.144 23.656 14.504C25.816 22.328 22.744 33.56 12.568 33.464C5.176 33.416 0.952001 27.32 1.24 20.36C1.528 13.4 5.752 9.704 8.008 8.792C8.008 8.792 4.312 9.512 0.232001 9.656L0.0880003 3.656L13.768 3.704V8.936C10.648 10.328 5.944 14.024 6.424 20.504C6.76 24.392 9.208 27.08 12.616 27.224C19.864 27.512 22.36 19.208 19.096 8.696L22.6 6.632ZM63.064 11.576C56.776 12.392 50.488 15.704 51.592 21.656C52.312 25.832 59.272 26.216 63.016 24.344L62.008 31.928C52.36 33.56 44.968 31.496 43.624 23.384C42.808 18.632 44.968 15.512 47.368 13.736C47.368 13.736 44.44 6.536 44.104 3.32L50.824 2.216C51.256 5.72 51.496 7.64 52.312 10.184L58.792 5.816L63.064 11.576ZM105.64 17.576C106.168 23.336 101.752 29.144 89.8 28.808C94.84 26.744 98.536 23.144 98.2 19.016C97.816 13.784 86.248 16.04 78.04 17.96L76.984 11.816C90.328 9.128 104.632 6.44 105.64 17.576ZM140.68 6.632C140.68 6.632 144.088 10.76 150.232 14.264L146.632 19.016C146.632 19.016 143.848 17.144 141.736 14.504C143.896 22.328 140.824 33.56 130.648 33.464C123.256 33.416 119.032 27.32 119.32 20.36C119.608 13.4 123.832 9.704 126.088 8.792C126.088 8.792 122.392 9.512 118.312 9.656L118.168 3.656L131.848 3.704V8.936C128.728 10.328 124.024 14.024 124.504 20.504C124.84 24.392 127.288 27.08 130.696 27.224C137.944 27.512 140.44 19.208 137.176 8.696L140.68 6.632ZM181.144 11.576C174.856 12.392 168.568 15.704 169.672 21.656C170.392 25.832 177.352 26.216 181.096 24.344L180.088 31.928C170.44 33.56 163.048 31.496 161.704 23.384C160.888 18.632 163.048 15.512 165.448 13.736C165.448 13.736 162.52 6.536 162.184 3.32L168.904 2.216C169.336 5.72 169.576 7.64 170.392 10.184L176.872 5.816L181.144 11.576ZM223.72 17.576C224.248 23.336 219.832 29.144 207.88 28.808C212.92 26.744 216.616 23.144 216.28 19.016C215.896 13.784 204.328 16.04 196.12 17.96L195.064 11.816C208.408 9.128 222.712 6.44 223.72 17.576ZM233.8 16.04L233.704 9.8C233.704 9.8 244.648 9.704 246.616 9.368L246.088 0.0559978L252.904 0.487998L252.328 9.464C252.328 9.464 260.92 9.704 264.472 9.608L263.944 15.224L253.24 15.176C253.24 15.176 258.04 26.6 267.688 28.04L263.272 34.376C257.608 32.552 250.36 25.256 249.304 17.336C247.864 23.72 242.872 31.784 233.128 33.608C240.76 25.88 243.208 21.032 243.736 16.136C243.736 16.136 236.536 16.136 233.8 16.04ZM273.88 17.72C273.88 17.72 268.12 18.92 267.64 18.92L267.064 14.168C267.064 14.168 271.528 13.544 273.4 13.064L273.256 4.808L278.776 5L278.152 11.816L285.112 10.424L285.256 15.704L277.528 16.856L277.624 23.96C279.4 23.96 284.152 22.856 285.352 21.608L285.784 27.32C283.96 28.04 278.2 29.096 273.88 28.28C273.88 21.848 273.88 20.792 273.88 17.72ZM288.328 8.456L288.232 3.224C288.232 3.224 304.216 2.984 308.152 2.744C308.152 2.744 308.824 25.928 304.024 34.568C301.288 31.592 299.56 29.48 298.648 28.52L302.2 28.616C302.2 28.616 303.928 18.248 303.496 8.648L298.456 8.936C297.976 12.776 295.624 24.056 287.8 26.792C290.488 21.8 293.656 13.928 293.368 8.12C293.368 8.12 290.68 8.36 288.328 8.456ZM322.792 24.68C322.792 24.68 317.272 29.048 314.152 31.928C314.152 31.928 313.864 14.84 313.864 4.04L319.768 3.992C319.192 11.336 318.856 17.576 319 25.112L322.792 24.68ZM328.12 12.776L328.216 6.632C333.496 6.68 340.024 6.776 343.768 8.936C341.944 11.72 340.456 14.456 338.68 16.856L338.296 13.112C334.072 12.536 330.76 12.776 328.12 12.776ZM341.992 29.192C339.592 30.296 331.912 30.92 327.976 27.128L330.328 22.376C333.784 24.632 338.008 23.864 341.032 22.52L341.992 29.192Z" fill="#D9333F"/>
</svg>
