<svg width="222" height="30" viewBox="0 0 222 30" fill="none" xmlns="http://www.w3.org/2000/svg">
<path d="M9.44 12.28C7.36 12.76 5.56 13.48 2.08 14.16L0.84 8.88C0.84 8.88 5.12 8.24 8.28 7.76L6.24 2.6L12 0.999999C12 0.999999 13.56 6.6 13.64 7.24C13.64 7.24 16.32 6.48 20.92 5.6L21.68 10.68C21.68 10.68 17.44 11.36 13.84 11.76L14.84 14.52C14.84 14.52 20.6 13.48 22.4 13.12L23.04 17.28C19.8 18.28 19 18.56 16.72 19.28C16.72 19.28 19.2 26.84 19.72 27.88L13.56 29.76C12.64 26.04 12.32 24.44 11.48 21.4L4.48 22.6C4.48 22.6 3.32 19.84 2.6 17.6C2.6 17.6 7.28 16.68 10.52 16.08L9.44 12.28ZM45.8 13.64C45.8 13.64 55.24 12.6 56.56 12.68C55.56 16.24 55 17.68 53.56 21.08C52.92 18.44 52.68 17.64 52.16 16.24C52.16 16.24 47.28 16.96 46.36 17.08C46.36 17.08 47.4 27.04 47.48 28.4L43.04 28.84C43.04 28.84 42.44 18.96 42.2 17.56C42.2 17.56 38.92 18.4 36.44 19.12L35.56 14.64C39 14.16 40.16 14.24 42 14L41.4 8.4L45.96 8.24C45.96 8.24 45.8 13 45.8 13.64ZM76.24 27.16C76.28 27.2 76.28 27.2 76.24 27.2V27.16ZM72 14C72 14 73.64 16.88 73.84 17.72C73.84 17.72 72.12 18.8 71.08 19.4C71.08 19.4 69.56 16.84 69.04 15.64L72 14ZM74.72 14.56L78.16 13C78.16 13 79.4 15.76 79.84 16.56L76.84 18.36C75.92 16.44 75.4 15.92 74.72 14.56ZM89.2 14.52C88.32 20.16 83.96 27.52 76.32 27.12C82.24 23.08 84.28 17.48 84.16 13L89.2 14.52ZM115 7.76L114.88 12.44L124.64 12.16L124.6 17.72C124.6 17.72 119.16 17.48 115.24 17.12C115.56 22.2 113.16 28.4 104.68 28.56C109.32 25.16 110.48 21.44 110.2 17.4C110.2 17.4 104.44 17.64 98.8 17.88L98.72 12.6C98.72 12.6 103.32 12.8 110.56 12.64L110.2 8.48C107.96 8.88 103.04 8 100.64 5.6C107.44 5.4 112.68 3.36 115.76 0.719998L119.04 6.08C118.52 6.48 116.36 7.48 115 7.76ZM134.56 5.64C134.56 5.64 146.72 5.04 154.64 5.8C154.8 8.72 155 19.6 153.88 25.88C153.88 25.88 143.08 26.4 135.16 26.04L134.84 21.08C134.84 21.08 143.08 21.2 148.76 21L149 10.24C149 10.24 141.84 10.28 134.8 11.24L134.56 5.64ZM190.32 2.24C192.04 3.08 192.16 4.56 191.96 5.6C191.64 7.32 189.6 8.52 187.6 7.52C185.84 6.6 185.6 4.64 186.32 3.48C187.52 1.44 189.6 1.88 190.32 2.24ZM190.16 4.84C190.16 4.6 190.08 4.04 189.56 3.8C189.12 3.56 188.52 3.6 188.08 4.2C187.72 4.76 188.04 5.68 188.68 5.92C189.4 6.12 190.04 5.76 190.16 4.84ZM185.96 10.88C185.96 10.88 180.76 14.24 172.4 13.72C172.4 16.04 172.32 18.84 172.32 21.64C175.48 22.72 182.24 21.4 184.2 20.44L184.16 16.68C184.16 16.68 187.44 22.92 189.08 25.44C181.48 27.64 171.56 27.88 167.24 24.36C167.24 24.36 167.36 7.64 167.2 5.12L172.6 5.04C172.6 5.04 172.48 8.88 172.44 12.84C175.44 11.48 180.12 7.92 182.4 4.84L185.96 10.88ZM198.8 17.56L198.12 12.16C203.6 12.24 218.8 12.4 221.8 12.04L221.4 17.44C221.4 17.44 209.12 17.4 198.8 17.56Z" fill="#FDFDFD"/>
</svg>
