<svg width="741" height="99" viewBox="0 0 741 99" fill="none" xmlns="http://www.w3.org/2000/svg">
<path d="M29.074 39.638C22.106 41.246 16.076 43.658 4.418 45.936L0.264001 28.248C0.264001 28.248 14.602 26.104 25.188 24.496L18.354 7.20999L37.65 1.85C37.65 1.85 42.876 20.61 43.144 22.754C43.144 22.754 52.122 20.208 67.532 17.26L70.078 34.278C70.078 34.278 55.874 36.556 43.814 37.896L47.164 47.142C47.164 47.142 66.46 43.658 72.49 42.452L74.634 56.388C63.78 59.738 61.1 60.676 53.462 63.088C53.462 63.088 61.77 88.414 63.512 91.898L42.876 98.196C39.794 85.734 38.722 80.374 35.908 70.19L12.458 74.21C12.458 74.21 8.572 64.964 6.16 57.46C6.16 57.46 21.838 54.378 32.692 52.368L29.074 39.638ZM150.88 44.194C150.88 44.194 182.504 40.71 186.926 40.978C183.576 52.904 181.7 57.728 176.876 69.118C174.732 60.274 173.928 57.594 172.186 52.904C172.186 52.904 155.838 55.316 152.756 55.718C152.756 55.718 156.24 89.084 156.508 93.64L141.634 95.114C141.634 95.114 139.624 62.016 138.82 57.326C138.82 57.326 127.832 60.14 119.524 62.552L116.576 47.544C128.1 45.936 131.986 46.204 138.15 45.4L136.14 26.64L151.416 26.104C151.416 26.104 150.88 42.05 150.88 44.194ZM252.854 89.486C252.988 89.62 252.988 89.62 252.854 89.62V89.486ZM238.65 45.4C238.65 45.4 244.144 55.048 244.814 57.862C244.814 57.862 239.052 61.48 235.568 63.49C235.568 63.49 230.476 54.914 228.734 50.894L238.65 45.4ZM247.762 47.276L259.286 42.05C259.286 42.05 263.44 51.296 264.914 53.976L254.864 60.006C251.782 53.574 250.04 51.832 247.762 47.276ZM296.27 47.142C293.322 66.036 278.716 90.692 253.122 89.352C272.954 75.818 279.788 57.058 279.386 42.05L296.27 47.142ZM382.7 24.496L382.298 40.174L414.994 39.236L414.86 57.862C414.86 57.862 396.636 57.058 383.504 55.852C384.576 72.87 376.536 93.64 348.128 94.176C363.672 82.786 367.558 70.324 366.62 56.79C366.62 56.79 347.324 57.594 328.43 58.398L328.162 40.71C328.162 40.71 343.572 41.38 367.826 40.844L366.62 26.908C359.116 28.248 342.634 25.3 334.594 17.26C357.374 16.59 374.928 9.756 385.246 0.911993L396.234 18.868C394.492 20.208 387.256 23.558 382.7 24.496ZM448.226 17.394C448.226 17.394 488.962 15.384 515.494 17.93C516.03 27.712 516.7 64.16 512.948 85.198C512.948 85.198 476.768 86.94 450.236 85.734L449.164 69.118C449.164 69.118 476.768 69.52 495.796 68.85L496.6 32.804C496.6 32.804 472.614 32.938 449.03 36.154L448.226 17.394ZM635.022 6.004C640.784 8.81799 641.186 13.776 640.516 17.26C639.444 23.022 632.61 27.042 625.91 23.692C620.014 20.61 619.21 14.044 621.622 10.158C625.642 3.32399 632.61 4.798 635.022 6.004ZM634.486 14.714C634.486 13.91 634.218 12.034 632.476 11.23C631.002 10.426 628.992 10.56 627.518 12.57C626.312 14.446 627.384 17.528 629.528 18.332C631.94 19.002 634.084 17.796 634.486 14.714ZM620.416 34.948C620.416 34.948 602.996 46.204 574.99 44.462C574.99 52.234 574.722 61.614 574.722 70.994C585.308 74.612 607.954 70.19 614.52 66.974L614.386 54.378C614.386 54.378 625.374 75.282 630.868 83.724C605.408 91.094 572.176 91.898 557.704 80.106C557.704 80.106 558.106 24.094 557.57 15.652L575.66 15.384C575.66 15.384 575.258 28.248 575.124 41.514C585.174 36.958 600.852 25.032 608.49 14.714L620.416 34.948ZM663.43 57.326L661.152 39.236C679.51 39.504 730.43 40.04 740.48 38.834L739.14 56.924C739.14 56.924 698.002 56.79 663.43 57.326Z" fill="#FDFDFD"/>
</svg>
