<svg width="66" height="66" viewBox="0 0 66 66" fill="none" xmlns="http://www.w3.org/2000/svg">
<rect width="66" height="66" rx="25" fill="#FFFEED"/>
<rect x="2.5" y="2.5" width="61" height="61" rx="24.5" stroke="#60524A" stroke-opacity="0.8" stroke-linejoin="round" stroke-dasharray="3 3"/>
<path d="M12.4618 42.524C12.3778 40.292 14.0698 38.504 17.0218 38.744L16.9738 40.604C15.7018 40.292 14.2618 40.976 14.3458 42.464C14.4058 43.424 15.0538 44.204 16.2538 44.18C17.2498 44.168 18.0898 43.46 18.1978 42.572L19.4938 44.192C18.9898 45.38 17.6218 46.304 15.9178 46.208C14.4058 46.136 12.5458 45.008 12.4618 42.524ZM21.4631 38.744H23.5031C23.5031 38.744 23.3111 43.064 23.2631 44.312L26.5991 44.012L26.5271 46.04C26.5271 46.04 22.5431 46.16 21.5711 46.016C21.5711 46.016 21.5351 39.92 21.4631 38.744ZM31.9265 38.672C33.2705 38.708 35.0345 39.2 35.2025 42.308C35.3105 44.384 34.3265 45.968 32.6345 46.328C30.9065 46.7 28.8185 45.56 28.6985 42.896C28.5425 39.392 30.5945 38.672 31.9265 38.672ZM31.8425 44.876C32.6105 44.96 33.5585 44.396 33.4865 42.416C33.4505 41.228 33.1145 40.184 31.8065 40.184C30.6305 40.316 30.2945 41.324 30.3305 42.656C30.3665 43.76 30.8105 44.744 31.8425 44.876ZM43.1157 44.204C43.0797 45.056 42.4077 46.268 40.4757 46.256C39.1077 46.256 38.1237 45.368 37.8597 44.564L38.9997 43.484C39.1437 44.084 39.5877 44.708 40.3797 44.78C40.8477 44.816 41.3277 44.696 41.3757 44.096C41.4837 42.728 38.8797 42.968 38.3877 41.18C38.0397 39.884 38.8437 38.72 40.4037 38.588C41.8557 38.468 43.0677 39.476 43.0917 40.76L41.5917 40.988C41.6397 40.508 41.2917 39.92 40.7157 39.908C40.2237 39.896 39.8637 40.112 39.8517 40.532C39.8277 40.928 40.0557 41.084 40.4277 41.348C42.5037 42.452 43.1637 42.944 43.1157 44.204ZM46.452 45.956C46.308 42.224 46.32 42.224 46.368 38.792C46.368 38.792 49.224 38.684 51.696 38.816L51.552 40.244C51.552 40.244 49.74 40.412 48.504 40.46L48.552 41.576C48.552 41.576 50.448 41.492 51.168 41.492L51.144 43.064C51.144 43.064 49.236 42.992 48.576 42.956L48.66 44.324C48.66 44.324 50.724 44.396 51.732 44.132L51.588 46.052C51.588 46.052 47.496 46.148 46.452 45.956Z" fill="#2F5D50"/>
<rect x="26" y="22.8284" width="4" height="15" transform="rotate(-45 26 22.8284)" fill="#2F5D50"/>
<rect x="36.6064" y="20" width="4" height="15" transform="rotate(45 36.6064 20)" fill="#2F5D50"/>
</svg>
