<svg width="448" height="127" viewBox="0 0 448 127" fill="none" xmlns="http://www.w3.org/2000/svg">
<path d="M0 73.2359C0 50.3736 12.3063 46.6206 30.5204 46.6206C48.7346 46.6206 65.9605 50.3736 65.9605 73.2359C65.9605 96.0983 49.2251 126.467 32.4897 126.467C13.5508 126.467 0 96.0983 0 73.2359Z" fill="#D9333F"/>
<path d="M49.8206 49.8415C49.8206 51.5097 42.5652 51.5239 41.8816 52.964C41.1981 54.4041 45.8119 60.0004 44.573 61.0769C43.3341 62.1534 38.3856 56.8066 36.8263 57.3627C35.3596 57.8902 34.968 65.1976 33.2876 65.1976C31.6073 65.1976 31.2441 57.8831 29.7774 57.3484C28.2181 56.7852 23.2055 62.075 22.0164 61.0342C20.8274 59.9933 25.4199 54.3756 24.7292 52.9284C24.0386 51.4811 16.7902 51.4526 16.7974 49.7916C16.8045 48.1305 23.8178 48.7436 24.5654 47.6457C25.3629 46.4623 22.1232 40.2457 23.5615 39.6254C24.8004 39.0908 28.1326 45.6567 29.6991 45.4499C31.0732 45.2646 32.1057 37.9929 33.6294 38C35.1531 38.0071 36.0431 45.2931 37.3675 45.4784C38.9054 45.6923 42.3017 39.1763 43.4837 39.7181C44.865 40.3455 41.369 46.391 42.1024 47.6029C42.7574 48.6865 49.8206 48.1732 49.8206 49.8343V49.8415Z" fill="#2F5D50"/>
<path d="M10.9435 59.6956C10.7624 60.2246 10.1888 60.5118 9.65294 60.3304C9.11709 60.149 8.83785 59.5747 9.01898 59.0382C9.20011 58.5017 10.1058 57.2624 10.6341 57.4437C11.1624 57.6251 11.1246 59.1667 10.9435 59.6956Z" fill="#FBFAF5"/>
<path d="M19.0641 65.7938C18.883 66.3227 18.3094 66.6099 17.7735 66.4285C17.2377 66.2472 16.9585 65.6729 17.1396 65.1363C17.3207 64.5998 18.2264 63.3605 18.7547 63.5419C19.283 63.7232 19.2452 65.2648 19.0641 65.7938Z" fill="#FBFAF5"/>
<path d="M30.3849 68.6578C30.317 69.217 29.8113 69.6099 29.2604 69.5495C28.7094 69.489 28.3094 68.9751 28.3698 68.4235C28.4302 67.8719 29.0641 66.4588 29.6151 66.5268C30.166 66.5948 30.4453 68.1061 30.3849 68.6653V68.6578Z" fill="#FBFAF5"/>
<path d="M7.2152 72.096C6.98879 72.6099 6.38502 72.8441 5.87936 72.6099C5.3737 72.3756 5.13219 71.7786 5.36615 71.2723C5.60011 70.766 6.60388 69.6023 7.11709 69.829C7.6303 70.0557 7.44917 71.5897 7.22275 72.096H7.2152Z" fill="#FBFAF5"/>
<path d="M15.7738 78.8895C15.5474 79.4033 14.9436 79.6376 14.4379 79.4033C13.9323 79.1691 13.6908 78.5721 13.9247 78.0658C14.1587 77.5595 15.1625 76.3958 15.6757 76.6225C16.1889 76.8492 16.0078 78.3832 15.7813 78.8895H15.7738Z" fill="#FBFAF5"/>
<path d="M26.8756 81.8365C26.7624 82.3881 26.219 82.7357 25.6756 82.6224C25.1322 82.509 24.7775 81.965 24.8907 81.4209C25.0039 80.8768 25.7586 79.5242 26.302 79.6451C26.8454 79.766 26.9888 81.2924 26.8756 81.844V81.8365Z" fill="#FBFAF5"/>
<path d="M42.7094 68.3178C42.8226 68.8694 42.4754 69.4059 41.932 69.5268C41.3886 69.6477 40.8452 69.2926 40.7245 68.7485C40.6037 68.2044 40.7471 66.6629 41.2905 66.5495C41.8339 66.4362 42.5886 67.7737 42.7094 68.3253V68.3178Z" fill="#FBFAF5"/>
<path d="M52.8908 65.1211C53.0795 65.6501 52.8078 66.2319 52.2795 66.4208C51.7512 66.6098 51.1701 66.3377 50.9814 65.8087C50.7927 65.2798 50.7248 63.7382 51.2531 63.5493C51.7814 63.3604 52.7022 64.5921 52.8908 65.1211Z" fill="#FBFAF5"/>
<path d="M60.9736 58.5847C61.3509 59.0004 61.3207 59.6427 60.9056 60.0205C60.4906 60.3983 59.849 60.3681 59.4717 59.9525C59.0943 59.5369 58.4453 58.1389 58.8604 57.7611C59.2755 57.3832 60.5962 58.1691 60.9736 58.5847Z" fill="#FBFAF5"/>
<path d="M40.2945 81.7987C40.3549 82.3579 39.9549 82.8567 39.3964 82.9171C38.8379 82.9776 38.3398 82.5771 38.2794 82.0179C38.219 81.4587 38.5058 79.9473 39.0643 79.8869C39.6228 79.8264 40.2341 81.2395 40.2945 81.7987Z" fill="#FBFAF5"/>
<path d="M51.6607 79.6299C51.7965 80.174 51.4644 80.7256 50.921 80.8616C50.3776 80.9977 49.8267 80.6652 49.6909 80.1211C49.555 79.577 49.6456 78.0354 50.189 77.907C50.7324 77.7785 51.5248 79.0934 51.6607 79.6375V79.6299Z" fill="#FBFAF5"/>
<path d="M16.7699 93.1488C16.5737 93.6778 15.9925 93.9422 15.4642 93.7458C14.9359 93.5493 14.6718 92.9674 14.868 92.4385C15.0642 91.9095 16.0001 90.6929 16.5208 90.8818C17.0416 91.0707 16.9661 92.6123 16.7699 93.1412V93.1488Z" fill="#FBFAF5"/>
<path d="M29.0492 96.3378C28.9662 96.8894 28.453 97.2748 27.9021 97.1992C27.3511 97.1237 26.9662 96.6023 27.0417 96.0506C27.1171 95.499 27.7813 94.1085 28.3398 94.1841C28.8983 94.2597 29.1322 95.7861 29.0492 96.3453V96.3378Z" fill="#FBFAF5"/>
<path d="M40.4076 96.5268C40.5057 97.0785 40.1359 97.6074 39.5849 97.7057C39.034 97.8039 38.5057 97.4336 38.4076 96.882C38.3094 96.3304 38.5057 94.8039 39.0566 94.7057C39.6076 94.6074 40.3094 95.9828 40.4076 96.5344V96.5268Z" fill="#FBFAF5"/>
<path d="M52.6944 92.688C52.8604 93.2245 52.5661 93.7913 52.0303 93.9651C51.4944 94.1389 50.9284 93.8366 50.7548 93.3001C50.5812 92.7635 50.5737 91.222 51.1095 91.0557C51.6454 90.8895 52.5208 92.1515 52.6869 92.688H52.6944Z" fill="#FBFAF5"/>
<path d="M60.3697 73.7359C60.7018 74.1893 60.6037 74.8241 60.1584 75.1566C59.7131 75.489 59.0716 75.3908 58.7395 74.945C58.4075 74.4991 57.9018 73.0407 58.3546 72.7082C58.8075 72.3757 60.0452 73.2901 60.3773 73.7435L60.3697 73.7359Z" fill="#FBFAF5"/>
<path d="M23.0946 107.673C24.0783 107.673 24.8757 106.875 24.8757 105.89C24.8757 104.905 24.0783 104.106 23.0946 104.106C22.1109 104.106 21.3135 104.905 21.3135 105.89C21.3135 106.875 22.1109 107.673 23.0946 107.673Z" fill="#181818"/>
<path d="M33.7811 107.673C34.7648 107.673 35.5623 106.875 35.5623 105.89C35.5623 104.905 34.7648 104.106 33.7811 104.106C32.7974 104.106 32 104.905 32 105.89C32 106.875 32.7974 107.673 33.7811 107.673Z" fill="#181818"/>
<path d="M32 111.24C32 112.222 30.7321 113.62 28.4378 113.62C26.1434 113.62 24.8755 112.23 24.8755 111.24C24.8755 110.25 26.1434 110.053 28.4378 110.053C30.7321 110.053 32 110.257 32 111.24Z" fill="#181818"/>
<path d="M448 59.4868C448 109.176 365.845 114.774 264.5 114.774C235.882 114.774 205.99 116.902 181.855 113.375C177.611 112.759 139.678 126.686 135.63 125.972C129.256 124.852 152.691 110.519 146.836 109.176C102.586 99.084 81 97.9782 81 59.4868C81 12.5972 168.758 0 270.103 0C371.448 0 448 11.1975 448 59.4868Z" fill="#2F5D50"/>
<path d="M117.872 59.096C117.536 50.168 124.304 43.016 136.112 43.976L135.92 51.416C130.832 50.168 125.072 52.904 125.408 58.856C125.648 62.696 128.24 65.816 133.04 65.72C137.024 65.672 140.384 62.84 140.816 59.288L146 65.768C143.984 70.52 138.512 74.216 131.696 73.832C125.648 73.544 118.208 69.032 117.872 59.096ZM164.677 50.6C173.365 50.552 175.381 58.184 175.525 62.024C175.765 68.456 171.541 74.264 165.205 74.456C157.477 74.696 152.869 70.088 152.677 62.456C152.341 56.984 156.133 50.648 164.677 50.6ZM168.373 62.6C168.517 59 167.029 57.224 164.629 56.744C163.141 56.456 159.349 57.176 159.253 61.736C159.157 65.48 160.885 67.736 163.861 67.832C166.357 67.88 168.229 65.72 168.373 62.6ZM206.813 73.64L199.757 73.688C199.757 73.688 200.093 64.664 199.565 62.744C199.037 60.92 197.741 59.288 194.909 59.432C192.413 59.576 190.493 61.352 190.349 66.344C190.301 68.312 190.253 70.376 190.301 73.592L182.813 73.64C182.813 73.64 182.813 54.68 182.717 51.224H189.725L189.341 55.592C191.021 52.52 194.525 51.32 197.837 51.608C207.053 52.328 207.725 60.872 206.813 73.64ZM226.196 73.88C218.276 72.824 218.948 63.704 219.14 57.128C219.14 57.128 216.74 56.6 214.58 56.36L214.388 51.32L220.1 51.368L220.196 45.176L226.676 45.656L226.436 51.464L231.956 51.512L231.908 56.456C231.908 56.456 227.732 56.84 225.86 56.744C225.572 65.576 225.38 67.064 227.684 67.448C230.036 67.832 231.62 65.336 232.1 63.752L235.7 68.408C233.588 72.056 230.468 74.456 226.196 73.88ZM269.163 50.504C267.387 64.28 267.579 70.616 275.739 71.192C273.483 73.496 268.107 75.992 263.163 71.48C260.091 75.08 246.747 77.432 243.579 65.576C241.659 58.424 246.987 50.84 254.523 51.08C257.883 51.224 260.139 52.376 261.291 53.576L261.051 50.408L269.163 50.504ZM255.819 67.4C257.931 67.256 260.571 65.72 260.331 62.264C260.235 60.248 259.035 58.184 256.011 57.752C252.795 57.224 250.299 59.864 250.635 63.32C250.731 64.904 252.267 67.736 255.819 67.4ZM297.906 56.648C293.442 55.016 288.162 56.84 288.21 62.36C288.258 65.48 290.802 67.496 293.202 67.832C298.242 68.456 300.162 64.424 300.162 61.64L305.154 65.24C304.098 71.864 298.194 74.888 292.578 74.504C286.722 74.024 282.546 70.184 281.442 64.616C280.146 57.992 284.226 49.112 297.282 50.504L297.906 56.648ZM324.73 73.88C316.81 72.824 317.482 63.704 317.674 57.128C317.674 57.128 315.274 56.6 313.114 56.36L312.922 51.32L318.634 51.368L318.73 45.176L325.21 45.656L324.97 51.464L330.49 51.512L330.442 56.456C330.442 56.456 326.266 56.84 324.394 56.744C324.106 65.576 323.914 67.064 326.218 67.448C328.57 67.832 330.154 65.336 330.634 63.752L334.234 68.408C332.122 72.056 329.002 74.456 324.73 73.88ZM374.512 44.648L382.72 44.312C383.344 50.408 383.44 55.592 383.152 59.384C382.384 69.128 377.872 72.968 370.96 73.208C363.232 73.448 359.248 67.64 358.528 58.76C358.144 54.344 358.24 48.2 358.336 44.12L365.872 44.072C365.872 44.072 364.912 53.816 365.2 59.336C365.536 65.24 368.128 67.496 371.296 67.16C374.416 66.872 375.712 63.224 375.712 57.416C375.712 53.576 375.184 48.824 374.512 44.648ZM401.657 55.592C400.265 55.496 399.113 56.216 398.969 57.32C398.921 57.896 399.065 58.616 399.977 59.192C402.377 60.632 408.569 60.632 409.769 65.576C410.681 69.128 409.097 73.832 403.097 74.84C396.809 75.848 392.441 71.864 391.433 67.688L395.801 64.952C396.761 67.688 398.441 69.368 400.889 69.368C402.473 69.368 403.625 68.216 403.721 67.064C403.769 66.2 403.337 64.952 401.465 64.472C395.897 62.984 394.025 61.784 393.257 58.952C392.153 54.92 394.985 50.936 400.265 50.408C405.305 49.928 409.529 52.712 410.345 56.888L405.689 59.096C405.305 57.08 403.337 55.64 401.657 55.592Z" fill="#FDFDFD"/>
</svg>
