<svg width="290" height="158" viewBox="0 0 290 158" fill="none" xmlns="http://www.w3.org/2000/svg">
<path d="M290 50.5019C290 91.9134 232 93.9335 145 93.9335C127.78 93.9335 111.52 93.7214 96.56 93.0547C91.97 92.8527 60.33 107.367 56 107.064C49.69 106.63 70.84 91.3276 65.11 90.6609C25.03 85.9946 0 75.0862 0 50.5019C0 15.1506 38 0 145 0C252 0 290 16.1606 290 50.5019Z" fill="#2F5D50"/>
<path d="M37.904 49.572C37.652 42.876 42.728 37.512 51.584 38.232L51.44 43.812C47.624 42.876 43.304 44.928 43.556 49.392C43.736 52.272 45.68 54.612 49.28 54.54C52.268 54.504 54.788 52.38 55.112 49.716L59 54.576C57.488 58.14 53.384 60.912 48.272 60.624C43.736 60.408 38.156 57.024 37.904 49.572ZM73.0079 43.2C79.5239 43.164 81.0359 48.888 81.1439 51.768C81.3239 56.592 78.1559 60.948 73.4039 61.092C67.6079 61.272 64.1519 57.816 64.0079 52.092C63.7559 47.988 66.5999 43.236 73.0079 43.2ZM75.7799 52.2C75.8879 49.5 74.7719 48.168 72.9719 47.808C71.8559 47.592 69.0119 48.132 68.9399 51.552C68.8679 54.36 70.1639 56.052 72.3959 56.124C74.2679 56.16 75.6719 54.54 75.7799 52.2ZM104.61 60.48L99.3178 60.516C99.3178 60.516 99.5698 53.748 99.1738 52.308C98.7778 50.94 97.8058 49.716 95.6818 49.824C93.8098 49.932 92.3698 51.264 92.2618 55.008C92.2258 56.484 92.1898 58.032 92.2258 60.444L86.6098 60.48C86.6098 60.48 86.6098 46.26 86.5378 43.668H91.7938L91.5058 46.944C92.7658 44.64 95.3938 43.74 97.8778 43.956C104.79 44.496 105.294 50.904 104.61 60.48ZM119.147 60.66C113.207 59.868 113.711 53.028 113.855 48.096C113.855 48.096 112.055 47.7 110.435 47.52L110.291 43.74L114.575 43.776L114.647 39.132L119.507 39.492L119.327 43.848L123.467 43.884L123.431 47.592C123.431 47.592 120.299 47.88 118.895 47.808C118.679 54.432 118.535 55.548 120.263 55.836C122.027 56.124 123.215 54.252 123.575 53.064L126.275 56.556C124.691 59.292 122.351 61.092 119.147 60.66ZM151.372 43.128C150.04 53.46 150.184 58.212 156.304 58.644C154.612 60.372 150.58 62.244 146.872 58.86C144.568 61.56 134.56 63.324 132.184 54.432C130.744 49.068 134.74 43.38 140.392 43.56C142.912 43.668 144.604 44.532 145.468 45.432L145.288 43.056L151.372 43.128ZM141.364 55.8C142.948 55.692 144.928 54.54 144.748 51.948C144.676 50.436 143.776 48.888 141.508 48.564C139.096 48.168 137.224 50.148 137.476 52.74C137.548 53.928 138.7 56.052 141.364 55.8ZM172.93 47.736C169.582 46.512 165.622 47.88 165.658 52.02C165.694 54.36 167.602 55.872 169.402 56.124C173.182 56.592 174.622 53.568 174.622 51.48L178.366 54.18C177.574 59.148 173.146 61.416 168.934 61.128C164.542 60.768 161.41 57.888 160.582 53.712C159.61 48.744 162.67 42.084 172.462 43.128L172.93 47.736ZM193.047 60.66C187.107 59.868 187.611 53.028 187.755 48.096C187.755 48.096 185.955 47.7 184.335 47.52L184.191 43.74L188.475 43.776L188.547 39.132L193.407 39.492L193.227 43.848L197.367 43.884L197.331 47.592C197.331 47.592 194.199 47.88 192.795 47.808C192.579 54.432 192.435 55.548 194.163 55.836C195.927 56.124 197.115 54.252 197.475 53.064L200.175 56.556C198.591 59.292 196.251 61.092 193.047 60.66ZM230.384 38.736L236.54 38.484C237.008 43.056 237.08 46.944 236.864 49.788C236.288 57.096 232.904 59.976 227.72 60.156C221.924 60.336 218.936 55.98 218.396 49.32C218.108 46.008 218.18 41.4 218.252 38.34L223.904 38.304C223.904 38.304 223.184 45.612 223.4 49.752C223.652 54.18 225.596 55.872 227.972 55.62C230.312 55.404 231.284 52.668 231.284 48.312C231.284 45.432 230.888 41.868 230.384 38.736ZM250.743 46.944C249.699 46.872 248.835 47.412 248.727 48.24C248.691 48.672 248.799 49.212 249.483 49.644C251.283 50.724 255.927 50.724 256.827 54.432C257.511 57.096 256.323 60.624 251.823 61.38C247.107 62.136 243.831 59.148 243.075 56.016L246.351 53.964C247.071 56.016 248.331 57.276 250.167 57.276C251.355 57.276 252.219 56.412 252.291 55.548C252.327 54.9 252.003 53.964 250.599 53.604C246.423 52.488 245.019 51.588 244.443 49.464C243.615 46.44 245.739 43.452 249.699 43.056C253.479 42.696 256.647 44.784 257.259 47.916L253.767 49.572C253.479 48.06 252.003 46.98 250.743 46.944Z" fill="#FDFDFD"/>
<path d="M0 117.686C0 100.371 9.32015 97.5286 23.1146 97.5286C36.9091 97.5286 49.9551 100.371 49.9551 117.686C49.9551 135 37.2806 158 24.6061 158C10.2627 158 0 135 0 117.686Z" fill="#D9333F"/>
<path d="M37.7318 99.9681C37.7318 101.232 32.2369 101.242 31.7192 102.333C31.2016 103.424 34.6959 107.662 33.7576 108.477C32.8193 109.293 29.0715 105.243 27.8906 105.664C26.7798 106.064 26.4832 111.598 25.2106 111.598C23.9379 111.598 23.6629 106.058 22.5521 105.654C21.3712 105.227 17.5749 109.233 16.6743 108.445C15.7738 107.657 19.2519 103.402 18.7289 102.306C18.2058 101.21 12.7163 101.188 12.7217 99.9303C12.7271 98.6723 18.0386 99.1366 18.6048 98.3052C19.2088 97.4089 16.7552 92.7008 17.8445 92.231C18.7828 91.8261 21.3064 96.7988 22.4928 96.6422C23.5335 96.5018 24.3154 90.9946 25.4694 91C26.6234 91.0054 27.2974 96.5234 28.3004 96.6638C29.4652 96.8258 32.0374 91.8909 32.9325 92.3012C33.9787 92.7763 31.331 97.3549 31.8864 98.2728C32.3825 99.0934 37.7318 98.7047 37.7318 99.9627V99.9681Z" fill="#2F5D50"/>
<path d="M8.28785 107.431C8.15067 107.832 7.71627 108.049 7.31044 107.912C6.90462 107.775 6.69313 107.34 6.83031 106.933C6.96749 106.527 7.65339 105.588 8.0535 105.726C8.45361 105.863 8.42503 107.031 8.28785 107.431Z" fill="#FBFAF5"/>
<path d="M14.4382 112.05C14.3011 112.45 13.8667 112.668 13.4608 112.53C13.055 112.393 12.8435 111.958 12.9807 111.552C13.1179 111.145 13.8038 110.207 14.2039 110.344C14.604 110.482 14.5754 111.649 14.4382 112.05Z" fill="#FBFAF5"/>
<path d="M23.0121 114.219C22.9607 114.642 22.5777 114.94 22.1605 114.894C21.7432 114.848 21.4403 114.459 21.486 114.041C21.5317 113.624 22.0119 112.553 22.4291 112.605C22.8464 112.656 23.0579 113.801 23.0121 114.224V114.219Z" fill="#FBFAF5"/>
<path d="M5.46447 116.823C5.293 117.212 4.83573 117.389 4.45277 117.212C4.0698 117.034 3.8869 116.582 4.06409 116.199C4.24128 115.815 5.00149 114.934 5.39017 115.106C5.77884 115.277 5.64166 116.439 5.47019 116.823H5.46447Z" fill="#FBFAF5"/>
<path d="M11.9464 121.968C11.7749 122.357 11.3177 122.534 10.9347 122.357C10.5517 122.179 10.3688 121.727 10.546 121.344C10.7232 120.96 11.4834 120.079 11.8721 120.251C12.2608 120.422 12.1236 121.584 11.9521 121.968H11.9464Z" fill="#FBFAF5"/>
<path d="M20.3542 124.2C20.2684 124.617 19.8569 124.881 19.4454 124.795C19.0338 124.709 18.7652 124.297 18.8509 123.885C18.9367 123.473 19.5082 122.448 19.9198 122.54C20.3313 122.632 20.4399 123.788 20.3542 124.205V124.2Z" fill="#FBFAF5"/>
<path d="M32.346 113.961C32.4317 114.379 32.1688 114.785 31.7573 114.877C31.3457 114.968 30.9342 114.699 30.8427 114.287C30.7513 113.875 30.8599 112.708 31.2714 112.622C31.683 112.536 32.2545 113.549 32.346 113.967V113.961Z" fill="#FBFAF5"/>
<path d="M40.057 111.54C40.1999 111.941 39.9941 112.382 39.594 112.525C39.1939 112.668 38.7537 112.462 38.6109 112.061C38.468 111.661 38.4165 110.493 38.8166 110.35C39.2167 110.207 39.9141 111.14 40.057 111.54Z" fill="#FBFAF5"/>
<path d="M46.1783 106.59C46.4641 106.905 46.4413 107.391 46.1269 107.677C45.8125 107.963 45.3267 107.941 45.0409 107.626C44.7551 107.311 44.2635 106.252 44.5779 105.966C44.8923 105.68 45.8925 106.275 46.1783 106.59Z" fill="#FBFAF5"/>
<path d="M30.517 124.171C30.5627 124.595 30.2598 124.972 29.8368 125.018C29.4138 125.064 29.0366 124.761 28.9909 124.337C28.9451 123.913 29.1623 122.769 29.5853 122.723C30.0083 122.677 30.4713 123.748 30.517 124.171Z" fill="#FBFAF5"/>
<path d="M39.1251 122.529C39.228 122.941 38.9765 123.358 38.565 123.461C38.1534 123.564 37.7362 123.313 37.6333 122.901C37.5304 122.488 37.599 121.321 38.0105 121.224C38.4221 121.126 39.0222 122.122 39.1251 122.534V122.529Z" fill="#FBFAF5"/>
<path d="M12.7009 132.767C12.5523 133.168 12.1121 133.368 11.712 133.219C11.3119 133.07 11.1119 132.63 11.2605 132.229C11.4091 131.828 12.1179 130.907 12.5122 131.05C12.9066 131.193 12.8495 132.361 12.7009 132.761V132.767Z" fill="#FBFAF5"/>
<path d="M22.0002 135.182C21.9374 135.6 21.5487 135.892 21.1314 135.835C20.7142 135.777 20.4227 135.382 20.4798 134.965C20.537 134.547 21.04 133.494 21.4629 133.551C21.8859 133.608 22.0631 134.764 22.0002 135.188V135.182Z" fill="#FBFAF5"/>
<path d="M30.6024 135.325C30.6767 135.743 30.3966 136.144 29.9794 136.218C29.5621 136.292 29.162 136.012 29.0877 135.594C29.0134 135.176 29.162 134.02 29.5793 133.946C29.9965 133.872 30.5281 134.913 30.6024 135.331V135.325Z" fill="#FBFAF5"/>
<path d="M39.9082 132.418C40.0339 132.824 39.811 133.253 39.4052 133.385C38.9993 133.517 38.5706 133.288 38.4392 132.881C38.3077 132.475 38.302 131.308 38.7078 131.182C39.1137 131.056 39.7767 132.012 39.9024 132.418H39.9082Z" fill="#FBFAF5"/>
<path d="M45.7209 118.064C45.9724 118.408 45.8981 118.889 45.5609 119.14C45.2236 119.392 44.7378 119.318 44.4863 118.98C44.2348 118.642 43.8518 117.538 44.1948 117.286C44.5377 117.034 45.4751 117.727 45.7266 118.07L45.7209 118.064Z" fill="#FBFAF5"/>
<path d="M17.4905 143.767C18.2355 143.767 18.8395 143.162 18.8395 142.416C18.8395 141.67 18.2355 141.065 17.4905 141.065C16.7455 141.065 16.1416 141.67 16.1416 142.416C16.1416 143.162 16.7455 143.767 17.4905 143.767Z" fill="#181818"/>
<path d="M25.5843 143.767C26.3293 143.767 26.9332 143.162 26.9332 142.416C26.9332 141.67 26.3293 141.065 25.5843 141.065C24.8393 141.065 24.2354 141.67 24.2354 142.416C24.2354 143.162 24.8393 143.767 25.5843 143.767Z" fill="#181818"/>
<path d="M24.2351 146.468C24.2351 147.212 23.2749 148.271 21.5372 148.271C19.7996 148.271 18.8394 147.218 18.8394 146.468C18.8394 145.718 19.7996 145.57 21.5372 145.57C23.2749 145.57 24.2351 145.724 24.2351 146.468Z" fill="#181818"/>
</svg>
