<svg width="66" height="66" viewBox="0 0 66 66" fill="none" xmlns="http://www.w3.org/2000/svg">
<rect width="66" height="66" rx="25" fill="#2F5D50"/>
<rect x="2.5" y="2.5" width="61" height="61" rx="24.5" stroke="#FFFEED" stroke-linejoin="round" stroke-dasharray="3 3"/>
<rect x="18" y="14" width="30" height="24" rx="5" fill="#FFFEED"/>
<rect x="25" y="12" width="2" height="5" rx="1" fill="#60524A"/>
<rect x="39" y="12" width="2" height="5" rx="1" fill="#60524A"/>
<path d="M40 25.3577C40 25.6094 39.9097 25.8233 39.729 25.9995L32.7226 32.833L31.4065 34.1166C31.2258 34.2928 31.0065 34.3809 30.7484 34.3809C30.4903 34.3809 30.271 34.2928 30.0903 34.1166L28.7742 32.833L25.271 29.4163C25.0903 29.2401 25 29.0261 25 28.7744C25 28.5227 25.0903 28.3088 25.271 28.1326L26.5871 26.849C26.7677 26.6728 26.9871 26.5847 27.2452 26.5847C27.5032 26.5847 27.7226 26.6728 27.9032 26.849L30.7484 29.6333L37.0968 23.4322C37.2774 23.2561 37.4968 23.168 37.7548 23.168C38.0129 23.168 38.2323 23.2561 38.4129 23.4322L39.729 24.7159C39.9097 24.8921 40 25.106 40 25.3577Z" fill="#D9333F"/>
<path d="M27.72 44.412L27.576 43.476L28.32 43.332L28.248 44.22C28.248 44.22 27.936 44.304 27.72 44.412ZM27.228 43.5V44.388C27.228 44.388 26.904 44.472 26.7 44.58L26.472 43.644L27.228 43.5ZM20.244 43.44C20.244 43.44 24.72 43.344 25.896 43.464C25.896 43.464 25.104 45.264 24.696 46.212C24.696 46.212 24.432 45.3 24.288 44.856C24.288 44.856 22.752 44.724 20.412 44.952L20.244 43.44ZM20.88 47.916C21.84 48.636 24.204 48.552 25.092 47.988L25.2 49.968C24.42 50.16 22.644 50.484 20.532 49.872C20.532 49.872 20.688 48.636 20.88 47.916ZM35.328 42.072C35.184 42.936 34.512 44.088 33.816 44.4L34.608 44.892L33.804 45.768C33.06 45.108 32.424 44.64 31.992 44.388L32.46 43.752C32.46 43.752 33.372 44.16 33.372 44.172C33.372 44.172 33.708 43.56 33.756 43.272C33.756 43.272 31.668 43.512 31.104 43.476L31.032 42.084C31.032 42.084 34.932 42.096 35.328 42.072ZM29.076 46.128C29.076 46.128 35.364 46.092 36.816 45.972C36.816 45.972 36.468 47.292 35.568 48.264C35.568 48.264 35.616 47.52 35.616 47.304C35.616 47.304 33.996 47.304 33.768 47.304C33.768 47.304 33.828 50.364 33.708 51.3C33.708 51.3 32.088 49.98 31.512 49.62C31.512 49.62 32.496 49.668 32.652 49.644C32.652 49.644 32.7 47.544 32.628 47.28C32.628 47.28 29.58 47.472 29.1 47.472L29.076 46.128ZM42.012 46.656C42.012 46.656 40.584 47.232 38.388 46.824C38.388 46.824 39.192 45.744 39.312 45.444C39.312 45.444 38.316 44.952 37.848 44.496C37.848 44.496 39.588 42.972 39.876 42.636L40.764 43.488C40.764 43.488 39.48 44.316 39.108 44.424L40.44 44.808C40.44 44.808 40.212 45.636 39.744 46.236C39.744 46.236 40.44 46.296 40.944 46.152L40.632 45.588L41.424 45.252L42.012 46.656ZM39.588 50.268L39.648 47.436L40.512 47.4L40.56 50.22C40.56 50.22 39.96 50.268 39.588 50.268ZM39.3 48.564C39.216 48.672 38.568 49.224 37.512 49.188C37.752 48.912 38.376 48.204 38.544 47.88L39.3 48.564ZM42.444 48.336L41.736 49.164C41.736 49.164 41.064 48.444 40.968 48.276L41.436 47.772C41.436 47.772 42.168 48.3 42.444 48.336ZM45.324 49.296C45.324 49.296 46.116 49.428 46.356 49.404C46.356 49.404 46.476 46.848 46.44 44.736C46.44 44.736 44.244 44.772 43.884 44.676C43.884 44.676 43.5 45.36 42.528 46.02C42.9 44.58 43.032 43.716 42.876 42.18L44.604 42.3C44.604 42.3 44.292 43.572 44.184 43.764C44.184 43.764 47.328 43.692 47.688 43.692C47.688 43.692 47.688 50.28 47.448 51.396C47.448 51.396 45.636 49.524 45.324 49.296ZM43.62 47.748C43.62 47.748 43.56 46.596 43.584 46.428L44.832 46.476L44.772 47.652L43.62 47.748Z" fill="#FBFAF5"/>
</svg>
