<svg width="196" height="60" viewBox="0 0 196 60" fill="none" xmlns="http://www.w3.org/2000/svg">
<path d="M76.712 15.792C77.528 16.968 75.848 18.264 75.152 17.184C74.888 16.752 73.808 15.72 73.328 15.432C72.128 14.712 73.328 13.344 74.432 13.944C75.056 14.28 76.256 15.12 76.712 15.792ZM74.072 17.712C74.864 18.912 73.112 20.16 72.464 19.056C72.2 18.6 71.168 17.496 70.712 17.208C69.56 16.464 70.784 15.168 71.864 15.792C72.488 16.152 73.616 17.04 74.072 17.712ZM60.08 25.104L59.672 25.248C57.56 25.92 56.648 26.184 55.928 26.4C54.032 26.952 53.384 24.408 55.376 23.928C56.456 23.664 58.208 23.232 59.264 22.992L59.96 22.824V22.536C59.912 21.144 59.84 20.136 59.792 19.104C59.72 17.472 62.288 17.328 62.312 19.008C62.312 19.776 62.288 20.88 62.24 22.008L62.216 22.32C63.8 21.984 65.792 21.6 67.76 21.264C67.76 20.544 67.736 19.848 67.736 19.248C67.736 18.72 67.736 18.504 67.712 18.312C67.688 18.12 67.712 17.88 67.688 17.352C67.64 15.864 70.088 15.672 70.088 17.376C70.088 18.192 70.04 18.888 69.992 19.56C69.968 19.968 69.944 20.448 69.92 20.928C70.136 20.904 70.328 20.88 70.544 20.856C71.912 20.688 73.256 20.52 74.528 20.592C76.496 20.712 76.112 23.064 74.168 22.944C72.968 22.872 72.008 22.896 70.784 22.992C70.448 23.016 70.112 23.04 69.776 23.064C69.752 23.472 69.704 23.904 69.656 24.312C69.416 25.944 68.936 27.456 67.808 28.224C66.896 28.848 65.672 28.896 64.856 27.864C64.52 27.456 64.16 27.024 63.896 26.568C63.272 25.512 64.592 24.384 65.528 25.608C66.224 26.52 66.632 26.4 66.968 25.896C67.352 25.296 67.568 24.384 67.664 23.352C65.672 23.664 63.8 24.072 62.216 24.48C62.24 25.608 62.264 26.784 62.336 27.624C62.528 30.216 63.296 31.008 65.312 31.056C66.8 31.104 67.832 30.768 69.224 30.432C71.048 30 71.6 32.304 69.896 32.784C68.24 33.24 66.32 33.336 64.928 33.192C61.784 32.856 60.632 31.368 60.296 28.104C60.2 27.24 60.128 26.112 60.08 25.104ZM94.1821 31.8C91.5901 33.84 86.7901 34.368 86.8381 29.832C86.8381 28.728 87.0061 28.056 86.9581 26.976C86.8381 24.312 83.1901 26.568 82.5181 27.768C81.9421 28.8 81.2701 29.856 81.0061 31.032C80.5741 32.88 80.0461 33 79.5661 33.072C78.7261 33.192 77.5981 32.616 78.1501 31.224C79.2301 28.512 80.5981 26.112 81.9901 23.952C83.3821 21.792 84.6301 19.752 85.8061 17.88C86.2141 17.208 86.8621 16.368 87.1261 15.888C87.9181 14.472 90.1501 15.672 89.3581 17.184C89.1661 17.52 88.9981 17.784 88.8061 18.024C88.6141 18.264 88.3741 18.528 88.1101 18.84C86.9581 20.136 86.1901 21.144 85.5661 22.032C84.9421 22.92 84.4621 23.688 83.9341 24.48C83.7661 24.72 83.8381 24.672 84.0061 24.528C84.8701 23.76 89.0221 22.632 89.3581 26.688C89.4301 27.624 89.2381 28.44 89.2381 29.328C89.2381 31.464 91.3021 31.2 92.7181 29.928C93.9421 28.824 94.4701 27.672 94.9021 26.568C95.5981 24.792 98.1181 26.016 97.2061 27.816C96.5341 29.136 95.5981 30.696 94.1821 31.8ZM122.142 20.304C122.934 21.432 121.35 22.68 120.702 21.648C120.438 21.24 119.406 20.232 118.95 19.968C117.822 19.296 118.926 18 119.982 18.552C120.582 18.864 121.686 19.68 122.142 20.304ZM119.334 21.816C120.078 22.968 118.446 24.168 117.822 23.112C117.582 22.68 116.574 21.648 116.142 21.36C115.038 20.64 116.214 19.392 117.246 19.992C117.822 20.328 118.902 21.168 119.334 21.816ZM113.382 21.216C113.07 21.264 112.614 21.456 112.23 21.552C110.934 21.864 110.238 20.424 111.294 19.848C111.798 19.584 111.87 19.392 111.654 19.056C111.126 18.168 110.118 17.568 109.662 16.968C108.798 15.816 110.43 14.76 111.414 15.744C112.398 16.728 114.726 18.216 114.798 19.608C114.846 20.28 114.534 21.048 113.382 21.216ZM120.702 29.088C121.518 30.984 119.022 32.112 118.446 30.384C117.87 28.656 116.598 27.408 115.782 26.856C114.558 26.016 115.782 24.456 117.126 25.248C118.446 26.04 119.91 27.216 120.702 29.088ZM113.358 26.088C116.622 30.528 112.446 34.728 107.166 32.136C105.87 31.488 106.638 29.616 108.078 30.216C112.134 31.872 112.734 29.04 111.366 27.12C110.718 26.208 109.326 24.96 108.798 24.36C107.454 22.8 109.47 21.864 110.358 22.776C111.27 23.712 112.59 25.032 113.358 26.088ZM103.734 31.536C102.27 33.264 100.326 31.632 101.838 30C102.438 29.352 103.638 27.72 104.262 26.688C105.198 25.152 106.926 26.352 106.422 27.504C105.846 28.824 104.67 30.432 103.734 31.536ZM134.286 24.096H134.406C136.206 24.168 137.982 24.576 139.614 25.152C139.758 24.168 139.662 23.28 139.278 22.632C138.606 21.504 140.766 20.592 141.558 22.08C142.086 23.04 142.158 24.48 141.798 26.064C143.046 26.664 144.174 27.384 145.11 28.104C146.622 29.28 144.99 31.488 143.622 30.24C142.83 29.52 141.966 28.872 141.006 28.296C140.118 30.096 138.606 31.896 136.446 33.168C134.766 34.152 133.566 32.28 135.126 31.32C136.926 30.216 138.174 28.728 138.918 27.264C137.142 26.52 135.246 26.088 133.326 26.064C132.438 27.912 131.622 29.4 130.254 30.456C128.814 31.584 126.702 31.728 125.67 30.456C124.446 28.92 125.334 26.424 128.094 25.2C129.366 24.648 130.71 24.312 132.03 24.168C132.87 22.368 133.974 20.184 134.646 18.672C134.79 18.336 134.862 18.144 134.502 18.24C133.566 18.48 132.654 18.792 131.67 18.816C130.086 18.864 130.158 16.632 131.598 16.536C132.558 16.488 134.022 16.128 135.054 15.936C137.238 15.504 138.198 16.92 137.118 18.672C136.11 20.352 135.15 22.296 134.286 24.096ZM130.998 26.256C130.374 26.352 129.654 26.544 128.766 26.976C128.142 27.288 127.014 28.296 127.422 28.896C127.71 29.304 128.574 29.16 129.006 28.824C129.798 28.224 130.446 27.24 130.998 26.256ZM161.238 31.224C161.694 31.128 162.198 30.84 162.63 30.456C164.382 28.896 164.31 26.616 162.942 25.704C161.694 24.864 159.102 24.696 156.678 26.112C155.718 26.664 155.214 27.096 154.662 27.912C153.798 29.184 151.398 27.768 152.886 26.304C155.526 23.688 157.47 21.84 160.134 18.552C160.398 18.216 160.158 18.312 159.966 18.408C159.294 18.768 157.71 19.248 155.934 19.632C154.038 20.04 153.678 17.664 155.31 17.472C156.918 17.28 159.222 16.704 160.59 16.296C162.51 15.744 164.094 17.448 162.894 18.792C162.126 19.656 161.166 20.592 160.206 21.48C159.246 22.368 158.286 23.232 157.422 24.072C159.534 22.944 162.39 22.944 164.166 24C167.622 26.064 166.494 30.288 163.974 32.112C161.598 33.816 157.854 33.912 156.03 32.712C153.486 31.056 154.614 28.08 157.446 27.984C159.366 27.912 161.166 29.064 161.238 31.224ZM159.198 31.584C159.222 30.48 158.574 29.64 157.518 29.736C156.462 29.832 156.414 30.816 157.182 31.224C157.734 31.512 158.526 31.608 159.198 31.584ZM182.046 27.792V27.768C182.046 27.624 182.046 27.456 182.046 27.264C182.046 24.936 181.806 19.344 181.662 15.576C181.662 15.552 181.662 15.528 181.662 15.504C181.662 14.616 182.358 14.184 183.054 14.184C183.774 14.184 184.494 14.64 184.494 15.576C184.494 18.408 184.11 25.008 184.11 27.336C184.11 27.912 184.11 28.92 183.054 28.92C182.55 28.92 182.046 28.536 182.046 27.792ZM184.734 32.28C184.734 33.432 183.726 33.864 183.078 33.864C182.166 33.864 181.422 33.096 181.422 32.28C181.422 31.224 182.43 30.624 183.078 30.624C184.014 30.624 184.734 31.2 184.734 32.28Z" fill="#181818"/>
<circle cx="23" cy="24" r="23" fill="#2F5D50"/>
<path d="M190.325 57.4999C190.325 56.2111 191.374 55.1626 192.663 55.1626C193.952 55.1626 195 56.2111 195 57.4999C195 58.7888 193.952 59.8373 192.663 59.8373C191.374 59.8373 190.325 58.7888 190.325 57.4999ZM180.308 57.4999C180.308 56.2111 181.357 55.1626 182.646 55.1626C183.934 55.1626 184.983 56.2111 184.983 57.4999C184.983 58.7888 183.934 59.8373 182.646 59.8373C181.357 59.8373 180.308 58.7888 180.308 57.4999ZM170.291 57.4999C170.291 56.2111 171.34 55.1626 172.628 55.1626C173.917 55.1626 174.966 56.2111 174.966 57.4999C174.966 58.7888 173.917 59.8373 172.628 59.8373C171.34 59.8373 170.291 58.7888 170.291 57.4999ZM160.274 57.4999C160.274 56.2111 161.322 55.1626 162.611 55.1626C163.9 55.1626 164.949 56.2111 164.949 57.4999C164.949 58.7888 163.9 59.8373 162.611 59.8373C161.322 59.8373 160.274 58.7888 160.274 57.4999ZM150.257 57.4999C150.257 56.2111 151.305 55.1626 152.594 55.1626C153.883 55.1626 154.932 56.2111 154.932 57.4999C154.932 58.7888 153.883 59.8373 152.594 59.8373C151.305 59.8373 150.257 58.7888 150.257 57.4999ZM140.24 57.4999C140.24 56.2111 141.288 55.1626 142.577 55.1626C143.866 55.1626 144.914 56.2111 144.914 57.4999C144.914 58.7888 143.866 59.8373 142.577 59.8373C141.288 59.8373 140.24 58.7888 140.24 57.4999ZM130.223 57.4999C130.223 56.2111 131.271 55.1626 132.56 55.1626C133.849 55.1626 134.897 56.2111 134.897 57.4999C134.897 58.7888 133.849 59.8373 132.56 59.8373C131.271 59.8373 130.223 58.7888 130.223 57.4999ZM120.205 57.4999C120.205 56.2111 121.254 55.1626 122.543 55.1626C123.832 55.1626 124.88 56.2111 124.88 57.4999C124.88 58.7888 123.832 59.8373 122.543 59.8373C121.254 59.8373 120.205 58.7888 120.205 57.4999ZM110.188 57.4999C110.188 56.2111 111.237 55.1626 112.526 55.1626C113.815 55.1626 114.863 56.2111 114.863 57.4999C114.863 58.7888 113.815 59.8373 112.526 59.8373C111.237 59.8373 110.188 58.7888 110.188 57.4999ZM100.171 57.4999C100.171 56.2111 101.22 55.1626 102.509 55.1626C103.797 55.1626 104.846 56.2111 104.846 57.4999C104.846 58.7888 103.797 59.8373 102.509 59.8373C101.22 59.8373 100.171 58.7888 100.171 57.4999ZM90.1541 57.4999C90.1541 56.2111 91.2026 55.1626 92.4914 55.1626C93.7803 55.1626 94.8288 56.2111 94.8288 57.4999C94.8288 58.7888 93.7803 59.8373 92.4914 59.8373C91.2026 59.8373 90.1541 58.7888 90.1541 57.4999ZM80.137 57.4999C80.137 56.2111 81.1854 55.1626 82.4743 55.1626C83.7632 55.1626 84.8116 56.2111 84.8116 57.4999C84.8116 58.7888 83.7632 59.8373 82.4743 59.8373C81.1854 59.8373 80.137 58.7888 80.137 57.4999ZM70.1199 57.4999C70.1199 56.2111 71.1683 55.1626 72.4572 55.1626C73.7461 55.1626 74.7945 56.2111 74.7945 57.4999C74.7945 58.7888 73.7461 59.8373 72.4572 59.8373C71.1683 59.8373 70.1199 58.7888 70.1199 57.4999ZM60.1027 57.4999C60.1027 56.2111 61.1512 55.1626 62.4401 55.1626C63.7289 55.1626 64.7774 56.2111 64.7774 57.4999C64.7774 58.7888 63.7289 59.8373 62.4401 59.8373C61.1512 59.8373 60.1027 58.7888 60.1027 57.4999ZM50.0856 57.4999C50.0856 56.2111 51.1341 55.1626 52.4229 55.1626C53.7118 55.1626 54.7603 56.2111 54.7603 57.4999C54.7603 58.7888 53.7118 59.8373 52.4229 59.8373C51.1341 59.8373 50.0856 58.7888 50.0856 57.4999ZM40.0685 57.4999C40.0685 56.2111 41.117 55.1626 42.4058 55.1626C43.6947 55.1626 44.7432 56.2111 44.7432 57.4999C44.7432 58.7888 43.6947 59.8373 42.4058 59.8373C41.117 59.8373 40.0685 58.7888 40.0685 57.4999ZM30.0514 57.4999C30.0514 56.2111 31.0998 55.1626 32.3887 55.1626C33.6776 55.1626 34.726 56.2111 34.726 57.4999C34.726 58.7888 33.6776 59.8373 32.3887 59.8373C31.0998 59.8373 30.0514 58.7888 30.0514 57.4999ZM20.0342 57.4999C20.0342 56.2111 21.0827 55.1626 22.3716 55.1626C23.6604 55.1626 24.7089 56.2111 24.7089 57.4999C24.7089 58.7888 23.6604 59.8373 22.3716 59.8373C21.0827 59.8373 20.0342 58.7888 20.0342 57.4999ZM10.0171 57.4999C10.0171 56.2111 11.0656 55.1626 12.3545 55.1626C13.6433 55.1626 14.6918 56.2111 14.6918 57.4999C14.6918 58.7888 13.6433 59.8373 12.3545 59.8373C11.0656 59.8373 10.0171 58.7888 10.0171 57.4999ZM0 57.4999C0 56.2111 1.04846 55.1626 2.33733 55.1626C3.6262 55.1626 4.67466 56.2111 4.67466 57.4999C4.67466 58.7888 3.6262 59.8373 2.33733 59.8373C1.04846 59.8373 0 58.7888 0 57.4999Z" fill="#2F5D50"/>
<path d="M14 23C13.4477 23 13 23.4477 13 24C13 24.5523 13.4477 25 14 25V23ZM33.7071 24.7071C34.0976 24.3166 34.0976 23.6834 33.7071 23.2929L27.3431 16.9289C26.9526 16.5384 26.3195 16.5384 25.9289 16.9289C25.5384 17.3195 25.5384 17.9526 25.9289 18.3431L31.5858 24L25.9289 29.6569C25.5384 30.0474 25.5384 30.6805 25.9289 31.0711C26.3195 31.4616 26.9526 31.4616 27.3431 31.0711L33.7071 24.7071ZM14 25H33V23H14V25Z" fill="#FDFDFD"/>
<circle cx="23" cy="23" r="22" fill="#FDFDFD" stroke="#2F5D50" stroke-width="2"/>
<path d="M13 23C12.4477 23 12 23.4477 12 24C12 24.5523 12.4477 25 13 25V23ZM32.7071 24.7071C33.0976 24.3166 33.0976 23.6834 32.7071 23.2929L26.3431 16.9289C25.9526 16.5384 25.3195 16.5384 24.9289 16.9289C24.5384 17.3195 24.5384 17.9526 24.9289 18.3431L30.5858 24L24.9289 29.6569C24.5384 30.0474 24.5384 30.6805 24.9289 31.0711C25.3195 31.4616 25.9526 31.4616 26.3431 31.0711L32.7071 24.7071ZM13 25H32V23H13V25Z" fill="#2F5D50"/>
</svg>
