<svg width="23" height="33" viewBox="0 0 23 33" fill="none" xmlns="http://www.w3.org/2000/svg">
<path d="M0 13.1278C0 5.01174 4.29112 3.67944 10.6423 3.67944C16.9935 3.67944 23 5.01174 23 13.1278C23 21.2438 17.1645 32.0245 11.329 32.0245C4.72508 32.0245 0 21.2438 0 13.1278Z" fill="#D9333F"/>
<path d="M17.7619 4.32215C17.7619 4.93105 15.1607 4.93625 14.9156 5.46188C14.6705 5.98751 16.3247 8.03019 15.8805 8.42311C15.4363 8.81603 13.6622 6.86443 13.1032 7.0674C12.5773 7.25995 12.4369 9.92714 11.8345 9.92714C11.232 9.92714 11.1018 7.25735 10.576 7.06219C10.0169 6.85662 8.21981 8.78741 7.79351 8.4075C7.3672 8.02759 9.01371 5.9771 8.76609 5.44887C8.51848 4.92064 5.91981 4.91023 5.92237 4.30393C5.92492 3.69763 8.43935 3.92142 8.70738 3.52069C8.99329 3.08873 7.8318 0.819674 8.34745 0.593288C8.79162 0.398128 9.98629 2.79469 10.5479 2.71923C11.0406 2.65158 11.4107 -0.00260022 11.957 1.91208e-06C12.5033 0.00260405 12.8224 2.66198 13.2972 2.72964C13.8486 2.8077 15.0662 0.429354 15.49 0.627116C15.9852 0.856104 14.7318 3.06271 14.9947 3.50508C15.2296 3.9006 17.7619 3.71325 17.7619 4.31954V4.32215Z" fill="#2F5D50"/>
<path d="M3.70132 9.03199C3.64006 9.21414 3.44605 9.31302 3.26481 9.25057C3.08356 9.18811 2.98911 8.99035 3.05038 8.8056C3.11164 8.62085 3.41797 8.1941 3.59666 8.25655C3.77535 8.319 3.76259 8.84984 3.70132 9.03199Z" fill="#FBFAF5"/>
<path d="M6.4479 11.132C6.38664 11.3141 6.19263 11.413 6.01139 11.3505C5.83015 11.2881 5.7357 11.0903 5.79696 10.9056C5.85823 10.7208 6.16455 10.2941 6.34324 10.3565C6.52193 10.419 6.50917 10.9498 6.4479 11.132Z" fill="#FBFAF5"/>
<path d="M10.2774 12.1182C10.2544 12.3107 10.0834 12.446 9.89701 12.4252C9.71066 12.4044 9.57537 12.2275 9.59579 12.0375C9.61621 11.8475 9.83064 11.3609 10.017 11.3844C10.2033 11.4078 10.2978 11.9282 10.2774 12.1208V12.1182Z" fill="#FBFAF5"/>
<path d="M2.44045 13.3021C2.36387 13.479 2.15965 13.5597 1.98862 13.479C1.81759 13.3984 1.7359 13.1928 1.81504 13.0184C1.89417 12.8441 2.23368 12.4434 2.40727 12.5214C2.58085 12.5995 2.51959 13.1277 2.443 13.3021H2.44045Z" fill="#FBFAF5"/>
<path d="M5.33498 15.6414C5.2584 15.8184 5.05418 15.899 4.88315 15.8184C4.71212 15.7377 4.63043 15.5321 4.70957 15.3578C4.7887 15.1835 5.12821 14.7827 5.3018 14.8608C5.47538 14.9389 5.41412 15.4671 5.33754 15.6414H5.33498Z" fill="#FBFAF5"/>
<path d="M9.09011 16.6563C9.05182 16.8462 8.86802 16.9659 8.68423 16.9269C8.50043 16.8879 8.38046 16.7005 8.41875 16.5132C8.45704 16.3258 8.71231 15.86 8.8961 15.9017C9.0799 15.9433 9.1284 16.4689 9.09011 16.6589V16.6563Z" fill="#FBFAF5"/>
<path d="M14.4461 12.001C14.4844 12.191 14.367 12.3757 14.1832 12.4173C13.9994 12.459 13.8156 12.3367 13.7747 12.1493C13.7339 11.962 13.7824 11.4311 13.9662 11.3921C14.15 11.3531 14.4053 11.8137 14.4461 12.0036V12.001Z" fill="#FBFAF5"/>
<path d="M17.8895 10.9003C17.9533 11.0825 17.8614 11.2828 17.6827 11.3479C17.504 11.4129 17.3075 11.3193 17.2437 11.1371C17.1798 10.955 17.1569 10.4241 17.3356 10.3591C17.5143 10.294 17.8257 10.7182 17.8895 10.9003Z" fill="#FBFAF5"/>
<path d="M20.6233 8.64946C20.7509 8.79258 20.7407 9.01376 20.6003 9.14387C20.4599 9.27397 20.2429 9.26357 20.1153 9.12045C19.9877 8.97733 19.7681 8.49594 19.9085 8.36583C20.0489 8.23572 20.4957 8.50635 20.6233 8.64946Z" fill="#FBFAF5"/>
<path d="M13.6291 16.6433C13.6495 16.8359 13.5142 17.0076 13.3253 17.0284C13.1364 17.0492 12.9679 16.9113 12.9475 16.7188C12.9271 16.5262 13.0241 16.0058 13.213 15.985C13.4019 15.9641 13.6087 16.4507 13.6291 16.6433Z" fill="#FBFAF5"/>
<path d="M17.4733 15.8964C17.5193 16.0838 17.4069 16.2737 17.2232 16.3206C17.0394 16.3674 16.853 16.2529 16.8071 16.0656C16.7611 15.8782 16.7917 15.3474 16.9755 15.3031C17.1593 15.2589 17.4274 15.7117 17.4733 15.899V15.8964Z" fill="#FBFAF5"/>
<path d="M5.67203 20.5517C5.60566 20.7339 5.4091 20.8249 5.23041 20.7573C5.05172 20.6896 4.96237 20.4893 5.02874 20.3071C5.09511 20.125 5.41165 19.706 5.58779 19.7711C5.76393 19.8361 5.7384 20.367 5.67203 20.5491V20.5517Z" fill="#FBFAF5"/>
<path d="M9.82529 21.6498C9.79721 21.8397 9.62362 21.9725 9.43727 21.9464C9.25092 21.9204 9.12073 21.7409 9.14626 21.5509C9.17179 21.361 9.39643 20.8822 9.58533 20.9082C9.77423 20.9342 9.85337 21.4598 9.82529 21.6524V21.6498Z" fill="#FBFAF5"/>
<path d="M13.6671 21.7148C13.7003 21.9047 13.5752 22.0869 13.3889 22.1207C13.2025 22.1545 13.0238 22.027 12.9906 21.8371C12.9574 21.6471 13.0238 21.1215 13.2102 21.0877C13.3965 21.0538 13.6339 21.5274 13.6671 21.7174V21.7148Z" fill="#FBFAF5"/>
<path d="M7.52792 25.2928C7.49984 25.4828 7.32626 25.6155 7.13991 25.5894C6.95356 25.5634 6.82337 25.3839 6.8489 25.1939C6.87443 25.004 7.09907 24.5252 7.28797 24.5512C7.47687 24.5772 7.556 25.1028 7.52792 25.2954V25.2928Z" fill="#FBFAF5"/>
<path d="M15.9649 25.0975C15.9981 25.2875 15.8731 25.4696 15.6867 25.5035C15.5004 25.5373 15.3217 25.4098 15.2885 25.2198C15.2553 25.0299 15.3217 24.5042 15.508 24.4704C15.6944 24.4366 15.9318 24.9102 15.9649 25.1001V25.0975Z" fill="#FBFAF5"/>
<path d="M11.8547 25.6804C11.8521 25.8729 11.6939 26.0265 11.505 26.0239C11.3161 26.0213 11.1654 25.8599 11.168 25.6674C11.1706 25.4748 11.3339 24.97 11.5228 24.9726C11.7117 24.9752 11.8572 25.4852 11.8547 25.6778V25.6804Z" fill="#FBFAF5"/>
<path d="M17.823 20.393C17.8792 20.5777 17.7796 20.7729 17.5984 20.8327C17.4172 20.8926 17.2257 20.7885 17.167 20.6037C17.1083 20.419 17.1057 19.8881 17.287 19.8309C17.4682 19.7737 17.7643 20.2082 17.8205 20.393H17.823Z" fill="#FBFAF5"/>
<path d="M20.4192 13.8668C20.5315 14.023 20.4983 14.2415 20.3477 14.356C20.1971 14.4705 19.9801 14.4367 19.8678 14.2832C19.7554 14.1296 19.5844 13.6274 19.7376 13.5129C19.8907 13.3984 20.3094 13.7133 20.4217 13.8694L20.4192 13.8668Z" fill="#FBFAF5"/>
</svg>
