<svg width="196" height="60" viewBox="0 0 196 60" fill="none" xmlns="http://www.w3.org/2000/svg">
<path d="M191.325 57.4186C191.325 56.0849 192.374 55 193.663 55C194.952 55 196 56.0849 196 57.4186C196 58.7523 194.952 59.8373 193.663 59.8373C192.374 59.8373 191.325 58.7523 191.325 57.4186ZM181.308 57.4186C181.308 56.0849 182.357 55 183.646 55C184.934 55 185.983 56.0849 185.983 57.4186C185.983 58.7523 184.934 59.8373 183.646 59.8373C182.357 59.8373 181.308 58.7523 181.308 57.4186ZM171.291 57.4186C171.291 56.0849 172.34 55 173.628 55C174.917 55 175.966 56.0849 175.966 57.4186C175.966 58.7523 174.917 59.8373 173.628 59.8373C172.34 59.8373 171.291 58.7523 171.291 57.4186ZM161.274 57.4186C161.274 56.0849 162.322 55 163.611 55C164.9 55 165.949 56.0849 165.949 57.4186C165.949 58.7523 164.9 59.8373 163.611 59.8373C162.322 59.8373 161.274 58.7523 161.274 57.4186ZM151.257 57.4186C151.257 56.0849 152.305 55 153.594 55C154.883 55 155.932 56.0849 155.932 57.4186C155.932 58.7523 154.883 59.8373 153.594 59.8373C152.305 59.8373 151.257 58.7523 151.257 57.4186ZM141.24 57.4186C141.24 56.0849 142.288 55 143.577 55C144.866 55 145.914 56.0849 145.914 57.4186C145.914 58.7523 144.866 59.8373 143.577 59.8373C142.288 59.8373 141.24 58.7523 141.24 57.4186ZM131.223 57.4186C131.223 56.0849 132.271 55 133.56 55C134.849 55 135.897 56.0849 135.897 57.4186C135.897 58.7523 134.849 59.8373 133.56 59.8373C132.271 59.8373 131.223 58.7523 131.223 57.4186ZM121.205 57.4186C121.205 56.0849 122.254 55 123.543 55C124.832 55 125.88 56.0849 125.88 57.4186C125.88 58.7523 124.832 59.8373 123.543 59.8373C122.254 59.8373 121.205 58.7523 121.205 57.4186ZM111.188 57.4186C111.188 56.0849 112.237 55 113.526 55C114.815 55 115.863 56.0849 115.863 57.4186C115.863 58.7523 114.815 59.8373 113.526 59.8373C112.237 59.8373 111.188 58.7523 111.188 57.4186ZM101.171 57.4186C101.171 56.0849 102.22 55 103.509 55C104.797 55 105.846 56.0849 105.846 57.4186C105.846 58.7523 104.797 59.8373 103.509 59.8373C102.22 59.8373 101.171 58.7523 101.171 57.4186ZM91.1541 57.4186C91.1541 56.0849 92.2026 55 93.4914 55C94.7803 55 95.8288 56.0849 95.8288 57.4186C95.8288 58.7523 94.7803 59.8373 93.4914 59.8373C92.2026 59.8373 91.1541 58.7523 91.1541 57.4186ZM81.137 57.4186C81.137 56.0849 82.1854 55 83.4743 55C84.7632 55 85.8116 56.0849 85.8116 57.4186C85.8116 58.7523 84.7632 59.8373 83.4743 59.8373C82.1854 59.8373 81.137 58.7523 81.137 57.4186ZM71.1199 57.4186C71.1199 56.0849 72.1683 55 73.4572 55C74.7461 55 75.7945 56.0849 75.7945 57.4186C75.7945 58.7523 74.7461 59.8373 73.4572 59.8373C72.1683 59.8373 71.1199 58.7523 71.1199 57.4186ZM61.1027 57.4186C61.1027 56.0849 62.1512 55 63.4401 55C64.7289 55 65.7774 56.0849 65.7774 57.4186C65.7774 58.7523 64.7289 59.8373 63.4401 59.8373C62.1512 59.8373 61.1027 58.7523 61.1027 57.4186ZM51.0856 57.4186C51.0856 56.0849 52.1341 55 53.4229 55C54.7118 55 55.7603 56.0849 55.7603 57.4186C55.7603 58.7523 54.7118 59.8373 53.4229 59.8373C52.1341 59.8373 51.0856 58.7523 51.0856 57.4186ZM41.0685 57.4186C41.0685 56.0849 42.117 55 43.4058 55C44.6947 55 45.7432 56.0849 45.7432 57.4186C45.7432 58.7523 44.6947 59.8373 43.4058 59.8373C42.117 59.8373 41.0685 58.7523 41.0685 57.4186ZM31.0514 57.4186C31.0514 56.0849 32.0998 55 33.3887 55C34.6776 55 35.726 56.0849 35.726 57.4186C35.726 58.7523 34.6776 59.8373 33.3887 59.8373C32.0998 59.8373 31.0514 58.7523 31.0514 57.4186ZM21.0342 57.4186C21.0342 56.0849 22.0827 55 23.3716 55C24.6604 55 25.7089 56.0849 25.7089 57.4186C25.7089 58.7523 24.6604 59.8373 23.3716 59.8373C22.0827 59.8373 21.0342 58.7523 21.0342 57.4186ZM11.0171 57.4186C11.0171 56.0849 12.0656 55 13.3545 55C14.6433 55 15.6918 56.0849 15.6918 57.4186C15.6918 58.7523 14.6433 59.8373 13.3545 59.8373C12.0656 59.8373 11.0171 58.7523 11.0171 57.4186ZM1 57.4186C1 56.0849 2.04846 55 3.33733 55C4.6262 55 5.67466 56.0849 5.67466 57.4186C5.67466 58.7523 4.6262 59.8373 3.33733 59.8373C2.04846 59.8373 1 58.7523 1 57.4186Z" fill="#2F5D50"/>
<path d="M67.016 17.808C66.656 17.808 66.32 17.616 66.128 17.184C65.792 16.416 65.12 15.648 64.808 15.288C64.64 15.12 64.568 14.928 64.568 14.736C64.568 14.232 65.096 13.776 65.672 13.776C66.632 13.776 68.168 15.816 68.168 16.632C68.168 17.304 67.568 17.808 67.016 17.808ZM74.624 28.632L69.968 28.608L69.992 33.504C69.992 34.2 69.416 34.56 68.816 34.56C68.264 34.56 67.688 34.224 67.688 33.504V28.608L63.752 28.632C63.056 28.632 62.696 28.128 62.696 27.624C62.696 27.144 63.056 26.64 63.752 26.64L67.712 26.664V24.216L64.808 24.24C64.136 24.24 63.776 23.736 63.776 23.232C63.776 22.752 64.136 22.248 64.808 22.248L67.712 22.272V20.112L64.376 20.136C63.704 20.136 63.344 19.632 63.344 19.128C63.344 18.648 63.704 18.144 64.376 18.144H69.104C69.608 17.28 70.496 15.456 70.808 14.424C70.976 13.896 71.384 13.68 71.792 13.68C72.416 13.68 73.088 14.16 73.088 14.832C73.088 15.336 72.488 16.32 71.336 18.144H74.144C74.816 18.144 75.128 18.648 75.128 19.128C75.128 19.632 74.816 20.136 74.144 20.136L69.944 20.112V22.272L73.088 22.248C73.76 22.248 74.072 22.752 74.072 23.232C74.072 23.736 73.76 24.24 73.088 24.24L69.968 24.216V26.664L74.624 26.64C75.296 26.64 75.608 27.144 75.608 27.624C75.608 28.128 75.296 28.632 74.624 28.632ZM61.304 16.152H56.12C55.472 16.152 55.16 15.672 55.16 15.192C55.16 14.712 55.472 14.232 56.12 14.232H61.304C61.952 14.232 62.288 14.712 62.288 15.192C62.288 15.672 61.952 16.152 61.304 16.152ZM62.144 19.44H55.136C54.44 19.44 54.104 18.96 54.104 18.456C54.104 17.976 54.44 17.472 55.136 17.472H62.144C62.84 17.472 63.176 17.952 63.176 18.456C63.176 18.936 62.84 19.44 62.144 19.44ZM61.352 22.56H56.168C55.52 22.56 55.208 22.08 55.208 21.6C55.208 21.12 55.52 20.64 56.168 20.64H61.352C62 20.64 62.336 21.12 62.336 21.6C62.336 22.08 62 22.56 61.352 22.56ZM61.352 25.656H56.168C55.52 25.656 55.208 25.176 55.208 24.696C55.208 24.216 55.52 23.736 56.168 23.736H61.352C62 23.736 62.336 24.216 62.336 24.696C62.336 25.176 62 25.656 61.352 25.656ZM62.456 32.016C62.432 33.096 61.664 33.864 60.464 33.936C59.96 33.96 59.264 33.984 58.568 33.984C57.896 33.984 57.224 33.96 56.744 33.936C55.664 33.864 54.992 33.096 54.968 32.04C54.968 31.416 54.944 30.864 54.944 30.312C54.944 29.76 54.968 29.232 54.968 28.704C54.992 27.792 55.568 26.952 56.72 26.88C57.176 26.856 57.8 26.832 58.424 26.832C59.192 26.832 59.984 26.856 60.536 26.88C61.448 26.928 62.432 27.552 62.456 28.584C62.48 29.136 62.48 29.736 62.48 30.336C62.48 30.912 62.48 31.488 62.456 32.016ZM60.464 31.512C60.488 31.176 60.488 30.792 60.488 30.384C60.488 30 60.488 29.592 60.464 29.256C60.416 28.656 60.008 28.608 58.688 28.608C58.256 28.608 57.824 28.608 57.56 28.632C56.912 28.68 56.888 29.088 56.888 30.384C56.888 30.768 56.912 31.176 56.912 31.536C56.936 31.944 57.08 32.112 58.616 32.112C59.672 32.112 60.416 32.112 60.464 31.512ZM96.536 30.792C91.856 34.608 84.176 35.304 83.96 28.824C83.864 26.304 84.128 24.264 84.248 21.72C84.32 20.16 84.488 17.808 84.44 16.32C84.392 14.544 87.104 14.688 87.056 16.272C87.008 17.784 86.84 20.064 86.72 21.672C86.552 24.216 86.192 26.4 86.288 28.728C86.432 32.232 90.704 31.992 94.88 28.704C96.44 27.48 97.904 29.688 96.536 30.792ZM115.855 32.016C116.599 33.624 114.271 35.04 113.503 33.504C112.111 30.768 110.071 27.648 108.415 25.704C106.831 23.856 106.831 22.152 108.703 20.208C110.335 18.504 112.183 16.728 113.623 14.784C114.727 13.32 116.887 15.024 115.759 16.416C114.559 17.88 112.015 19.968 110.527 21.456C109.495 22.488 109.447 23.208 110.239 24.192C112.639 27.192 114.679 29.448 115.855 32.016ZM133.817 24.096H133.937C135.737 24.168 137.513 24.576 139.145 25.152C139.289 24.168 139.193 23.28 138.809 22.632C138.137 21.504 140.297 20.592 141.089 22.08C141.617 23.04 141.689 24.48 141.329 26.064C142.577 26.664 143.705 27.384 144.641 28.104C146.153 29.28 144.521 31.488 143.153 30.24C142.361 29.52 141.497 28.872 140.537 28.296C139.649 30.096 138.137 31.896 135.977 33.168C134.297 34.152 133.097 32.28 134.657 31.32C136.457 30.216 137.705 28.728 138.449 27.264C136.673 26.52 134.777 26.088 132.857 26.064C131.969 27.912 131.153 29.4 129.785 30.456C128.345 31.584 126.233 31.728 125.201 30.456C123.977 28.92 124.865 26.424 127.625 25.2C128.897 24.648 130.241 24.312 131.561 24.168C132.401 22.368 133.505 20.184 134.177 18.672C134.321 18.336 134.393 18.144 134.033 18.24C133.097 18.48 132.185 18.792 131.201 18.816C129.617 18.864 129.689 16.632 131.129 16.536C132.089 16.488 133.553 16.128 134.585 15.936C136.769 15.504 137.729 16.92 136.649 18.672C135.641 20.352 134.681 22.296 133.817 24.096ZM130.529 26.256C129.905 26.352 129.185 26.544 128.297 26.976C127.673 27.288 126.545 28.296 126.953 28.896C127.241 29.304 128.105 29.16 128.537 28.824C129.329 28.224 129.977 27.24 130.529 26.256ZM160.769 31.224C161.225 31.128 161.729 30.84 162.161 30.456C163.913 28.896 163.841 26.616 162.473 25.704C161.225 24.864 158.633 24.696 156.209 26.112C155.249 26.664 154.745 27.096 154.193 27.912C153.329 29.184 150.929 27.768 152.417 26.304C155.057 23.688 157.001 21.84 159.665 18.552C159.929 18.216 159.689 18.312 159.497 18.408C158.825 18.768 157.241 19.248 155.465 19.632C153.569 20.04 153.209 17.664 154.841 17.472C156.449 17.28 158.753 16.704 160.121 16.296C162.041 15.744 163.625 17.448 162.425 18.792C161.657 19.656 160.697 20.592 159.737 21.48C158.777 22.368 157.817 23.232 156.953 24.072C159.065 22.944 161.921 22.944 163.697 24C167.153 26.064 166.025 30.288 163.505 32.112C161.129 33.816 157.385 33.912 155.561 32.712C153.017 31.056 154.145 28.08 156.977 27.984C158.897 27.912 160.697 29.064 160.769 31.224ZM158.729 31.584C158.753 30.48 158.105 29.64 157.049 29.736C155.993 29.832 155.945 30.816 156.713 31.224C157.265 31.512 158.057 31.608 158.729 31.584ZM181.577 27.792V27.768C181.577 27.624 181.577 27.456 181.577 27.264C181.577 24.936 181.337 19.344 181.193 15.576C181.193 15.552 181.193 15.528 181.193 15.504C181.193 14.616 181.889 14.184 182.585 14.184C183.305 14.184 184.025 14.64 184.025 15.576C184.025 18.408 183.641 25.008 183.641 27.336C183.641 27.912 183.641 28.92 182.585 28.92C182.081 28.92 181.577 28.536 181.577 27.792ZM184.265 32.28C184.265 33.432 183.257 33.864 182.609 33.864C181.697 33.864 180.953 33.096 180.953 32.28C180.953 31.224 181.961 30.624 182.609 30.624C183.545 30.624 184.265 31.2 184.265 32.28Z" fill="#181818"/>
<circle cx="23" cy="23" r="22" fill="#FDFDFD" stroke="#2F5D50" stroke-width="2"/>
<path d="M13 23C12.4477 23 12 23.4477 12 24C12 24.5523 12.4477 25 13 25V23ZM32.7071 24.7071C33.0976 24.3166 33.0976 23.6834 32.7071 23.2929L26.3431 16.9289C25.9526 16.5384 25.3195 16.5384 24.9289 16.9289C24.5384 17.3195 24.5384 17.9526 24.9289 18.3431L30.5858 24L24.9289 29.6569C24.5384 30.0474 24.5384 30.6805 24.9289 31.0711C25.3195 31.4616 25.9526 31.4616 26.3431 31.0711L32.7071 24.7071ZM13 25H32V23H13V25Z" fill="#2F5D50"/>
</svg>
