<svg width="230" height="110" viewBox="0 0 230 110" fill="none" xmlns="http://www.w3.org/2000/svg">
<path d="M16.512 47.3273C19.808 50.3673 27.136 54.8793 28.896 54.7513L25.792 60.1593C25.792 60.1593 18.976 54.3673 14.944 50.6233C14.944 50.6233 11.712 58.0473 2.976 59.2313C9.952 51.3273 13.216 45.0233 13.408 38.6233L18.816 39.4233C18.816 39.4233 17.92 44.3833 16.512 47.3273ZM33.792 44.8953C37.088 41.5033 38.4 37.6633 38.72 35.6153L42.816 36.8953C42.816 36.8953 42.4 38.1113 41.76 39.1673C41.76 39.1673 50.592 39.1033 52.608 38.7833L52.48 42.2713C52.48 42.2713 43.424 41.9193 39.776 42.0153C39.776 42.0153 37.632 44.9593 33.792 44.8953ZM41.184 46.4633L40.992 43.5833C40.992 43.5833 48.544 43.9033 49.408 43.7433L49.248 46.2073C44.288 46.5273 44.288 46.5273 41.184 46.4633ZM50.336 60.9913C50.336 60.9913 48.352 56.0633 49.152 50.7833C49.152 50.7833 38.976 51.1673 36.416 51.0073L36.32 48.0313C36.32 48.0313 49.824 48.1593 51.936 47.9673C51.936 47.9673 51.136 54.6553 51.936 57.5353C51.936 57.5353 53.12 58.2393 55.68 57.4393L56 55.1353C56 55.1353 57.312 57.9513 58.272 58.5913C56.832 61.3113 52.96 61.9193 50.336 60.9913ZM46.08 58.1433L44.224 60.8633C44.224 60.8633 42.56 58.8793 41.664 58.0793C41.664 58.0793 39.04 61.0233 35.104 60.3833C35.104 60.3833 38.048 58.5913 39.2 56.7673C39.2 56.7673 37.92 55.8073 36.512 54.9433L38.016 52.9593C38.016 52.9593 39.872 54.2073 40.736 54.7833C40.736 54.7833 42.112 53.1193 42.688 52.2233L45.184 54.0793C45.184 54.0793 44.192 55.6153 42.784 56.3833L46.08 58.1433ZM76.384 53.7593L76.32 39.1673C76.32 39.1673 79.872 39.2953 81.312 39.2953C81.312 39.2953 81.504 56.9273 81.344 58.7833C81.344 58.7833 78.816 58.9753 76.128 58.9753C76.128 58.9753 69.056 48.5753 68.032 46.8793L68.192 58.7833C68.192 58.7833 65.28 58.9433 63.328 58.8473C63.328 58.8473 63.424 46.0793 63.328 39.8393L67.648 39.5193C67.648 39.5193 75.776 52.1913 76.384 53.7593ZM96.9953 43.7113C102.787 43.6793 104.131 48.7673 104.227 51.3273C104.387 55.6153 101.571 59.4873 97.3473 59.6153C92.1953 59.7753 89.1233 56.7033 88.9953 51.6153C88.7713 47.9673 91.2993 43.7433 96.9953 43.7113ZM99.4593 51.7113C99.5553 49.3113 98.5633 48.1273 96.9633 47.8073C95.9713 47.6153 93.4433 48.0953 93.3793 51.1353C93.3153 53.6313 94.4673 55.1353 96.4513 55.1993C98.1153 55.2313 99.3633 53.7913 99.4593 51.7113ZM116.638 58.6553C116.638 58.6553 113.95 58.7833 112.19 58.5913C112.19 58.5913 112.062 55.5833 112.158 54.0793C114.142 54.0793 114.846 54.1433 116.734 54.1753C116.734 54.1753 116.862 57.0873 116.638 58.6553ZM128.577 43.9353C128.577 43.9353 125.441 44.0313 124.737 43.9353C124.737 43.9353 124.769 40.9593 124.929 39.2953C124.929 39.2953 132.065 39.3273 133.121 39.3913C133.121 39.3913 132.993 50.7193 133.505 58.6553C133.505 58.6553 129.089 58.8473 127.937 58.7193C127.937 58.7193 128.641 45.0873 128.577 43.9353Z" fill="#D9333F"/>
<path d="M183 35.6482C183.55 35.5008 184.111 35.8405 184.235 36.3954L184.814 38.9776C184.939 39.5353 184.572 40.0842 184.008 40.1816L167.116 43.1029C166.581 43.1953 166.071 42.8445 165.965 42.3123L165.753 41.2446C165.65 40.728 165.966 40.2205 166.474 40.0839L183 35.6482Z" fill="#2F5D50"/>
<path d="M166.952 15.5588C167.236 15.0662 167.873 14.9094 168.354 15.2138L170.589 16.6306C171.071 16.9367 171.2 17.5844 170.87 18.0515L160.991 32.0619C160.679 32.5054 160.069 32.6185 159.618 32.317L158.713 31.7119C158.275 31.4192 158.14 30.8372 158.403 30.381L166.952 15.5588Z" fill="#2F5D50"/>
<path d="M146.565 7.2212C146.564 6.65251 147.038 6.19809 147.606 6.22163L150.25 6.33112C150.821 6.35477 151.256 6.85146 151.204 7.4207L149.654 24.4936C149.605 25.034 149.134 25.4367 148.592 25.401L147.506 25.3295C146.981 25.2949 146.572 24.8587 146.572 24.3321L146.565 7.2212Z" fill="#2F5D50"/>
<path d="M36 83.1278C36 75.0117 40.2911 73.6794 46.6423 73.6794C52.9935 73.6794 59 75.0117 59 83.1278C59 91.2438 53.1645 102.024 47.329 102.024C40.7251 102.024 36 91.2438 36 83.1278Z" fill="#D9333F"/>
<path d="M53.7619 74.3221C53.7619 74.931 51.1607 74.9362 50.9156 75.4619C50.6705 75.9875 52.3247 78.0302 51.8805 78.4231C51.4363 78.816 49.6622 76.8644 49.1032 77.0674C48.5773 77.26 48.4369 79.9271 47.8345 79.9271C47.232 79.9271 47.1018 77.2574 46.576 77.0622C46.0169 76.8566 44.2198 78.7874 43.7935 78.4075C43.3672 78.0276 45.0137 75.9771 44.7661 75.4489C44.5185 74.9206 41.9198 74.9102 41.9224 74.3039C41.9249 73.6976 44.4393 73.9214 44.7074 73.5207C44.9933 73.0887 43.8318 70.8197 44.3474 70.5933C44.7916 70.3981 45.9863 72.7947 46.5479 72.7192C47.0406 72.6516 47.4107 69.9974 47.957 70C48.5033 70.0026 48.8224 72.662 49.2972 72.7296C49.8486 72.8077 51.0662 70.4294 51.49 70.6271C51.9852 70.8561 50.7318 73.0627 50.9947 73.5051C51.2296 73.9006 53.7619 73.7132 53.7619 74.3195V74.3221Z" fill="#2F5D50"/>
<path d="M39.7013 79.032C39.6401 79.2141 39.4461 79.313 39.2648 79.2506C39.0836 79.1881 38.9891 78.9904 39.0504 78.8056C39.1116 78.6208 39.418 78.1941 39.5967 78.2566C39.7754 78.319 39.7626 78.8498 39.7013 79.032Z" fill="#FBFAF5"/>
<path d="M42.4479 81.132C42.3866 81.3141 42.1926 81.413 42.0114 81.3505C41.8301 81.2881 41.7357 81.0903 41.797 80.9056C41.8582 80.7208 42.1646 80.2941 42.3432 80.3565C42.5219 80.419 42.5092 80.9498 42.4479 81.132Z" fill="#FBFAF5"/>
<path d="M46.2774 82.1182C46.2544 82.3107 46.0834 82.446 45.897 82.4252C45.7107 82.4044 45.5754 82.2275 45.5958 82.0375C45.6162 81.8475 45.8306 81.3609 46.017 81.3844C46.2033 81.4078 46.2978 81.9282 46.2774 82.1208V82.1182Z" fill="#FBFAF5"/>
<path d="M38.4405 83.3021C38.3639 83.479 38.1597 83.5597 37.9886 83.479C37.8176 83.3984 37.7359 83.1928 37.815 83.0184C37.8942 82.8441 38.2337 82.4434 38.4073 82.5214C38.5809 82.5995 38.5196 83.1277 38.443 83.3021H38.4405Z" fill="#FBFAF5"/>
<path d="M41.335 85.6414C41.2584 85.8184 41.0542 85.899 40.8832 85.8184C40.7121 85.7377 40.6304 85.5321 40.7096 85.3578C40.7887 85.1835 41.1282 84.7827 41.3018 84.8608C41.4754 84.9389 41.4141 85.4671 41.3375 85.6414H41.335Z" fill="#FBFAF5"/>
<path d="M45.0901 86.6563C45.0518 86.8462 44.868 86.9659 44.6842 86.9269C44.5004 86.8879 44.3805 86.7005 44.4187 86.5132C44.457 86.3258 44.7123 85.86 44.8961 85.9017C45.0799 85.9433 45.1284 86.4689 45.0901 86.6589V86.6563Z" fill="#FBFAF5"/>
<path d="M50.4461 82.001C50.4844 82.191 50.367 82.3757 50.1832 82.4173C49.9994 82.459 49.8156 82.3367 49.7747 82.1493C49.7339 81.962 49.7824 81.4311 49.9662 81.3921C50.15 81.3531 50.4053 81.8137 50.4461 82.0036V82.001Z" fill="#FBFAF5"/>
<path d="M53.8895 80.9003C53.9533 81.0825 53.8614 81.2828 53.6827 81.3479C53.504 81.4129 53.3075 81.3193 53.2437 81.1371C53.1798 80.955 53.1569 80.4241 53.3356 80.3591C53.5143 80.294 53.8257 80.7182 53.8895 80.9003Z" fill="#FBFAF5"/>
<path d="M56.6233 78.6495C56.7509 78.7926 56.7407 79.0138 56.6003 79.1439C56.4599 79.274 56.2429 79.2636 56.1153 79.1204C55.9877 78.9773 55.7681 78.4959 55.9085 78.3658C56.0489 78.2357 56.4957 78.5063 56.6233 78.6495Z" fill="#FBFAF5"/>
<path d="M49.6291 86.6433C49.6495 86.8359 49.5142 87.0076 49.3253 87.0284C49.1364 87.0492 48.9679 86.9113 48.9475 86.7188C48.9271 86.5262 49.0241 86.0058 49.213 85.985C49.4019 85.9641 49.6087 86.4507 49.6291 86.6433Z" fill="#FBFAF5"/>
<path d="M53.4733 85.8964C53.5193 86.0838 53.4069 86.2737 53.2232 86.3206C53.0394 86.3674 52.853 86.2529 52.8071 86.0656C52.7611 85.8782 52.7917 85.3474 52.9755 85.3031C53.1593 85.2589 53.4274 85.7117 53.4733 85.899V85.8964Z" fill="#FBFAF5"/>
<path d="M41.672 90.5517C41.6057 90.7339 41.4091 90.8249 41.2304 90.7573C41.0517 90.6896 40.9624 90.4893 41.0287 90.3071C41.0951 90.125 41.4117 89.706 41.5878 89.7711C41.7639 89.8361 41.7384 90.367 41.672 90.5491V90.5517Z" fill="#FBFAF5"/>
<path d="M45.8253 91.6498C45.7972 91.8397 45.6236 91.9725 45.4373 91.9464C45.2509 91.9204 45.1207 91.7409 45.1463 91.5509C45.1718 91.361 45.3964 90.8822 45.5853 90.9082C45.7742 90.9342 45.8534 91.4598 45.8253 91.6524V91.6498Z" fill="#FBFAF5"/>
<path d="M49.6671 91.7148C49.7003 91.9047 49.5752 92.0869 49.3889 92.1207C49.2025 92.1545 49.0238 92.027 48.9906 91.8371C48.9574 91.6471 49.0238 91.1215 49.2102 91.0877C49.3965 91.0538 49.6339 91.5274 49.6671 91.7174V91.7148Z" fill="#FBFAF5"/>
<path d="M43.5279 95.2928C43.4998 95.4828 43.3263 95.6155 43.1399 95.5894C42.9536 95.5634 42.8234 95.3839 42.8489 95.1939C42.8744 95.004 43.0991 94.5252 43.288 94.5512C43.4769 94.5772 43.556 95.1028 43.5279 95.2954V95.2928Z" fill="#FBFAF5"/>
<path d="M51.9649 95.0975C51.9981 95.2875 51.8731 95.4696 51.6867 95.5035C51.5004 95.5373 51.3217 95.4098 51.2885 95.2198C51.2553 95.0299 51.3217 94.5042 51.508 94.4704C51.6944 94.4366 51.9318 94.9102 51.9649 95.1001V95.0975Z" fill="#FBFAF5"/>
<path d="M47.8547 95.6804C47.8521 95.8729 47.6939 96.0265 47.505 96.0239C47.3161 96.0213 47.1654 95.8599 47.168 95.6674C47.1706 95.4748 47.3339 94.97 47.5228 94.9726C47.7117 94.9752 47.8572 95.4852 47.8547 95.6778V95.6804Z" fill="#FBFAF5"/>
<path d="M53.823 90.393C53.8792 90.5777 53.7796 90.7729 53.5984 90.8327C53.4172 90.8926 53.2257 90.7885 53.167 90.6037C53.1083 90.419 53.1057 89.8881 53.287 89.8309C53.4682 89.7737 53.7643 90.2082 53.8205 90.393H53.823Z" fill="#FBFAF5"/>
<path d="M56.4192 83.8668C56.5315 84.023 56.4983 84.2415 56.3477 84.356C56.1971 84.4705 55.9801 84.4367 55.8678 84.2832C55.7554 84.1296 55.5844 83.6274 55.7376 83.5129C55.8907 83.3984 56.3094 83.7133 56.4217 83.8694L56.4192 83.8668Z" fill="#FBFAF5"/>
<path d="M85.672 87.632C85.864 89.384 83.488 89.864 83.152 88.208C82.768 86.288 81.784 84.44 80.488 83.552C79.336 82.76 80.632 80.984 82.072 82.064C83.776 83.336 85.432 85.592 85.672 87.632ZM75.184 91.592C73.648 94.088 71.512 93.872 70.168 92.432C68.44 90.56 67.648 87.776 67.456 84.752C67.36 83.384 67.312 82.952 67.336 82.088C67.384 80.576 69.712 80.264 69.784 82.064C69.832 83 69.736 83.048 69.784 84.152C69.88 86.672 70.336 89.048 71.68 90.344C72.304 90.944 72.616 91.016 73.144 90.296C73.432 89.888 73.768 89.264 73.936 88.88C74.584 87.488 76.576 88.496 76.12 89.744C75.88 90.416 75.448 91.16 75.184 91.592ZM98.536 82.616C98.152 84.728 97.792 86.84 97.624 87.68C98.944 86.72 100.6 85.856 102.376 85.616C107.416 84.944 109.696 89.384 106.672 92.984C105.352 94.568 102.784 95.792 100.216 96.128C97.912 96.44 97.792 94.04 99.592 93.824C101.656 93.584 103.6 92.792 104.584 91.664C106.336 89.696 105.928 87.416 102.664 87.68C101.152 87.8 99.448 88.808 98.44 89.888C98.008 90.344 97.888 91.04 97.072 91.256C96.016 91.544 95.2 90.512 95.368 89.288C95.56 87.92 95.896 85.472 96.256 83.12C95.536 83.192 94.792 83.168 94 83.048C92.224 82.76 92.416 80.336 94.336 80.768C95.008 80.912 95.8 80.936 96.616 80.792C96.856 79.256 97.096 77.936 97.264 77.192C97.648 75.56 100.024 76.28 99.568 77.768C99.4 78.32 99.232 79.112 99.04 80C99.472 79.784 99.904 79.52 100.312 79.232C101.968 78.056 103.48 80.456 101.248 81.488C100.24 81.968 99.352 82.328 98.536 82.616ZM132.88 78.68C132.592 78.272 131.488 77.36 131.032 77.12C129.856 76.496 130.936 75.128 132.016 75.632C132.64 75.92 133.768 76.688 134.248 77.288C135.088 78.368 133.576 79.688 132.88 78.68ZM131.488 78.92C132.304 80.024 130.744 81.32 130.072 80.288C129.808 79.88 128.752 78.896 128.296 78.632C127.144 77.984 128.248 76.664 129.304 77.216C129.904 77.528 131.032 78.296 131.488 78.92ZM127.312 82.712C125.08 82.232 122.536 82.184 120.184 82.64C118.288 83 117.976 80.456 120.112 80.144C122.392 79.808 125.776 79.784 127.768 80.216C129.784 80.648 129.256 83.12 127.312 82.712ZM129.664 94.4C124.912 95.888 119.152 94.76 117.496 92.432C116.632 91.208 118.192 89.552 119.488 90.872C121.528 92.96 125.416 92.792 129.04 91.76C131.032 91.208 131.608 93.8 129.664 94.4ZM149.152 81.536C149.416 81.776 149.56 82.16 149.488 82.64C149.104 85.688 146.944 90.224 144.64 92.36C142.792 94.064 140.776 93.128 139.72 91.064C138.208 88.088 139.816 83.624 143.032 81.392C145.984 79.352 150.376 79.016 153.4 80.84C157.12 83.072 157.72 87.488 155.632 90.92C154.504 92.768 152.152 94.256 149.776 94.88C147.664 95.432 146.92 93.008 148.984 92.528C150.808 92.12 152.656 91.088 153.448 89.84C155.152 87.152 154.504 84.008 152.128 82.496C151.192 81.896 150.184 81.608 149.152 81.536ZM147.256 81.656C146.152 81.896 145.072 82.4 144.16 83.096C141.928 84.824 140.728 88.016 141.736 89.864C142.096 90.56 142.72 90.92 143.32 90.392C145.12 88.808 146.8 84.992 147.04 82.4C147.064 82.112 147.136 81.848 147.256 81.656ZM179.632 78.536C179.296 78.176 178.12 77.384 177.64 77.192C176.416 76.712 177.28 75.248 178.408 75.608C179.056 75.824 180.28 76.424 180.832 76.976C181.792 77.936 180.448 79.448 179.632 78.536ZM177.424 80.672C177.112 80.288 175.936 79.448 175.456 79.232C174.232 78.728 175.192 77.288 176.296 77.696C176.944 77.936 178.144 78.56 178.672 79.136C179.608 80.144 178.216 81.608 177.424 80.672ZM172.168 83.648C171.736 84.128 170.896 84.272 170.248 83.6C169.504 82.832 168.544 82.136 167.632 81.752C166.264 81.2 167.224 79.064 168.856 79.784C169.912 80.264 171.136 80.96 172.048 81.776C172.696 82.352 172.6 83.168 172.168 83.648ZM181.432 82.976C178.36 88.472 172.912 93.608 167.464 95.408C165.568 96.032 164.776 93.44 166.672 92.936C171.448 91.64 176.776 86.36 179.296 81.584C180.088 80.096 182.488 81.08 181.432 82.976ZM169.312 87.464C169 88.04 168.256 88.376 167.464 87.872C166.576 87.296 165.472 86.816 164.488 86.648C163.048 86.408 163.504 84.128 165.256 84.464C166.384 84.68 167.68 85.064 168.76 85.664C169.528 86.072 169.624 86.912 169.312 87.464ZM198.146 86.528L198.17 86.504C197.186 86.792 195.77 87.272 194.282 87.8C195.002 90.224 195.866 92.96 196.442 94.544C197.09 96.296 194.882 97.04 194.378 95.36C193.898 93.728 193.082 90.968 192.338 88.496C191.33 88.856 190.394 89.216 189.626 89.504C188.21 90.032 187.61 88.016 188.954 87.56C189.794 87.272 190.73 86.936 191.762 86.576C191.474 85.64 191.234 84.848 191.042 84.248C190.778 83.456 191.186 82.928 191.738 82.808C192.242 82.688 192.866 82.976 193.058 83.624C193.226 84.176 193.466 84.968 193.73 85.904C195.314 85.376 196.97 84.824 198.578 84.32C199.778 83.96 201.266 84.608 200.762 86.096C200.21 87.728 199.13 89.144 197.93 90.2C196.562 91.4 195.218 89.648 196.442 88.64C197.114 88.112 197.786 87.296 198.146 86.528ZM223.052 92.48C219.956 93.344 214.868 94.424 211.148 95.048C209.348 95.336 208.772 92.888 210.692 92.624C211.076 92.576 211.508 92.528 211.916 92.456C213.092 89.96 215.612 83.312 216.212 80.312C216.62 78.296 219.308 78.968 218.804 80.816C218.084 83.432 216.068 88.736 214.676 91.976C217.172 91.52 219.812 90.944 221.684 90.488C221.06 89.672 220.388 88.976 219.86 88.52C218.756 87.56 220.316 85.88 221.66 87.08C222.812 88.112 225.308 90.56 226.076 92.72C226.364 93.536 225.86 94.232 225.308 94.472C224.732 94.712 223.988 94.52 223.676 93.752C223.508 93.344 223.292 92.912 223.052 92.48Z" fill="#181818"/>
</svg>
