<svg width="66" height="66" viewBox="0 0 66 66" fill="none" xmlns="http://www.w3.org/2000/svg">
<rect width="66" height="66" rx="25" fill="#FFFEED"/>
<rect x="2.5" y="2.5" width="61" height="61" rx="24.5" stroke="#60524A" stroke-opacity="0.8" stroke-linejoin="round" stroke-dasharray="3 3"/>
<circle cx="18" cy="28" r="3" fill="#2F5D50"/>
<circle cx="32" cy="28" r="3" fill="#2F5D50"/>
<circle cx="46" cy="28" r="3" fill="#2F5D50"/>
<path d="M19.6011 41.48L22.1331 38.804L23.7171 38.756C23.7171 38.756 23.8611 45.272 23.9211 46.052C23.9211 46.052 22.3011 46.016 21.8091 45.992C21.8091 45.992 21.8691 41.66 21.8691 41.012C21.8691 41.012 20.0571 43.088 19.5531 43.712C19.5531 43.712 17.8851 41.588 17.1171 40.544C17.1171 40.544 17.2851 44.384 17.3211 46.028L15.4731 46.052C15.4731 46.052 15.4611 41.336 15.5331 38.78L17.3931 38.816L19.6011 41.48ZM25.8891 45.956C25.7451 42.224 25.7571 42.224 25.8051 38.792C25.8051 38.792 28.6611 38.684 31.1331 38.816L30.9891 40.244C30.9891 40.244 29.1771 40.412 27.9411 40.46L27.9891 41.576C27.9891 41.576 29.8851 41.492 30.6051 41.492L30.5811 43.064C30.5811 43.064 28.6731 42.992 28.0131 42.956L28.0971 44.324C28.0971 44.324 30.1611 44.396 31.1691 44.132L31.0251 46.052C31.0251 46.052 26.9331 46.148 25.8891 45.956ZM39.0673 44.168L39.0433 38.696C39.0433 38.696 40.3753 38.744 40.9153 38.744C40.9153 38.744 40.9873 45.356 40.9273 46.052C40.9273 46.052 39.9793 46.124 38.9713 46.124C38.9713 46.124 36.3193 42.224 35.9353 41.588L35.9953 46.052C35.9953 46.052 34.9033 46.112 34.1713 46.076C34.1713 46.076 34.2073 41.288 34.1713 38.948L35.7913 38.828C35.7913 38.828 38.8393 43.58 39.0673 44.168ZM47.3125 38.912L49.3645 38.828C49.5205 40.352 49.5445 41.648 49.4725 42.596C49.2805 45.032 48.1525 45.992 46.4245 46.052C44.4925 46.112 43.4965 44.66 43.3165 42.44C43.2205 41.336 43.2445 39.8 43.2685 38.78L45.1525 38.768C45.1525 38.768 44.9125 41.204 44.9845 42.584C45.0685 44.06 45.7165 44.624 46.5085 44.54C47.2885 44.468 47.6125 43.556 47.6125 42.104C47.6125 41.144 47.4805 39.956 47.3125 38.912Z" fill="#2F5D50"/>
</svg>
