<svg width="263" height="91" viewBox="0 0 263 91" fill="none" xmlns="http://www.w3.org/2000/svg">
<path d="M8.736 51.976H16.896C16.896 51.976 16.128 69.256 15.936 74.248L29.28 73.048L28.992 81.16C28.992 81.16 13.056 81.64 9.168 81.064C9.168 81.064 9.024 56.68 8.736 51.976ZM51.1174 81.064C47.4694 81.16 46.4614 81.16 43.3414 81.352C43.3414 81.352 43.4374 58.072 43.2454 52.024L50.7814 52.216C50.7814 52.216 50.9254 72.568 51.1174 81.064ZM85.5604 73.672L85.4644 51.784C85.4644 51.784 90.7924 51.976 92.9524 51.976C92.9524 51.976 93.2404 78.424 93.0004 81.208C93.0004 81.208 89.2084 81.496 85.1764 81.496C85.1764 81.496 74.5684 65.896 73.0324 63.352L73.2724 81.208C73.2724 81.208 68.9044 81.448 65.9764 81.304C65.9764 81.304 66.1204 62.152 65.9764 52.792L72.4564 52.312C72.4564 52.312 84.6484 71.32 85.5604 73.672ZM108.365 80.824C107.789 65.896 107.837 65.896 108.029 52.168C108.029 52.168 119.453 51.736 129.341 52.264L128.765 57.976C128.765 57.976 121.517 58.648 116.573 58.84L116.765 63.304C116.765 63.304 124.349 62.968 127.229 62.968L127.133 69.256C127.133 69.256 119.501 68.968 116.861 68.824L117.197 74.296C117.197 74.296 125.453 74.584 129.485 73.528L128.909 81.208C128.909 81.208 112.541 81.592 108.365 80.824ZM178.982 52.648L187.19 52.312C187.814 58.408 187.91 63.592 187.622 67.384C186.854 77.128 182.342 80.968 175.43 81.208C167.702 81.448 163.718 75.64 162.998 66.76C162.614 62.344 162.71 56.2 162.806 52.12L170.342 52.072C170.342 52.072 169.382 61.816 169.67 67.336C170.006 73.24 172.598 75.496 175.766 75.16C178.886 74.872 180.182 71.224 180.182 65.416C180.182 61.576 179.654 56.824 178.982 52.648ZM201.327 52.408C213.375 49.624 222.351 53.608 222.831 62.584C223.311 71.752 215.487 75.112 207.951 74.776L207.615 81.4C203.151 81.496 203.439 81.544 201.183 81.544C201.279 65.368 201.327 59.032 201.327 52.408ZM207.855 69.688C214.575 70.168 215.679 65.224 215.199 62.392C214.575 58.312 211.599 57.448 207.471 57.688L207.855 69.688Z" fill="#D9333F"/>
<path d="M259.661 34.4424C260.173 34.1946 260.788 34.423 261.014 34.9448L262.067 37.3727C262.294 37.8971 262.036 38.5051 261.501 38.7064L245.456 44.743C244.948 44.9341 244.381 44.6853 244.177 44.1823L243.769 43.1733C243.571 42.6851 243.786 42.1274 244.26 41.8979L259.661 34.4424Z" fill="#2F5D50"/>
<path d="M240.131 17.7181C240.317 17.181 240.914 16.9075 241.443 17.1165L243.904 18.0891C244.435 18.2992 244.683 18.9113 244.447 19.4319L237.37 35.0461C237.146 35.5403 236.569 35.7658 236.069 35.5541L235.067 35.1294C234.582 34.924 234.339 34.3777 234.512 33.8803L240.131 17.7181Z" fill="#2F5D50"/>
<path d="M218.542 13.3508C218.435 12.7922 218.815 12.2571 219.377 12.1737L221.995 11.7855C222.56 11.7017 223.081 12.108 223.137 12.6768L224.815 29.7376C224.868 30.2776 224.481 30.7615 223.942 30.828L222.862 30.9614C222.339 31.026 221.856 30.6741 221.757 30.1569L218.542 13.3508Z" fill="#2F5D50"/>
</svg>
