<svg width="190" height="100" viewBox="0 0 190 100" fill="none" xmlns="http://www.w3.org/2000/svg">
<path d="M0 0H190V55C190 79.8528 169.853 100 145 100H0V0Z" fill="#FDFDFD"/>
<path d="M75.124 22.68L80.436 22.648C79.54 29.912 79.476 35.032 82.324 35.704C84.724 36.28 87.348 35.128 88.788 32.952C88.98 37.464 85.524 41.208 80.244 40.12C75.572 39.288 73.748 32.92 75.124 22.68ZM111.348 29.72C114.324 29.656 115.732 31.384 115.732 33.496C115.7 35.448 114.292 37.432 111.54 38.008C112.372 36.888 112.724 35.512 112.788 34.424C112.756 33.24 112.436 32.152 110.932 32.12L109.172 34.616L109.044 31.928C109.044 31.928 106.292 32.408 105.78 32.6C106.004 33.688 106.292 36.344 108.532 41.72L105.108 42.84C105.108 42.84 103.444 35.576 102.836 33.528C102.836 33.528 100.692 34.552 99.38 35.256L98.356 32.152C98.356 32.152 100.884 31.448 102.292 31.032L101.364 27.48C101.364 27.48 103.412 26.936 104.82 26.648C104.82 26.648 105.172 29.432 105.332 30.456C106.74 30.136 107.316 29.976 108.82 29.72L108.756 27.096H111.764C111.764 27.096 111.412 29.304 111.348 29.72ZM139.028 23V25.368C139.028 25.368 138.196 25.592 137.62 25.88L137.012 23.384L139.028 23ZM141.94 22.552L141.748 24.92C141.748 24.92 140.916 25.144 140.372 25.432L139.956 22.936L141.94 22.552ZM122.548 31.672C122.548 31.672 130.484 25.272 131.476 24.824C131.476 24.824 142.676 31.864 144.82 33.528L141.556 37.304C138.9 35.192 133.812 30.648 131.444 29.496C128.724 31.512 126.804 33.592 125.236 34.936C125.236 34.936 123.028 32.28 122.548 31.672ZM160.308 29.464C161.684 29.656 166.356 30.52 166.356 35.16C166.356 40.472 161.396 42.392 157.044 41.336C154.516 40.728 153.812 38.328 154.228 36.952C154.548 35.8 155.668 34.712 157.684 34.808C158.612 34.872 160.244 35.512 160.788 37.592C161.46 37.496 162.356 36.44 162.356 35.288C162.356 31.864 158.292 31.032 155.316 31.16L159.412 25.656C159.412 25.656 155.06 25.848 153.62 25.848L153.556 21.752C153.556 21.752 161.908 21.72 165.14 21.848C163.444 25.176 162.42 26.648 160.308 29.464ZM157.396 38.552C158.1 38.616 158.452 38.168 158.42 38.008C158.324 37.688 158.036 37.304 157.684 37.176C157.14 37.016 156.564 37.336 156.66 37.848C156.756 38.36 157.172 38.488 157.396 38.552ZM100.788 58.232L100.724 51.32C100.724 51.32 102.9 51.16 103.86 51.032L103.764 49.272L106.868 49.24L106.932 51.096C106.932 51.096 108.5 51.096 108.852 51.096L108.82 49.272L111.636 49.432V51.096L115.22 50.904C115.22 50.904 115.508 58.104 115.284 58.584C115.284 58.584 101.396 58.296 100.788 58.232ZM112.852 52.728H111.444V53.784C111.988 53.944 112.724 53.88 112.724 53.88L112.852 52.728ZM112.532 55.48L111.124 55.352L111.22 56.28C111.444 56.344 112.596 56.6 112.596 56.6L112.532 55.48ZM108.532 56.44L108.564 55.544L107.38 55.416L107.316 56.28C107.796 56.472 108.532 56.44 108.532 56.44ZM108.436 52.664H107.284L107.316 53.816C107.924 53.752 108.5 53.784 108.5 53.784L108.436 52.664ZM104.404 52.952L103.156 52.856L103.252 53.848L104.404 53.752V52.952ZM103.156 55.512L103.124 56.344L104.724 56.6L104.788 55.48C104.788 55.48 103.572 55.576 103.156 55.512ZM117.332 59.576L117.172 62.104C117.172 62.104 106.964 62.36 100.756 62.2C100.756 62.2 101.748 68.632 95.22 70.584C97.236 66.488 98.228 62.712 97.812 59.768C97.812 59.768 113.94 59.64 117.332 59.576ZM114.164 63.352L114.228 65.72C114.228 65.72 103.764 65.72 102.516 65.56V63.64C113.588 63.416 113.748 63.416 114.164 63.352ZM100.692 66.904C106.644 66.872 111.732 67 115.572 66.68L115.444 69.176C115.444 69.176 106.868 69.336 105.556 69.336L105.492 72.536C105.492 72.536 107.284 71.896 108.052 71.416C107.892 72.6 106.004 75.16 102.932 75.672L103.06 69.272C103.06 69.272 101.876 69.336 100.852 69.208L100.692 66.904ZM112.084 69.336C113.716 71.128 115.86 71.96 117.076 71.768L115.348 75.352C113.364 74.008 111.38 72.472 110.324 71L112.084 69.336ZM116.148 69.656C116.948 68.984 118.548 67.256 118.868 66.744L120.66 69.176C119.828 69.56 118.484 70.456 116.148 69.656ZM143.828 51.576C143.828 51.576 144.244 72.28 144.116 74.68C144.116 74.68 125.364 74.68 123.444 74.68C123.444 74.68 123.7 52.632 123.892 51.448C132.82 51.512 135.86 51.544 143.828 51.576ZM141.396 71.832C141.396 70.328 141.716 54.232 141.716 54.232C140.916 54.168 126.292 54.488 126.292 54.488C126.036 55.288 126.164 71.832 126.164 71.832C126.964 71.768 141.396 71.832 141.396 71.832ZM135.092 59.736L139.284 59.704L139.316 61.464C139.316 61.464 130.356 61.432 128.276 61.496L128.308 59.448C128.308 59.448 131.7 59.288 132.852 59.288L132.916 58.264C130.996 58.296 131.348 58.2 130.132 58.2L130.068 56.664C130.068 56.664 131.796 56.632 132.596 56.6L132.468 55L135.124 55.192L135.092 56.728C135.092 56.728 137.652 56.76 138.164 56.728L138.1 58.68C138.1 58.68 135.476 58.744 135.092 58.744V59.736ZM138.42 67.224C138.42 67.224 137.78 67.896 137.236 68.088C137.236 68.088 138.356 68.536 139.284 68.856L137.62 71.064C137.62 71.064 134.228 68.088 133.62 67.192L134.068 71.032H131.732C131.892 69.336 131.86 68.632 131.924 67.32C131.924 67.32 131.028 68.76 127.796 68.664C129.236 67.8 130.772 66.648 131.316 65.624C131.316 65.624 130.228 65.624 129.716 65.624C129.716 65.624 129.684 63.064 129.78 62.36C129.78 62.36 135.924 62.2 137.556 62.264L137.62 65.944C137.62 65.944 136.596 66.008 135.156 65.976C135.188 66.264 135.988 67.192 136.372 67.32L137.236 66.2L138.42 67.224ZM132.596 64.856C133.876 64.952 135.188 64.824 135.188 64.824L135.156 63.672L132.532 63.608L132.596 64.856Z" fill="#433D3C"/>
<path d="M25.6451 28.92C31.9352 17.3022 39.2676 18.8269 48.5919 23.9063C57.9162 28.9857 65.702 35.6966 59.4119 47.3145C53.1218 58.9324 36.1993 69.6975 27.6321 65.0305C17.9368 59.7489 19.355 40.5379 25.6451 28.92Z" fill="#D9333F"/>
<path d="M57.6375 30.8633C57.1789 31.7102 53.4642 29.696 52.7187 30.2367C51.9733 30.7774 52.7947 34.9041 51.8652 35.1055C50.9356 35.3068 49.8744 31.2135 48.924 31.0614C48.0288 30.9206 45.8199 34.5214 44.9605 34.0532C44.1011 33.585 45.9259 29.7703 45.3227 29.0902C44.68 28.3698 40.6622 29.6589 40.3402 28.7991C40.0181 27.9394 43.9112 26.3668 43.9558 25.4397C44.0003 24.5125 40.301 22.4785 40.7612 21.6372C41.2214 20.7958 44.6399 23.0611 45.3241 22.712C46.0573 22.3334 46.1091 18.2746 47.0152 18.3605C47.7958 18.4342 47.6953 22.6961 48.5533 23.0275C49.3071 23.3163 51.834 19.9121 52.6113 20.3403C53.3887 20.7684 51.8411 24.7155 52.4675 25.1786C53.1953 25.7156 56.7235 23.3537 57.1791 23.9581C57.7131 24.6615 54.2633 26.7567 54.3053 27.5764C54.3424 28.309 58.096 30.0163 57.6394 30.8597L57.6375 30.8633Z" fill="#2F5D50"/>
<path d="M35.0692 25.0916C34.8309 25.3099 34.4581 25.2959 34.2336 25.0542C34.0091 24.8126 34.0242 24.4427 34.2646 24.2205C34.505 23.9983 35.3099 23.621 35.5306 23.8606C35.7512 24.1001 35.3076 24.8732 35.0692 25.0916Z" fill="#FBFAF5"/>
<path d="M37.5209 30.449C37.2826 30.6674 36.9098 30.6533 36.6853 30.4117C36.4608 30.17 36.4758 29.8001 36.7163 29.5779C36.9567 29.3557 37.7616 28.9784 37.9822 29.218C38.2029 29.4575 37.7593 30.2306 37.5209 30.449Z" fill="#FBFAF5"/>
<path d="M42.4997 35.044C42.311 35.3093 41.9438 35.368 41.6783 35.1836C41.4127 34.9991 41.3493 34.6263 41.5321 34.3627C41.7148 34.0991 42.4286 33.5575 42.692 33.7458C42.9555 33.9341 42.6825 34.7804 42.4976 35.0478L42.4997 35.044Z" fill="#FBFAF5"/>
<path d="M29.735 30.3811C29.4776 30.5791 29.104 30.5298 28.9095 30.2697C28.7151 30.0096 28.7557 29.6388 29.0148 29.4467C29.274 29.2546 30.1082 28.9431 30.3086 29.2015C30.509 29.4599 29.9941 30.189 29.7388 30.3832L29.735 30.3811Z" fill="#FBFAF5"/>
<path d="M32.2174 36.2141C31.96 36.4122 31.5864 36.3628 31.392 36.1027C31.1975 35.8426 31.2381 35.4718 31.4973 35.2797C31.7564 35.0876 32.5906 34.7761 32.791 35.0345C32.9914 35.2929 32.4765 36.022 32.2213 36.2162L32.2174 36.2141Z" fill="#FBFAF5"/>
<path d="M37.0617 40.7909C36.8519 41.0397 36.4779 41.0648 36.2308 40.8556C35.9837 40.6464 35.9518 40.2708 36.1595 40.0258C36.3673 39.7808 37.1262 39.3037 37.3712 39.5168C37.6162 39.7298 37.2695 40.5459 37.0597 40.7947L37.0617 40.7909Z" fill="#FBFAF5"/>
<path d="M48.8761 38.2832C48.7822 38.5952 48.4567 38.7711 48.1451 38.681C47.8335 38.5909 47.653 38.2587 47.7409 37.9484C47.8288 37.6381 48.3266 36.8944 48.6361 36.9884C48.9456 37.0824 48.964 37.9729 48.874 38.2871L48.8761 38.2832Z" fill="#FBFAF5"/>
<path d="M54.9517 39.4725C54.9027 39.794 54.6034 40.014 54.2809 39.9627C53.9583 39.9113 53.7356 39.6109 53.7846 39.2894C53.8335 38.9679 54.223 38.1653 54.5456 38.2167C54.8681 38.268 55.0006 39.151 54.9517 39.4725Z" fill="#FBFAF5"/>
<path d="M60.8812 38.3788C60.96 38.6951 60.7679 39.013 60.4516 39.0892C60.1352 39.1654 59.8153 38.9713 59.7365 38.6549C59.6577 38.3386 59.71 37.4475 60.0263 37.3713C60.3427 37.295 60.8024 38.0625 60.8812 38.3788Z" fill="#FBFAF5"/>
<path d="M43.9132 44.4875C43.7902 44.7887 43.448 44.9306 43.1453 44.8056C42.8426 44.6805 42.6977 44.3379 42.8207 44.0368C42.9437 43.7356 43.5067 43.0473 43.8094 43.1723C44.1121 43.2974 44.0362 44.1864 43.9132 44.4875Z" fill="#FBFAF5"/>
<path d="M50.3075 46.5288C50.2273 46.8433 49.9054 47.0311 49.5897 46.9486C49.2739 46.8662 49.0833 46.5434 49.1634 46.2289C49.2436 45.9145 49.7143 45.156 50.028 45.2423C50.3417 45.3286 50.3856 46.2181 50.3054 46.5326L50.3075 46.5288Z" fill="#FBFAF5"/>
<path d="M28.7772 43.7601C28.5311 43.9742 28.1607 43.9466 27.9442 43.6993C27.7278 43.4521 27.7526 43.0826 27.9987 42.8685C28.2448 42.6543 29.0589 42.2969 29.2736 42.5382C29.4883 42.7795 29.0253 43.5421 28.7793 43.7562L28.7772 43.7601Z" fill="#FBFAF5"/>
<path d="M34.1548 48.7861C33.9604 49.0434 33.5914 49.0961 33.3301 48.904C33.0687 48.7119 33.0151 48.3394 33.2056 48.08C33.3961 47.8206 34.119 47.299 34.3842 47.4933C34.6495 47.6875 34.3491 48.5288 34.1527 48.7899L34.1548 48.7861Z" fill="#FBFAF5"/>
<path d="M39.893 52.0276C39.7914 52.3354 39.4564 52.5011 39.1472 52.3974C38.8379 52.2936 38.6693 51.958 38.7709 51.6501C38.8725 51.3423 39.3931 50.621 39.7024 50.7248C40.0116 50.8286 39.9925 51.7236 39.8909 52.0314L39.893 52.0276Z" fill="#FBFAF5"/>
<path d="M47.2194 53.4723C47.1568 53.7914 46.85 53.9973 46.5278 53.9362C46.2055 53.8751 45.9988 53.5635 46.0576 53.2424C46.1164 52.9212 46.5368 52.1354 46.857 52.2004C47.1772 52.2654 47.2782 53.1511 47.2155 53.4702L47.2194 53.4723Z" fill="#FBFAF5"/>
<path d="M56.3788 45.9358C56.424 46.2587 56.1992 46.5539 55.8798 46.5987C55.5604 46.6434 55.2591 46.4146 55.2118 46.0955C55.1644 45.7764 55.3068 44.8944 55.6301 44.8517C55.9533 44.809 56.3353 45.6187 56.3806 45.9417L56.3788 45.9358Z" fill="#FBFAF5"/>
<path d="M27.9808 52.9115C28.4842 53.1857 29.1118 53.0024 29.3826 52.5021C29.6535 52.0018 29.465 51.374 28.9617 51.0998C28.4583 50.8256 27.8307 51.0088 27.5599 51.5091C27.289 52.0094 27.4775 52.6373 27.9808 52.9115Z" fill="#181818"/>
<path d="M33.4291 55.8704C33.9324 56.1446 34.56 55.9614 34.8309 55.4611C35.1017 54.9608 34.9133 54.3329 34.4099 54.0587C33.9066 53.7845 33.279 53.9678 33.0081 54.4681C32.7372 54.9684 32.9257 55.5962 33.4291 55.8704Z" fill="#181818"/>
<path d="M31.5336 57.2057C31.264 57.7036 30.2322 58.0593 29.0597 57.4208C27.8872 56.7822 27.6209 55.7246 27.8926 55.2229C28.1643 54.7212 28.8662 54.9745 30.0388 55.613C31.2113 56.2515 31.8033 56.7078 31.5336 57.2057Z" fill="#181818"/>
</svg>
