<svg width="280" height="200" viewBox="0 0 280 200" fill="none" xmlns="http://www.w3.org/2000/svg">
<rect width="280" height="200" rx="50" fill="#FDFDFD"/>
<path d="M35.3287 74.93C46.2074 54.8688 58.8285 57.468 74.8654 66.1891C90.9024 74.9102 104.283 86.4512 93.4048 106.512C82.5261 126.573 53.3409 145.208 38.606 137.195C21.9309 128.127 24.45 94.9911 35.3287 74.93Z" fill="#D9333F"/>
<path d="M90.3674 78.2075C89.574 79.6707 83.1817 76.2107 81.8952 77.1466C80.6087 78.0826 82.0075 85.1994 80.4051 85.5506C78.8028 85.9019 76.9908 78.8438 75.3539 78.5852C73.8121 78.3459 69.9919 84.5678 68.513 83.7636C67.0341 82.9594 70.1935 76.37 69.157 75.199C68.0525 73.9588 61.125 76.1994 60.5735 74.7174C60.0221 73.2354 66.7359 70.506 66.8164 68.9061C66.8969 67.3062 60.5313 63.8121 61.3276 62.3586C62.1239 60.905 68.0047 64.7994 69.1849 64.1943C70.4496 63.5379 70.5552 56.5348 72.116 56.6792C73.4607 56.8031 73.2704 64.157 74.7473 64.7253C76.0449 65.2204 80.4122 59.3365 81.7498 60.072C83.0874 60.8075 80.4053 67.6241 81.4827 68.4205C82.7345 69.3441 88.8228 65.2544 89.6053 66.2953C90.5226 67.5067 84.5704 71.136 84.6394 72.55C84.7005 73.814 91.1609 76.7443 90.3708 78.2012L90.3674 78.2075Z" fill="#2F5D50"/>
<path d="M51.4856 68.2886C51.0744 68.6659 50.4324 68.6431 50.0467 68.2273C49.661 67.8115 49.6883 67.1738 50.1031 66.7898C50.518 66.4058 51.9054 65.7523 52.2845 66.1645C52.6636 66.5767 51.8969 67.9112 51.4856 68.2886Z" fill="#FBFAF5"/>
<path d="M55.7117 77.5234C55.3004 77.9008 54.6585 77.878 54.2728 77.4622C53.8871 77.0463 53.9143 76.4087 54.3292 76.0247C54.744 75.6407 56.1315 74.9871 56.5106 75.3993C56.8897 75.8115 56.1229 77.1461 55.7117 77.5234Z" fill="#FBFAF5"/>
<path d="M64.2932 85.4432C63.9673 85.9014 63.3348 86.0039 62.8782 85.687C62.4216 85.37 62.3138 84.7275 62.6294 84.2723C62.9451 83.8172 64.1761 82.881 64.6291 83.2046C65.0821 83.5282 64.6089 84.9881 64.2896 85.4499L64.2932 85.4432Z" fill="#FBFAF5"/>
<path d="M42.2912 77.4065C41.8473 77.7489 41.204 77.6652 40.8701 77.2175C40.5361 76.7697 40.6074 76.1303 41.0544 75.7981C41.5014 75.466 42.9392 74.9258 43.2834 75.3705C43.6276 75.8152 42.7382 77.0743 42.2979 77.4101L42.2912 77.4065Z" fill="#FBFAF5"/>
<path d="M46.57 87.4607C46.1261 87.8031 45.4828 87.7194 45.1489 87.2717C44.8149 86.8239 44.8862 86.1845 45.3332 85.8523C45.7802 85.5202 47.218 84.98 47.5622 85.4247C47.9064 85.8694 47.017 87.1285 46.5767 87.4643L46.57 87.4607Z" fill="#FBFAF5"/>
<path d="M54.92 95.3495C54.5578 95.7793 53.9136 95.824 53.4889 95.4643C53.0641 95.1045 53.0105 94.4572 53.3691 94.034C53.7278 93.6108 55.0363 92.7854 55.4575 93.1518C55.8786 93.5183 55.2786 94.9264 54.9164 95.3562L54.92 95.3495Z" fill="#FBFAF5"/>
<path d="M75.2853 91.0261C75.1225 91.5643 74.5614 91.8688 74.0252 91.7146C73.4889 91.5604 73.1792 90.9884 73.3317 90.4531C73.4843 89.9179 74.3441 88.6339 74.8768 88.7948C75.4094 88.9556 75.4378 90.4908 75.2817 91.0327L75.2853 91.0261Z" fill="#FBFAF5"/>
<path d="M85.7574 93.076C85.6719 93.6306 85.1557 94.0109 84.6005 93.9236C84.0452 93.8363 83.6627 93.3193 83.7482 92.7647C83.8337 92.2102 84.5074 90.8251 85.0626 90.9124C85.6179 90.9997 85.8429 92.5215 85.7574 93.076Z" fill="#FBFAF5"/>
<path d="M95.9793 91.1903C96.1139 91.7356 95.7818 92.2845 95.2366 92.4171C94.6913 92.5498 94.1408 92.2161 94.0062 91.6708C93.8716 91.1256 93.965 89.5886 94.5102 89.4559C95.0555 89.3233 95.8447 90.6451 95.9793 91.1903Z" fill="#FBFAF5"/>
<path d="M66.7295 101.721C66.5166 102.24 65.9269 102.486 65.4061 102.272C64.8853 102.057 64.637 101.467 64.85 100.948C65.0629 100.428 66.0347 99.2392 66.5555 99.4537C67.0763 99.6682 66.9424 101.201 66.7295 101.721Z" fill="#FBFAF5"/>
<path d="M77.7527 105.239C77.6135 105.782 77.0584 106.106 76.515 105.966C75.9716 105.825 75.6444 105.269 75.7837 104.726C75.9229 104.184 76.7362 102.875 77.276 103.022C77.8159 103.17 77.8883 104.703 77.7491 105.246L77.7527 105.239Z" fill="#FBFAF5"/>
<path d="M40.6404 100.468C40.2159 100.838 39.5781 100.791 39.2063 100.366C38.8344 99.9404 38.8785 99.3034 39.3031 98.9332C39.7276 98.5631 41.1309 97.9439 41.4997 98.3591C41.8686 98.7743 41.0686 100.091 40.644 100.461L40.6404 100.468Z" fill="#FBFAF5"/>
<path d="M49.9094 109.13C49.5737 109.574 48.9382 109.667 48.4888 109.336C48.0394 109.006 47.9484 108.364 48.2774 107.916C48.6064 107.469 49.8531 106.567 50.3092 106.9C50.7653 107.234 50.245 108.686 49.9058 109.137L49.9094 109.13Z" fill="#FBFAF5"/>
<path d="M59.8005 114.717C59.6245 115.248 59.047 115.535 58.5149 115.357C57.9828 115.18 57.6936 114.602 57.8696 114.071C58.0457 113.54 58.9449 112.294 59.477 112.472C60.0091 112.65 59.973 114.193 59.7969 114.724L59.8005 114.717Z" fill="#FBFAF5"/>
<path d="M72.4298 117.208C72.3208 117.758 71.7918 118.114 71.2371 118.01C70.6823 117.906 70.3275 117.369 70.4299 116.816C70.5323 116.262 71.2591 114.905 71.8103 115.016C72.3614 115.127 72.5322 116.654 72.4231 117.204L72.4298 117.208Z" fill="#FBFAF5"/>
<path d="M88.2183 104.216C88.2951 104.773 87.9067 105.283 87.3564 105.361C86.8061 105.44 86.2879 105.046 86.2075 104.496C86.1272 103.946 86.3756 102.425 86.9326 102.35C87.4895 102.275 88.1446 103.67 88.2214 104.227L88.2183 104.216Z" fill="#FBFAF5"/>
<path d="M39.2674 116.245C40.1336 116.716 41.2155 116.398 41.6839 115.534C42.1524 114.67 41.83 113.588 40.9638 113.117C40.0977 112.646 39.0158 112.964 38.5473 113.828C38.0789 114.692 38.4013 115.774 39.2674 116.245Z" fill="#181818"/>
<path d="M48.6585 121.345C49.5247 121.816 50.6066 121.498 51.075 120.634C51.5435 119.77 51.2211 118.688 50.3549 118.217C49.4888 117.746 48.4069 118.065 47.9384 118.928C47.47 119.792 47.7924 120.874 48.6585 121.345Z" fill="#181818"/>
<path d="M45.3899 123.638C44.9228 124.499 43.1428 125.118 41.1245 124.021C39.1062 122.923 38.6519 121.098 39.1225 120.23C39.5931 119.363 40.8019 119.797 42.8202 120.894C44.8385 121.992 45.8569 122.777 45.3899 123.638Z" fill="#181818"/>
<path d="M119.78 73.6156L126.42 73.5756C125.3 82.6556 125.22 89.0556 128.78 89.8956C131.78 90.6156 135.06 89.1756 136.86 86.4556C137.1 92.0956 132.78 96.7756 126.18 95.4156C120.34 94.3756 118.06 86.4156 119.78 73.6156ZM165.06 82.4156C168.78 82.3356 170.54 84.4956 170.54 87.1356C170.5 89.5756 168.74 92.0556 165.3 92.7756C166.34 91.3756 166.78 89.6556 166.86 88.2956C166.82 86.8156 166.42 85.4556 164.54 85.4156L162.34 88.5356L162.18 85.1756C162.18 85.1756 158.74 85.7756 158.1 86.0156C158.38 87.3756 158.74 90.6956 161.54 97.4156L157.26 98.8156C157.26 98.8156 155.18 89.7356 154.42 87.1756C154.42 87.1756 151.74 88.4556 150.1 89.3356L148.82 85.4556C148.82 85.4556 151.98 84.5756 153.74 84.0556L152.58 79.6156C152.58 79.6156 155.14 78.9356 156.9 78.5756C156.9 78.5756 157.34 82.0556 157.54 83.3356C159.3 82.9356 160.02 82.7356 161.9 82.4156L161.82 79.1356H165.58C165.58 79.1356 165.14 81.8956 165.06 82.4156ZM199.66 74.0156V76.9756C199.66 76.9756 198.62 77.2556 197.9 77.6156L197.14 74.4956L199.66 74.0156ZM203.3 73.4556L203.06 76.4156C203.06 76.4156 202.02 76.6956 201.34 77.0556L200.82 73.9356L203.3 73.4556ZM179.06 84.8556C179.06 84.8556 188.98 76.8556 190.22 76.2956C190.22 76.2956 204.22 85.0956 206.9 87.1756L202.82 91.8956C199.5 89.2556 193.14 83.5756 190.18 82.1356C186.78 84.6556 184.38 87.2556 182.42 88.9356C182.42 88.9356 179.66 85.6156 179.06 84.8556ZM226.26 82.0956C227.98 82.3356 233.82 83.4156 233.82 89.2156C233.82 95.8556 227.62 98.2556 222.18 96.9356C219.02 96.1756 218.14 93.1756 218.66 91.4556C219.06 90.0156 220.46 88.6556 222.98 88.7756C224.14 88.8556 226.18 89.6556 226.86 92.2556C227.7 92.1356 228.82 90.8156 228.82 89.3756C228.82 85.0956 223.74 84.0556 220.02 84.2156L225.14 77.3356C225.14 77.3356 219.7 77.5756 217.9 77.5756L217.82 72.4556C217.82 72.4556 228.26 72.4156 232.3 72.5756C230.18 76.7356 228.9 78.5756 226.26 82.0956ZM222.62 93.4556C223.5 93.5356 223.94 92.9756 223.9 92.7756C223.78 92.3756 223.42 91.8956 222.98 91.7356C222.3 91.5356 221.58 91.9356 221.7 92.5756C221.82 93.2156 222.34 93.3756 222.62 93.4556ZM151.86 118.056L151.78 109.416C151.78 109.416 154.5 109.216 155.7 109.056L155.58 106.856L159.46 106.816L159.54 109.136C159.54 109.136 161.5 109.136 161.94 109.136L161.9 106.856L165.42 107.056V109.136L169.9 108.896C169.9 108.896 170.26 117.896 169.98 118.496C169.98 118.496 152.62 118.136 151.86 118.056ZM166.94 111.176H165.18V112.496C165.86 112.696 166.78 112.616 166.78 112.616L166.94 111.176ZM166.54 114.616L164.78 114.456L164.9 115.616C165.18 115.696 166.62 116.016 166.62 116.016L166.54 114.616ZM161.54 115.816L161.58 114.696L160.1 114.536L160.02 115.616C160.62 115.856 161.54 115.816 161.54 115.816ZM161.42 111.096H159.98L160.02 112.536C160.78 112.456 161.5 112.496 161.5 112.496L161.42 111.096ZM156.38 111.456L154.82 111.336L154.94 112.576L156.38 112.456V111.456ZM154.82 114.656L154.78 115.696L156.78 116.016L156.86 114.616C156.86 114.616 155.34 114.736 154.82 114.656ZM172.54 119.736L172.34 122.896C172.34 122.896 159.58 123.216 151.82 123.016C151.82 123.016 153.06 131.056 144.9 133.496C147.42 128.376 148.66 123.656 148.14 119.976C148.14 119.976 168.3 119.816 172.54 119.736ZM168.58 124.456L168.66 127.416C168.66 127.416 155.58 127.416 154.02 127.216V124.816C167.86 124.536 168.06 124.536 168.58 124.456ZM151.74 128.896C159.18 128.856 165.54 129.016 170.34 128.616L170.18 131.736C170.18 131.736 159.46 131.936 157.82 131.936L157.74 135.936C157.74 135.936 159.98 135.136 160.94 134.536C160.74 136.016 158.38 139.216 154.54 139.856L154.7 131.856C154.7 131.856 153.22 131.936 151.94 131.776L151.74 128.896ZM165.98 131.936C168.02 134.176 170.7 135.216 172.22 134.976L170.06 139.456C167.58 137.776 165.1 135.856 163.78 134.016L165.98 131.936ZM171.06 132.336C172.06 131.496 174.06 129.336 174.46 128.696L176.7 131.736C175.66 132.216 173.98 133.336 171.06 132.336ZM205.66 109.736C205.66 109.736 206.18 135.616 206.02 138.616C206.02 138.616 182.58 138.616 180.18 138.616C180.18 138.616 180.5 111.056 180.74 109.576C191.9 109.656 195.7 109.696 205.66 109.736ZM202.62 135.056C202.62 133.176 203.02 113.056 203.02 113.056C202.02 112.976 183.74 113.376 183.74 113.376C183.42 114.376 183.58 135.056 183.58 135.056C184.58 134.976 202.62 135.056 202.62 135.056ZM194.74 119.936L199.98 119.896L200.02 122.096C200.02 122.096 188.82 122.056 186.22 122.136L186.26 119.576C186.26 119.576 190.5 119.376 191.94 119.376L192.02 118.096C189.62 118.136 190.06 118.016 188.54 118.016L188.46 116.096C188.46 116.096 190.62 116.056 191.62 116.016L191.46 114.016L194.78 114.256L194.74 116.176C194.74 116.176 197.94 116.216 198.58 116.176L198.5 118.616C198.5 118.616 195.22 118.696 194.74 118.696V119.936ZM198.9 129.296C198.9 129.296 198.1 130.136 197.42 130.376C197.42 130.376 198.82 130.936 199.98 131.336L197.9 134.096C197.9 134.096 193.66 130.376 192.9 129.256L193.46 134.056H190.54C190.74 131.936 190.7 131.056 190.78 129.416C190.78 129.416 189.66 131.216 185.62 131.096C187.42 130.016 189.34 128.576 190.02 127.296C190.02 127.296 188.66 127.296 188.02 127.296C188.02 127.296 187.98 124.096 188.1 123.216C188.1 123.216 195.78 123.016 197.82 123.096L197.9 127.696C197.9 127.696 196.62 127.776 194.82 127.736C194.86 128.096 195.86 129.256 196.34 129.416L197.42 128.016L198.9 129.296ZM191.62 126.336C193.22 126.456 194.86 126.296 194.86 126.296L194.82 124.856L191.54 124.776L191.62 126.336Z" fill="#433D3C"/>
</svg>
