<svg width="290" height="48" viewBox="0 0 290 48" fill="none" xmlns="http://www.w3.org/2000/svg">
<path d="M90.388 25.304C90.172 22.244 92.26 18.788 97.408 18.428L97.336 15.152C97.336 15.152 94.132 15.332 91.144 15.512L90.856 10.904C90.856 10.904 95.248 11.048 97.264 11.012L96.688 6.836H101.476L101.296 10.976L106.444 10.508L106.336 15.548C106.336 15.548 103.492 15.476 100.72 15.62C100.72 15.62 100.504 17.204 100.504 18.212C106.3 18.032 109.18 21.416 109.576 24.728C109.9 27.212 108.676 29.948 106.408 31.496C107.236 27.572 106.516 25.556 105.076 24.116C104.104 23.252 102.52 22.352 100.504 22.532C100.54 26.24 99.604 30.2 95.932 30.38C92.836 30.524 90.604 28.508 90.388 25.304ZM93.592 24.872C93.484 25.808 94.096 26.852 95.104 26.744C96.04 26.672 96.652 24.368 96.652 22.676C95.392 22.604 93.7 23.216 93.592 24.872ZM114.508 14.504L111.088 15.548C111.088 15.548 110.008 12.272 109.756 11.804L113.284 10.688C113.284 10.688 114.112 12.884 114.508 14.504ZM115.696 30.308C119.476 26.96 120.916 24.44 121.204 21.092L114.58 21.128L114.616 17.168L121.888 17.312L121.816 13.856L119.8 13.676C119.8 13.676 118.576 15.332 116.2 16.304C116.2 16.304 117.892 10.256 117.568 6.692L121.744 6.764C121.384 8.708 121.204 9.86 120.952 10.292H129.124V13.316C129.124 13.316 125.632 13.748 124.984 13.748L124.876 17.168L129.412 17.024L129.268 20.876C129.268 20.876 125.92 20.804 124.876 20.732L124.732 21.812C124.732 21.812 126.388 23.9 130.384 24.296C130.384 24.296 128.98 26.528 126.64 26.528C125.812 26.528 124.66 25.736 123.688 24.908C123.688 24.908 122.212 29.948 115.696 30.308ZM132.004 12.092C132.004 12.092 142.372 12.452 143.452 12.092C143.452 12.092 143.632 22.964 143.56 25.952C143.56 25.952 134.272 26.132 132.076 25.952C132.076 25.952 131.896 18.284 132.004 12.092ZM134.668 21.848C136.72 22.1 139.816 21.956 139.816 21.956L139.78 16.556L134.776 16.196C134.704 16.844 134.668 21.848 134.668 21.848ZM165.88 9.068L163.684 12.632C163.684 12.632 160.624 10.652 158.464 9.536L160.516 6.224C160.516 6.224 163.612 7.772 165.88 9.068ZM151.984 10.544L156.7 10.688C156.7 10.688 156.088 18.464 156.088 19.472C157.168 18.86 158.536 18.572 159.868 18.68C162.532 18.932 165.268 20.588 165.268 24.368C165.268 32 155.512 31.82 153.244 29.336C158.896 29.192 160.588 26.42 160.336 24.332C160.264 23.504 159.364 21.92 157.204 21.884C155.512 21.884 154.324 22.28 151.912 23.468C151.912 23.468 151.984 11.984 151.984 10.544ZM200.692 12.2L200.8 16.16C200.8 16.16 197.848 16.376 196.516 16.556L196.3 20.156L192.16 20.3L192.34 17.06C192.34 17.06 188.56 17.456 185.68 17.744C184.852 23.216 187.3 26.42 195.796 24.152L196.192 28.832C195.688 29.264 192.124 30.596 188.056 29.3C182.584 27.608 181.828 23.72 181.9 18.968C181.9 18.968 177.508 19.508 176.788 19.58L176.356 14.288C176.356 14.288 181.9 13.568 182.296 13.46L182.404 8.816L187.3 8.888L186.76 13.388C186.76 13.388 190.828 12.92 192.376 12.776L192.232 7.412H196.444C196.444 7.412 196.696 11.804 196.624 12.272L200.692 12.2Z" fill="#2F5D50"/>
<path d="M283.048 44.5C283.048 42.57 284.607 41 286.524 41C288.441 41 290 42.57 290 44.5C290 46.43 288.441 48 286.524 48C284.607 48 283.048 46.43 283.048 44.5ZM268.151 44.5C268.151 42.57 269.71 41 271.627 41C273.543 41 275.103 42.57 275.103 44.5C275.103 46.43 273.543 48 271.627 48C269.71 48 268.151 46.43 268.151 44.5ZM253.253 44.5C253.253 42.57 254.813 41 256.729 41C258.646 41 260.205 42.57 260.205 44.5C260.205 46.43 258.646 48 256.729 48C254.813 48 253.253 46.43 253.253 44.5ZM238.356 44.5C238.356 42.57 239.915 41 241.832 41C243.749 41 245.308 42.57 245.308 44.5C245.308 46.43 243.749 48 241.832 48C239.915 48 238.356 46.43 238.356 44.5ZM223.459 44.5C223.459 42.57 225.018 41 226.935 41C228.852 41 230.411 42.57 230.411 44.5C230.411 46.43 228.852 48 226.935 48C225.018 48 223.459 46.43 223.459 44.5ZM208.562 44.5C208.562 42.57 210.121 41 212.038 41C213.954 41 215.514 42.57 215.514 44.5C215.514 46.43 213.954 48 212.038 48C210.121 48 208.562 46.43 208.562 44.5ZM193.664 44.5C193.664 42.57 195.224 41 197.14 41C199.057 41 200.616 42.57 200.616 44.5C200.616 46.43 199.057 48 197.14 48C195.224 48 193.664 46.43 193.664 44.5ZM178.767 44.5C178.767 42.57 180.326 41 182.243 41C184.16 41 185.719 42.57 185.719 44.5C185.719 46.43 184.16 48 182.243 48C180.326 48 178.767 46.43 178.767 44.5ZM163.87 44.5C163.87 42.57 165.429 41 167.346 41C169.263 41 170.822 42.57 170.822 44.5C170.822 46.43 169.263 48 167.346 48C165.429 48 163.87 46.43 163.87 44.5ZM148.973 44.5C148.973 42.57 150.532 41 152.449 41C154.365 41 155.925 42.57 155.925 44.5C155.925 46.43 154.365 48 152.449 48C150.532 48 148.973 46.43 148.973 44.5ZM134.075 44.5C134.075 42.57 135.635 41 137.551 41C139.468 41 141.027 42.57 141.027 44.5C141.027 46.43 139.468 48 137.551 48C135.635 48 134.075 46.43 134.075 44.5ZM119.178 44.5C119.178 42.57 120.737 41 122.654 41C124.571 41 126.13 42.57 126.13 44.5C126.13 46.43 124.571 48 122.654 48C120.737 48 119.178 46.43 119.178 44.5ZM104.281 44.5C104.281 42.57 105.84 41 107.757 41C109.674 41 111.233 42.57 111.233 44.5C111.233 46.43 109.674 48 107.757 48C105.84 48 104.281 46.43 104.281 44.5ZM89.3836 44.5C89.3836 42.57 90.9428 41 92.8596 41C94.7764 41 96.3356 42.57 96.3356 44.5C96.3356 46.43 94.7764 48 92.8596 48C90.9428 48 89.3836 46.43 89.3836 44.5ZM74.4863 44.5C74.4863 42.57 76.0455 41 77.9623 41C79.8791 41 81.4384 42.57 81.4384 44.5C81.4384 46.43 79.8791 48 77.9623 48C76.0455 48 74.4863 46.43 74.4863 44.5ZM59.589 44.5C59.589 42.57 61.1483 41 63.0651 41C64.9818 41 66.5411 42.57 66.5411 44.5C66.5411 46.43 64.9818 48 63.0651 48C61.1483 48 59.589 46.43 59.589 44.5ZM44.6918 44.5C44.6918 42.57 46.251 41 48.1678 41C50.0846 41 51.6438 42.57 51.6438 44.5C51.6438 46.43 50.0846 48 48.1678 48C46.251 48 44.6918 46.43 44.6918 44.5ZM29.7945 44.5C29.7945 42.57 31.3538 41 33.2705 41C35.1873 41 36.7466 42.57 36.7466 44.5C36.7466 46.43 35.1873 48 33.2705 48C31.3538 48 29.7945 46.43 29.7945 44.5ZM14.8973 44.5C14.8973 42.57 16.4565 41 18.3733 41C20.2901 41 21.8493 42.57 21.8493 44.5C21.8493 46.43 20.2901 48 18.3733 48C16.4565 48 14.8973 46.43 14.8973 44.5ZM0 44.5C0 42.57 1.55925 41 3.47603 41C5.39281 41 6.95205 42.57 6.95205 44.5C6.95205 46.43 5.39281 48 3.47603 48C1.55925 48 0 46.43 0 44.5Z" fill="#2F5D50"/>
</svg>
