<svg width="102" height="111" viewBox="0 0 102 111" fill="none" xmlns="http://www.w3.org/2000/svg">
<path d="M25.8419 31.2626C36.7206 11.0059 49.3416 13.6305 65.3786 22.4366C81.4156 31.2428 94.7966 42.8963 83.9179 63.1531C73.0392 83.4098 43.854 102.226 29.119 94.1346C12.4439 84.978 14.9632 51.5193 25.8419 31.2626Z" fill="#D9333F"/>
<path d="M80.8806 34.5722C80.0871 36.0497 73.6949 32.556 72.4083 33.501C71.1218 34.4461 72.5206 41.6323 70.9183 41.987C69.3159 42.3417 67.5039 35.2147 65.8671 34.9536C64.3253 34.712 60.505 40.9946 59.0261 40.1825C57.5473 39.3704 60.7067 32.7168 59.6701 31.5344C58.5657 30.2821 51.6381 32.5446 51.0867 31.0481C50.5353 29.5516 57.2491 26.7956 57.3296 25.1801C57.4101 23.5646 51.0444 20.0365 51.8408 18.5688C52.6371 17.101 58.5179 21.0334 59.6981 20.4224C60.9628 19.7596 61.0684 12.6882 62.6292 12.834C63.9738 12.9592 63.7836 20.3847 65.2605 20.9586C66.5581 21.4586 70.9254 15.5173 72.263 16.26C73.6006 17.0027 70.9184 23.8856 71.9958 24.6898C73.2476 25.6225 79.3359 21.4929 80.1185 22.544C81.0357 23.7671 75.0835 27.4318 75.1525 28.8596C75.2136 30.1359 81.674 33.0948 80.8839 34.5659L80.8806 34.5722Z" fill="#2F5D50"/>
<path d="M41.9983 24.5568C41.587 24.9379 40.9451 24.9148 40.5594 24.495C40.1737 24.0751 40.201 23.4312 40.6158 23.0435C41.0306 22.6557 42.4181 21.9958 42.7972 22.412C43.1763 22.8283 42.4095 24.1758 41.9983 24.5568Z" fill="#FBFAF5"/>
<path d="M46.2244 33.8813C45.8131 34.2623 45.1712 34.2393 44.7855 33.8194C44.3997 33.3996 44.427 32.7557 44.8419 32.3679C45.2567 31.9802 46.6442 31.3203 47.0233 31.7365C47.4024 32.1527 46.6356 33.5003 46.2244 33.8813Z" fill="#FBFAF5"/>
<path d="M54.8064 41.8784C54.4805 42.341 53.848 42.4446 53.3914 42.1245C52.9348 41.8044 52.8269 41.1556 53.1426 40.6961C53.4583 40.2365 54.6893 39.2911 55.1423 39.6179C55.5953 39.9447 55.1221 41.4188 54.8028 41.8851L54.8064 41.8784Z" fill="#FBFAF5"/>
<path d="M32.8039 33.7634C32.36 34.1091 31.7167 34.0247 31.3827 33.5725C31.0488 33.1204 31.1201 32.4747 31.5671 32.1394C32.014 31.804 33.4519 31.2585 33.7961 31.7076C34.1403 32.1566 33.2509 33.428 32.8105 33.7671L32.8039 33.7634Z" fill="#FBFAF5"/>
<path d="M37.0832 43.9158C36.6393 44.2615 35.996 44.177 35.662 43.7249C35.3281 43.2728 35.3994 42.6271 35.8464 42.2917C36.2933 41.9563 37.7312 41.4109 38.0754 41.8599C38.4196 42.309 37.5302 43.5804 37.0898 43.9194L37.0832 43.9158Z" fill="#FBFAF5"/>
<path d="M45.4327 51.8813C45.0704 52.3153 44.4263 52.3604 44.0016 51.9971C43.5768 51.6338 43.5232 50.9802 43.8818 50.5529C44.2405 50.1256 45.549 49.2922 45.9702 49.6621C46.3913 50.0321 45.7913 51.4539 45.4291 51.8879L45.4327 51.8813Z" fill="#FBFAF5"/>
<path d="M65.7985 47.516C65.6357 48.0596 65.0746 48.367 64.5383 48.2113C64.0021 48.0555 63.6924 47.478 63.8449 46.9375C63.9974 46.397 64.8573 45.1006 65.39 45.263C65.9226 45.4254 65.951 46.9756 65.7949 47.5227L65.7985 47.516Z" fill="#FBFAF5"/>
<path d="M76.2706 49.5859C76.1851 50.1458 75.6689 50.5299 75.1136 50.4418C74.5584 50.3536 74.1759 49.8315 74.2614 49.2716C74.3469 48.7117 75.0205 47.313 75.5758 47.4012C76.1311 47.4894 76.3561 49.026 76.2706 49.5859Z" fill="#FBFAF5"/>
<path d="M86.492 47.6814C86.6266 48.2319 86.2945 48.7862 85.7492 48.9201C85.204 49.0541 84.6535 48.7171 84.5189 48.1665C84.3843 47.616 84.4777 46.064 85.0229 45.9301C85.5682 45.7961 86.3574 47.1308 86.492 47.6814Z" fill="#FBFAF5"/>
<path d="M57.2427 58.3145C57.0297 58.8392 56.44 59.0876 55.9193 58.871C55.3985 58.6544 55.1502 58.0586 55.3631 57.5339C55.576 57.0092 56.5479 55.8088 57.0687 56.0254C57.5894 56.242 57.4556 57.7898 57.2427 58.3145Z" fill="#FBFAF5"/>
<path d="M68.2659 61.8673C68.1266 62.4151 67.5716 62.7432 67.0282 62.6009C66.4848 62.4585 66.1576 61.8974 66.2968 61.3497C66.4361 60.8019 67.2494 59.4799 67.7892 59.6289C68.329 59.7779 68.4015 61.3262 68.2623 61.874L68.2659 61.8673Z" fill="#FBFAF5"/>
<path d="M31.1536 57.0491C30.7291 57.4229 30.0913 57.3761 29.7194 56.9465C29.3475 56.5169 29.3917 55.8736 29.8163 55.4999C30.2408 55.1261 31.6441 54.5009 32.0129 54.9202C32.3817 55.3394 31.5818 56.6687 31.1572 57.0424L31.1536 57.0491Z" fill="#FBFAF5"/>
<path d="M40.4225 65.7964C40.0869 66.245 39.4514 66.3382 39.002 66.0048C38.5526 65.6713 38.4616 65.0231 38.7906 64.5709C39.1196 64.1186 40.3663 63.2079 40.8224 63.545C41.2784 63.8822 40.7582 65.3478 40.4189 65.8031L40.4225 65.7964Z" fill="#FBFAF5"/>
<path d="M50.3137 71.438C50.1377 71.9743 49.5602 72.264 49.0281 72.0846C48.496 71.9051 48.2067 71.3215 48.3828 70.7853C48.5589 70.249 49.4581 68.9915 49.9902 69.171C50.5223 69.3504 50.4862 70.9085 50.3101 71.4447L50.3137 71.438Z" fill="#FBFAF5"/>
<path d="M62.9425 73.9526C62.8334 74.5083 62.3045 74.868 61.7498 74.7628C61.195 74.6576 60.8402 74.116 60.9426 73.5567C61.045 72.9974 61.7718 71.6279 62.323 71.7398C62.8741 71.8517 63.0449 73.3933 62.9358 73.949L62.9425 73.9526Z" fill="#FBFAF5"/>
<path d="M78.7315 60.8346C78.8083 61.3968 78.4199 61.9116 77.8696 61.9908C77.3193 62.07 76.8011 61.6727 76.7207 61.1172C76.6404 60.5617 76.8888 59.0254 77.4458 58.9499C78.0027 58.8743 78.6578 60.2828 78.7345 60.845L78.7315 60.8346Z" fill="#FBFAF5"/>
<path d="M29.7801 72.9809C30.6463 73.4565 31.7282 73.135 32.1966 72.2627C32.6651 71.3904 32.3427 70.2978 31.4765 69.8221C30.6104 69.3465 29.5285 69.6681 29.06 70.5403C28.5916 71.4126 28.914 72.5053 29.7801 72.9809Z" fill="#181818"/>
<path d="M39.1717 78.1307C40.0379 78.6063 41.1198 78.2848 41.5882 77.4125C42.0567 76.5402 41.7343 75.4475 40.8681 74.9719C40.002 74.4963 38.9201 74.8178 38.4516 75.6901C37.9832 76.5624 38.3056 77.6551 39.1717 78.1307Z" fill="#181818"/>
<path d="M35.903 80.4459C35.436 81.3154 33.656 81.9404 31.6377 80.8323C29.6194 79.7242 29.1651 77.8811 29.6357 77.0048C30.1063 76.1286 31.3151 76.5671 33.3334 77.6752C35.3517 78.7834 36.3701 79.5764 35.903 80.4459Z" fill="#181818"/>
</svg>
