<svg width="950" height="48" viewBox="0 0 950 48" fill="none" xmlns="http://www.w3.org/2000/svg">
<path d="M399.184 33.072C398.896 28.992 401.68 24.384 408.544 23.904L408.448 19.536C408.448 19.536 404.176 19.776 400.192 20.016L399.808 13.872C399.808 13.872 405.664 14.064 408.352 14.016L407.584 8.448H413.968L413.728 13.968L420.592 13.344L420.448 20.064C420.448 20.064 416.656 19.968 412.96 20.16C412.96 20.16 412.672 22.272 412.672 23.616C420.4 23.376 424.24 27.888 424.768 32.304C425.2 35.616 423.568 39.264 420.544 41.328C421.648 36.096 420.688 33.408 418.768 31.488C417.472 30.336 415.36 29.136 412.672 29.376C412.72 34.32 411.472 39.6 406.576 39.84C402.448 40.032 399.472 37.344 399.184 33.072ZM403.456 32.496C403.312 33.744 404.128 35.136 405.472 34.992C406.72 34.896 407.536 31.824 407.536 29.568C405.856 29.472 403.6 30.288 403.456 32.496ZM431.344 18.672L426.784 20.064C426.784 20.064 425.344 15.696 425.008 15.072L429.712 13.584C429.712 13.584 430.816 16.512 431.344 18.672ZM432.928 39.744C437.968 35.28 439.888 31.92 440.272 27.456L431.44 27.504L431.488 22.224L441.184 22.416L441.088 17.808L438.4 17.568C438.4 17.568 436.768 19.776 433.6 21.072C433.6 21.072 435.856 13.008 435.424 8.256L440.992 8.352C440.512 10.944 440.272 12.48 439.936 13.056H450.832V17.088C450.832 17.088 446.176 17.664 445.312 17.664L445.168 22.224L451.216 22.032L451.024 27.168C451.024 27.168 446.56 27.072 445.168 26.976L444.976 28.416C444.976 28.416 447.184 31.2 452.512 31.728C452.512 31.728 450.64 34.704 447.52 34.704C446.416 34.704 444.88 33.648 443.584 32.544C443.584 32.544 441.616 39.264 432.928 39.744ZM454.672 15.456C454.672 15.456 468.496 15.936 469.936 15.456C469.936 15.456 470.176 29.952 470.08 33.936C470.08 33.936 457.696 34.176 454.768 33.936C454.768 33.936 454.528 23.712 454.672 15.456ZM458.224 28.464C460.96 28.8 465.088 28.608 465.088 28.608L465.04 21.408L458.368 20.928C458.272 21.792 458.224 28.464 458.224 28.464ZM499.84 11.424L496.912 16.176C496.912 16.176 492.832 13.536 489.952 12.048L492.688 7.632C492.688 7.632 496.816 9.696 499.84 11.424ZM481.312 13.392L487.6 13.584C487.6 13.584 486.784 23.952 486.784 25.296C488.224 24.48 490.048 24.096 491.824 24.24C495.376 24.576 499.024 26.784 499.024 31.824C499.024 42 486.016 41.76 482.992 38.448C490.528 38.256 492.784 34.56 492.448 31.776C492.352 30.672 491.152 28.56 488.272 28.512C486.016 28.512 484.432 29.04 481.216 30.624C481.216 30.624 481.312 15.312 481.312 13.392ZM546.256 15.6L546.4 20.88C546.4 20.88 542.464 21.168 540.688 21.408L540.4 26.208L534.88 26.4L535.12 22.08C535.12 22.08 530.08 22.608 526.24 22.992C525.136 30.288 528.4 34.56 539.728 31.536L540.256 37.776C539.584 38.352 534.832 40.128 529.408 38.4C522.112 36.144 521.104 30.96 521.2 24.624C521.2 24.624 515.344 25.344 514.384 25.44L513.808 18.384C513.808 18.384 521.2 17.424 521.728 17.28L521.872 11.088L528.4 11.184L527.68 17.184C527.68 17.184 533.104 16.56 535.168 16.368L534.976 9.216H540.592C540.592 9.216 540.928 15.072 540.832 15.696L546.256 15.6Z" fill="#2F5D50"/>
<path d="M943 24.5C943 22.57 944.57 21 946.5 21C948.43 21 950 22.57 950 24.5C950 26.43 948.43 28 946.5 28C944.57 28 943 26.43 943 24.5ZM928 24.5C928 22.57 929.57 21 931.5 21C933.43 21 935 22.57 935 24.5C935 26.43 933.43 28 931.5 28C929.57 28 928 26.43 928 24.5ZM913 24.5C913 22.57 914.57 21 916.5 21C918.43 21 920 22.57 920 24.5C920 26.43 918.43 28 916.5 28C914.57 28 913 26.43 913 24.5ZM898 24.5C898 22.57 899.57 21 901.5 21C903.43 21 905 22.57 905 24.5C905 26.43 903.43 28 901.5 28C899.57 28 898 26.43 898 24.5ZM883 24.5C883 22.57 884.57 21 886.5 21C888.43 21 890 22.57 890 24.5C890 26.43 888.43 28 886.5 28C884.57 28 883 26.43 883 24.5ZM868 24.5C868 22.57 869.57 21 871.5 21C873.43 21 875 22.57 875 24.5C875 26.43 873.43 28 871.5 28C869.57 28 868 26.43 868 24.5ZM853 24.5C853 22.57 854.57 21 856.5 21C858.43 21 860 22.57 860 24.5C860 26.43 858.43 28 856.5 28C854.57 28 853 26.43 853 24.5ZM838 24.5C838 22.57 839.57 21 841.5 21C843.43 21 845 22.57 845 24.5C845 26.43 843.43 28 841.5 28C839.57 28 838 26.43 838 24.5ZM823 24.5C823 22.57 824.57 21 826.5 21C828.43 21 830 22.57 830 24.5C830 26.43 828.43 28 826.5 28C824.57 28 823 26.43 823 24.5ZM808 24.5C808 22.57 809.57 21 811.5 21C813.43 21 815 22.57 815 24.5C815 26.43 813.43 28 811.5 28C809.57 28 808 26.43 808 24.5ZM793 24.5C793 22.57 794.57 21 796.5 21C798.43 21 800 22.57 800 24.5C800 26.43 798.43 28 796.5 28C794.57 28 793 26.43 793 24.5ZM778 24.5C778 22.57 779.57 21 781.5 21C783.43 21 785 22.57 785 24.5C785 26.43 783.43 28 781.5 28C779.57 28 778 26.43 778 24.5ZM763 24.5C763 22.57 764.57 21 766.5 21C768.43 21 770 22.57 770 24.5C770 26.43 768.43 28 766.5 28C764.57 28 763 26.43 763 24.5ZM748 24.5C748 22.57 749.57 21 751.5 21C753.43 21 755 22.57 755 24.5C755 26.43 753.43 28 751.5 28C749.57 28 748 26.43 748 24.5ZM733 24.5C733 22.57 734.57 21 736.5 21C738.43 21 740 22.57 740 24.5C740 26.43 738.43 28 736.5 28C734.57 28 733 26.43 733 24.5ZM718 24.5C718 22.57 719.57 21 721.5 21C723.43 21 725 22.57 725 24.5C725 26.43 723.43 28 721.5 28C719.57 28 718 26.43 718 24.5ZM703 24.5C703 22.57 704.57 21 706.5 21C708.43 21 710 22.57 710 24.5C710 26.43 708.43 28 706.5 28C704.57 28 703 26.43 703 24.5ZM688 24.5C688 22.57 689.57 21 691.5 21C693.43 21 695 22.57 695 24.5C695 26.43 693.43 28 691.5 28C689.57 28 688 26.43 688 24.5ZM673 24.5C673 22.57 674.57 21 676.5 21C678.43 21 680 22.57 680 24.5C680 26.43 678.43 28 676.5 28C674.57 28 673 26.43 673 24.5ZM658 24.5C658 22.57 659.57 21 661.5 21C663.43 21 665 22.57 665 24.5C665 26.43 663.43 28 661.5 28C659.57 28 658 26.43 658 24.5Z" fill="#2F5D50"/>
<path d="M285 24.5C285 22.57 286.57 21 288.5 21C290.43 21 292 22.57 292 24.5C292 26.43 290.43 28 288.5 28C286.57 28 285 26.43 285 24.5ZM270 24.5C270 22.57 271.57 21 273.5 21C275.43 21 277 22.57 277 24.5C277 26.43 275.43 28 273.5 28C271.57 28 270 26.43 270 24.5ZM255 24.5C255 22.57 256.57 21 258.5 21C260.43 21 262 22.57 262 24.5C262 26.43 260.43 28 258.5 28C256.57 28 255 26.43 255 24.5ZM240 24.5C240 22.57 241.57 21 243.5 21C245.43 21 247 22.57 247 24.5C247 26.43 245.43 28 243.5 28C241.57 28 240 26.43 240 24.5ZM225 24.5C225 22.57 226.57 21 228.5 21C230.43 21 232 22.57 232 24.5C232 26.43 230.43 28 228.5 28C226.57 28 225 26.43 225 24.5ZM210 24.5C210 22.57 211.57 21 213.5 21C215.43 21 217 22.57 217 24.5C217 26.43 215.43 28 213.5 28C211.57 28 210 26.43 210 24.5ZM195 24.5C195 22.57 196.57 21 198.5 21C200.43 21 202 22.57 202 24.5C202 26.43 200.43 28 198.5 28C196.57 28 195 26.43 195 24.5ZM180 24.5C180 22.57 181.57 21 183.5 21C185.43 21 187 22.57 187 24.5C187 26.43 185.43 28 183.5 28C181.57 28 180 26.43 180 24.5ZM165 24.5C165 22.57 166.57 21 168.5 21C170.43 21 172 22.57 172 24.5C172 26.43 170.43 28 168.5 28C166.57 28 165 26.43 165 24.5ZM150 24.5C150 22.57 151.57 21 153.5 21C155.43 21 157 22.57 157 24.5C157 26.43 155.43 28 153.5 28C151.57 28 150 26.43 150 24.5ZM135 24.5C135 22.57 136.57 21 138.5 21C140.43 21 142 22.57 142 24.5C142 26.43 140.43 28 138.5 28C136.57 28 135 26.43 135 24.5ZM120 24.5C120 22.57 121.57 21 123.5 21C125.43 21 127 22.57 127 24.5C127 26.43 125.43 28 123.5 28C121.57 28 120 26.43 120 24.5ZM105 24.5C105 22.57 106.57 21 108.5 21C110.43 21 112 22.57 112 24.5C112 26.43 110.43 28 108.5 28C106.57 28 105 26.43 105 24.5ZM90 24.5C90 22.57 91.57 21 93.5 21C95.43 21 97 22.57 97 24.5C97 26.43 95.43 28 93.5 28C91.57 28 90 26.43 90 24.5ZM75 24.5C75 22.57 76.57 21 78.5 21C80.43 21 82 22.57 82 24.5C82 26.43 80.43 28 78.5 28C76.57 28 75 26.43 75 24.5ZM60 24.5C60 22.57 61.57 21 63.5 21C65.43 21 67 22.57 67 24.5C67 26.43 65.43 28 63.5 28C61.57 28 60 26.43 60 24.5ZM45 24.5C45 22.57 46.57 21 48.5 21C50.43 21 52 22.57 52 24.5C52 26.43 50.43 28 48.5 28C46.57 28 45 26.43 45 24.5ZM30 24.5C30 22.57 31.57 21 33.5 21C35.43 21 37 22.57 37 24.5C37 26.43 35.43 28 33.5 28C31.57 28 30 26.43 30 24.5ZM15 24.5C15 22.57 16.57 21 18.5 21C20.43 21 22 22.57 22 24.5C22 26.43 20.43 28 18.5 28C16.57 28 15 26.43 15 24.5ZM0 24.5C0 22.57 1.57 21 3.5 21C5.43 21 7 22.57 7 24.5C7 26.43 5.43 28 3.5 28C1.57 28 0 26.43 0 24.5Z" fill="#2F5D50"/>
</svg>
