<svg width="290" height="172" viewBox="0 0 290 172" fill="none" xmlns="http://www.w3.org/2000/svg">
<rect x="0.5" y="0.5" width="289" height="171" fill="#FDFDFD" stroke="#181818"/>
<path d="M109.079 51.2204C124.799 21.9609 143.126 25.8005 166.431 38.5923C189.736 51.3841 209.196 68.2849 193.475 97.5444C177.755 126.804 135.46 153.916 114.047 142.163C89.8142 128.862 93.3578 80.4799 109.079 51.2204Z" fill="#D9333F"/>
<path d="M189.04 56.1137C187.894 58.2467 178.609 53.1741 176.746 54.5358C174.883 55.8976 176.937 66.2906 174.613 66.7978C172.29 67.3049 169.637 56.9961 167.262 56.6131C165.025 56.2584 159.504 65.3271 157.356 64.1481C155.208 62.9691 159.769 53.3617 158.261 51.6489C156.655 49.8347 146.613 53.0813 145.808 50.9161C145.003 48.7509 154.733 44.7902 154.844 42.4552C154.956 40.1201 145.709 34.9978 146.86 32.8789C148.01 30.76 156.554 36.4649 158.264 35.5856C160.097 34.632 160.226 24.4101 162.491 24.6262C164.442 24.8118 164.191 35.5453 166.335 36.3801C168.219 37.1073 174.534 28.5338 176.477 29.6121C178.42 30.6903 174.553 40.6309 176.118 41.7971C177.937 43.1497 186.755 37.2011 187.894 38.7232C189.229 40.4946 180.607 45.7716 180.712 47.8358C180.804 49.681 190.186 53.9806 189.045 56.1045L189.04 56.1137Z" fill="#2F5D50"/>
<path d="M132.633 41.5784C132.037 42.1284 131.106 42.093 130.545 41.4844C129.983 40.8758 130.021 39.9443 130.622 39.3847C131.223 38.8251 133.235 37.8748 133.786 38.4781C134.338 39.0814 133.229 41.0285 132.633 41.5784Z" fill="#FBFAF5"/>
<path d="M138.761 55.0706C138.165 55.6206 137.234 55.5852 136.673 54.9766C136.111 54.368 136.149 53.4365 136.75 52.8769C137.351 52.3173 139.363 51.367 139.914 51.9703C140.466 52.5736 139.357 54.5207 138.761 55.0706Z" fill="#FBFAF5"/>
<path d="M151.204 66.6429C150.732 67.3112 149.814 67.459 149.151 66.9945C148.487 66.53 148.328 65.591 148.785 64.9271C149.242 64.2633 151.026 62.8994 151.684 63.3736C152.343 63.8477 151.66 65.979 151.198 66.6526L151.204 66.6429Z" fill="#FBFAF5"/>
<path d="M119.301 54.8998C118.658 55.3986 117.724 55.2743 117.238 54.6192C116.752 53.9642 116.854 53.0303 117.501 52.5466C118.149 52.0628 120.234 51.2782 120.735 51.9289C121.236 52.5796 119.949 54.4161 119.311 54.9051L119.301 54.8998Z" fill="#FBFAF5"/>
<path d="M125.505 69.5899C124.862 70.0886 123.928 69.9644 123.442 69.3093C122.956 68.6542 123.058 67.7204 123.705 67.2366C124.353 66.7529 126.438 65.9683 126.939 66.619C127.44 67.2697 126.153 69.1061 125.515 69.5952L125.505 69.5899Z" fill="#FBFAF5"/>
<path d="M137.613 81.1165C137.089 81.7433 136.154 81.8065 135.536 81.2796C134.919 80.7527 134.839 79.8069 135.358 79.1898C135.877 78.5727 137.774 77.3711 138.387 77.9077C138.999 78.4443 138.132 80.4994 137.608 81.1262L137.613 81.1165Z" fill="#FBFAF5"/>
<path d="M167.141 74.8009C166.907 75.5867 166.093 76.0297 165.314 75.8027C164.536 75.5758 164.084 74.7392 164.304 73.9578C164.524 73.1763 165.768 71.3033 166.542 71.54C167.315 71.7767 167.361 74.0194 167.136 74.8106L167.141 74.8009Z" fill="#FBFAF5"/>
<path d="M182.326 77.7961C182.204 78.6058 181.456 79.1599 180.65 79.0306C179.843 78.9013 179.287 78.1448 179.409 77.335C179.531 76.5253 180.505 74.504 181.311 74.6333C182.117 74.7626 182.449 76.9863 182.326 77.7961Z" fill="#FBFAF5"/>
<path d="M197.146 75.0413C197.343 75.8379 196.863 76.6385 196.072 76.8305C195.281 77.0225 194.482 76.5334 194.285 75.7367C194.088 74.9401 194.219 72.6959 195.009 72.5039C195.8 72.3119 196.949 74.2446 197.146 75.0413Z" fill="#FBFAF5"/>
<path d="M154.737 90.4259C154.429 91.1843 153.574 91.5419 152.817 91.2269C152.061 90.9119 151.699 90.0491 152.006 89.2907C152.314 88.5323 153.72 86.7987 154.477 87.1137C155.234 87.4287 155.044 89.6675 154.737 90.4259Z" fill="#FBFAF5"/>
<path d="M170.719 95.5669C170.519 96.3589 169.714 96.8319 168.925 96.6243C168.136 96.4166 167.659 95.6038 167.859 94.8118C168.06 94.0198 169.236 92.1097 170.02 92.327C170.804 92.5443 170.914 94.7845 170.714 95.5765L170.719 95.5669Z" fill="#FBFAF5"/>
<path d="M116.907 88.5938C116.292 89.1331 115.366 89.0634 114.825 88.4408C114.284 87.8181 114.346 86.8876 114.961 86.3483C115.576 85.809 117.611 84.9089 118.148 85.5166C118.684 86.1243 117.527 88.0447 116.912 88.5841L116.907 88.5938Z" fill="#FBFAF5"/>
<path d="M130.347 101.252C129.861 101.9 128.939 102.033 128.286 101.549C127.632 101.065 127.498 100.127 127.974 99.4735C128.451 98.8202 130.257 97.5066 130.92 97.9957C131.583 98.4849 130.833 100.604 130.342 101.261L130.347 101.252Z" fill="#FBFAF5"/>
<path d="M144.689 109.415C144.435 110.191 143.598 110.608 142.825 110.347C142.052 110.085 141.63 109.24 141.884 108.465C142.138 107.69 143.44 105.873 144.213 106.134C144.985 106.396 144.938 108.65 144.684 109.425L144.689 109.415Z" fill="#FBFAF5"/>
<path d="M163.001 113.054C162.844 113.857 162.077 114.376 161.272 114.222C160.467 114.068 159.95 113.284 160.097 112.475C160.244 111.666 161.294 109.687 162.095 109.851C162.895 110.014 163.148 112.245 162.991 113.049L163.001 113.054Z" fill="#FBFAF5"/>
<path d="M185.893 94.0732C186.006 94.8866 185.444 95.63 184.646 95.7427C183.848 95.8555 183.095 95.2794 182.976 94.4757C182.858 93.672 183.214 91.4506 184.022 91.3431C184.83 91.2357 185.785 93.2748 185.898 94.0882L185.893 94.0732Z" fill="#FBFAF5"/>
<path d="M114.917 111.642C116.175 112.332 117.743 111.871 118.42 110.611C119.097 109.351 118.626 107.77 117.368 107.079C116.11 106.389 114.542 106.85 113.865 108.11C113.188 109.37 113.659 110.951 114.917 111.642Z" fill="#181818"/>
<path d="M128.533 119.093C129.792 119.784 131.36 119.322 132.037 118.062C132.714 116.802 132.243 115.221 130.985 114.53C129.727 113.84 128.158 114.302 127.481 115.562C126.804 116.821 127.275 118.403 128.533 119.093Z" fill="#181818"/>
<path d="M123.795 122.456C123.12 123.71 120.542 124.607 117.612 122.999C114.682 121.392 114.017 118.728 114.696 117.463C115.375 116.199 117.129 116.837 120.06 118.445C122.99 120.052 124.469 121.201 123.795 122.456Z" fill="#181818"/>
</svg>
