<svg width="200" height="120" viewBox="0 0 200 120" fill="none" xmlns="http://www.w3.org/2000/svg">
<rect x="0.5" y="0.5" width="199" height="119" fill="#FDFDFD" stroke="#181818"/>
<path d="M82.8419 36.2626C93.7206 16.0059 106.342 18.6305 122.379 27.4366C138.416 36.2428 151.797 47.8963 140.918 68.1531C130.039 88.4098 100.854 107.226 86.119 99.1346C69.4439 89.978 71.9632 56.5193 82.8419 36.2626Z" fill="#D9333F"/>
<path d="M137.881 39.5722C137.087 41.0497 130.695 37.556 129.408 38.501C128.122 39.4461 129.521 46.6323 127.918 46.987C126.316 47.3417 124.504 40.2147 122.867 39.9536C121.325 39.712 117.505 45.9946 116.026 45.1825C114.547 44.3704 117.707 37.7168 116.67 36.5344C115.566 35.2821 108.638 37.5446 108.087 36.0481C107.535 34.5516 114.249 31.7956 114.33 30.1801C114.41 28.5646 108.044 25.0365 108.841 23.5688C109.637 22.101 115.518 26.0334 116.698 25.4224C117.963 24.7596 118.068 17.6882 119.629 17.834C120.974 17.9592 120.784 25.3847 122.26 25.9586C123.558 26.4586 127.925 20.5173 129.263 21.26C130.601 22.0027 127.918 28.8856 128.996 29.6898C130.248 30.6225 136.336 26.4929 137.118 27.544C138.036 28.7671 132.084 32.4318 132.153 33.8596C132.214 35.1359 138.674 38.0948 137.884 39.5659L137.881 39.5722Z" fill="#2F5D50"/>
<path d="M98.9983 29.5568C98.587 29.9379 97.9451 29.9148 97.5594 29.495C97.1737 29.0751 97.201 28.4312 97.6158 28.0435C98.0306 27.6557 99.4181 26.9958 99.7972 27.412C100.176 27.8283 99.4095 29.1758 98.9983 29.5568Z" fill="#FBFAF5"/>
<path d="M103.224 38.8813C102.813 39.2623 102.171 39.2393 101.785 38.8194C101.4 38.3996 101.427 37.7557 101.842 37.3679C102.257 36.9802 103.644 36.3203 104.023 36.7365C104.402 37.1527 103.636 38.5003 103.224 38.8813Z" fill="#FBFAF5"/>
<path d="M111.806 46.8784C111.48 47.341 110.848 47.4446 110.391 47.1245C109.935 46.8044 109.827 46.1556 110.143 45.6961C110.458 45.2365 111.689 44.2911 112.142 44.6179C112.595 44.9447 112.122 46.4188 111.803 46.8851L111.806 46.8784Z" fill="#FBFAF5"/>
<path d="M89.8039 38.7634C89.36 39.1091 88.7167 39.0247 88.3827 38.5725C88.0488 38.1204 88.1201 37.4747 88.5671 37.1394C89.014 36.804 90.4519 36.2585 90.7961 36.7076C91.1403 37.1566 90.2509 38.428 89.8105 38.7671L89.8039 38.7634Z" fill="#FBFAF5"/>
<path d="M94.0832 48.9158C93.6393 49.2615 92.996 49.177 92.662 48.7249C92.3281 48.2728 92.3994 47.6271 92.8464 47.2917C93.2933 46.9563 94.7312 46.4109 95.0754 46.8599C95.4196 47.309 94.5302 48.5804 94.0898 48.9194L94.0832 48.9158Z" fill="#FBFAF5"/>
<path d="M102.433 56.8813C102.07 57.3153 101.426 57.3604 101.002 56.9971C100.577 56.6338 100.523 55.9802 100.882 55.5529C101.24 55.1256 102.549 54.2922 102.97 54.6621C103.391 55.0321 102.791 56.4539 102.429 56.8879L102.433 56.8813Z" fill="#FBFAF5"/>
<path d="M122.798 52.516C122.636 53.0596 122.075 53.367 121.538 53.2113C121.002 53.0555 120.692 52.478 120.845 51.9375C120.997 51.397 121.857 50.1006 122.39 50.263C122.923 50.4254 122.951 51.9756 122.795 52.5227L122.798 52.516Z" fill="#FBFAF5"/>
<path d="M133.271 54.5859C133.185 55.1458 132.669 55.5299 132.114 55.4418C131.558 55.3536 131.176 54.8315 131.261 54.2716C131.347 53.7117 132.021 52.313 132.576 52.4012C133.131 52.4894 133.356 54.026 133.271 54.5859Z" fill="#FBFAF5"/>
<path d="M143.492 52.6814C143.627 53.2319 143.294 53.7862 142.749 53.9201C142.204 54.0541 141.654 53.7171 141.519 53.1665C141.384 52.616 141.478 51.064 142.023 50.9301C142.568 50.7961 143.357 52.1308 143.492 52.6814Z" fill="#FBFAF5"/>
<path d="M114.243 63.3145C114.03 63.8392 113.44 64.0876 112.919 63.871C112.398 63.6544 112.15 63.0586 112.363 62.5339C112.576 62.0092 113.548 60.8088 114.069 61.0254C114.589 61.242 114.456 62.7898 114.243 63.3145Z" fill="#FBFAF5"/>
<path d="M125.266 66.8673C125.127 67.4151 124.572 67.7432 124.028 67.6009C123.485 67.4585 123.158 66.8974 123.297 66.3497C123.436 65.8019 124.249 64.4799 124.789 64.6289C125.329 64.7779 125.401 66.3262 125.262 66.874L125.266 66.8673Z" fill="#FBFAF5"/>
<path d="M88.1536 62.0491C87.7291 62.4229 87.0913 62.3761 86.7194 61.9465C86.3475 61.5169 86.3917 60.8736 86.8163 60.4999C87.2408 60.1261 88.6441 59.5009 89.0129 59.9202C89.3817 60.3394 88.5818 61.6687 88.1572 62.0424L88.1536 62.0491Z" fill="#FBFAF5"/>
<path d="M97.4225 70.7964C97.0869 71.245 96.4514 71.3382 96.002 71.0048C95.5526 70.6713 95.4616 70.0231 95.7906 69.5709C96.1196 69.1186 97.3663 68.2079 97.8224 68.545C98.2784 68.8822 97.7582 70.3478 97.4189 70.8031L97.4225 70.7964Z" fill="#FBFAF5"/>
<path d="M107.314 76.438C107.138 76.9743 106.56 77.264 106.028 77.0846C105.496 76.9051 105.207 76.3215 105.383 75.7853C105.559 75.249 106.458 73.9915 106.99 74.171C107.522 74.3504 107.486 75.9085 107.31 76.4447L107.314 76.438Z" fill="#FBFAF5"/>
<path d="M119.942 78.9526C119.833 79.5083 119.304 79.868 118.75 79.7628C118.195 79.6576 117.84 79.116 117.943 78.5567C118.045 77.9974 118.772 76.6279 119.323 76.7398C119.874 76.8517 120.045 78.3933 119.936 78.949L119.942 78.9526Z" fill="#FBFAF5"/>
<path d="M135.731 65.8346C135.808 66.3968 135.42 66.9116 134.87 66.9908C134.319 67.07 133.801 66.6727 133.721 66.1172C133.64 65.5617 133.889 64.0254 134.446 63.9499C135.003 63.8743 135.658 65.2828 135.735 65.845L135.731 65.8346Z" fill="#FBFAF5"/>
<path d="M86.7801 77.9809C87.6463 78.4565 88.7282 78.135 89.1966 77.2627C89.6651 76.3904 89.3427 75.2978 88.4765 74.8221C87.6104 74.3465 86.5285 74.6681 86.06 75.5403C85.5916 76.4126 85.914 77.5053 86.7801 77.9809Z" fill="#181818"/>
<path d="M96.1717 83.1307C97.0379 83.6063 98.1198 83.2848 98.5882 82.4125C99.0567 81.5402 98.7343 80.4475 97.8681 79.9719C97.002 79.4963 95.9201 79.8178 95.4516 80.6901C94.9832 81.5624 95.3056 82.6551 96.1717 83.1307Z" fill="#181818"/>
<path d="M92.903 85.4459C92.436 86.3154 90.656 86.9404 88.6377 85.8323C86.6194 84.7242 86.1651 82.8811 86.6357 82.0048C87.1063 81.1286 88.3151 81.5671 90.3334 82.6752C92.3517 83.7834 93.3701 84.5764 92.903 85.4459Z" fill="#181818"/>
</svg>
