<svg width="186" height="66" viewBox="0 0 186 66" fill="none" xmlns="http://www.w3.org/2000/svg">
<path d="M16.512 47.4831C19.808 50.5231 27.136 55.0351 28.896 54.9071L25.792 60.3151C25.792 60.3151 18.976 54.5231 14.944 50.7791C14.944 50.7791 11.712 58.2031 2.976 59.3871C9.952 51.4831 13.216 45.1791 13.408 38.7791L18.816 39.5791C18.816 39.5791 17.92 44.5391 16.512 47.4831ZM33.792 45.0511C37.088 41.6591 38.4 37.8191 38.72 35.7711L42.816 37.0511C42.816 37.0511 42.4 38.2671 41.76 39.3231C41.76 39.3231 50.592 39.2591 52.608 38.9391L52.48 42.4271C52.48 42.4271 43.424 42.0751 39.776 42.1711C39.776 42.1711 37.632 45.1151 33.792 45.0511ZM41.184 46.6191L40.992 43.7391C40.992 43.7391 48.544 44.0591 49.408 43.8991L49.248 46.3631C44.288 46.6831 44.288 46.6831 41.184 46.6191ZM50.336 61.1471C50.336 61.1471 48.352 56.2191 49.152 50.9391C49.152 50.9391 38.976 51.3231 36.416 51.1631L36.32 48.1871C36.32 48.1871 49.824 48.3151 51.936 48.1231C51.936 48.1231 51.136 54.8111 51.936 57.6911C51.936 57.6911 53.12 58.3951 55.68 57.5951L56 55.2911C56 55.2911 57.312 58.1071 58.272 58.7471C56.832 61.4671 52.96 62.0751 50.336 61.1471ZM46.08 58.2991L44.224 61.0191C44.224 61.0191 42.56 59.0351 41.664 58.2351C41.664 58.2351 39.04 61.1791 35.104 60.5391C35.104 60.5391 38.048 58.7471 39.2 56.9231C39.2 56.9231 37.92 55.9631 36.512 55.0991L38.016 53.1151C38.016 53.1151 39.872 54.3631 40.736 54.9391C40.736 54.9391 42.112 53.2751 42.688 52.3791L45.184 54.2351C45.184 54.2351 44.192 55.7711 42.784 56.5391L46.08 58.2991ZM76.384 53.9151L76.32 39.3231C76.32 39.3231 79.872 39.4511 81.312 39.4511C81.312 39.4511 81.504 57.0831 81.344 58.9391C81.344 58.9391 78.816 59.1311 76.128 59.1311C76.128 59.1311 69.056 48.7311 68.032 47.0351L68.192 58.9391C68.192 58.9391 65.28 59.0991 63.328 59.0031C63.328 59.0031 63.424 46.2351 63.328 39.9951L67.648 39.6751C67.648 39.6751 75.776 52.3471 76.384 53.9151ZM96.9953 43.8671C102.787 43.8351 104.131 48.9231 104.227 51.4831C104.387 55.7711 101.571 59.6431 97.3473 59.7711C92.1953 59.9311 89.1233 56.8591 88.9953 51.7711C88.7713 48.1231 91.2993 43.8991 96.9953 43.8671ZM99.4593 51.8671C99.5553 49.4671 98.5633 48.2831 96.9633 47.9631C95.9713 47.7711 93.4433 48.2511 93.3793 51.2911C93.3153 53.7871 94.4673 55.2911 96.4513 55.3551C98.1153 55.3871 99.3633 53.9471 99.4593 51.8671ZM116.638 58.8111C116.638 58.8111 113.95 58.9391 112.19 58.7471C112.19 58.7471 112.062 55.7391 112.158 54.2351C114.142 54.2351 114.846 54.2991 116.734 54.3311C116.734 54.3311 116.862 57.2431 116.638 58.8111ZM128.577 44.0911C128.577 44.0911 125.441 44.1871 124.737 44.0911C124.737 44.0911 124.769 41.1151 124.929 39.4511C124.929 39.4511 132.065 39.4831 133.121 39.5471C133.121 39.5471 132.993 50.8751 133.505 58.8111C133.505 58.8111 129.089 59.0031 127.937 58.8751C127.937 58.8751 128.641 45.2431 128.577 44.0911Z" fill="#D9333F"/>
<path d="M183 35.804C183.55 35.6565 184.111 35.9962 184.235 36.5512L184.814 39.1333C184.939 39.6911 184.572 40.2399 184.008 40.3373L167.116 43.2586C166.581 43.3511 166.071 43.0003 165.965 42.4681L165.753 41.4003C165.65 40.8838 165.966 40.3762 166.474 40.2397L183 35.804Z" fill="#2F5D50"/>
<path d="M166.952 15.7146C167.236 15.222 167.873 15.0651 168.354 15.3696L170.589 16.7864C171.071 17.0924 171.2 17.7401 170.87 18.2073L160.991 32.2177C160.679 32.6611 160.069 32.7743 159.618 32.4727L158.713 31.8677C158.275 31.575 158.14 30.9929 158.403 30.5367L166.952 15.7146Z" fill="#2F5D50"/>
<path d="M146.565 7.37696C146.564 6.80827 147.038 6.35386 147.606 6.37739L150.25 6.48688C150.821 6.51053 151.256 7.00722 151.204 7.57646L149.654 24.6494C149.605 25.1898 149.134 25.5924 148.592 25.5568L147.506 25.4853C146.981 25.4507 146.572 25.0145 146.572 24.4879L146.565 7.37696Z" fill="#2F5D50"/>
</svg>
