<svg width="357" height="157" viewBox="0 0 357 157" fill="none" xmlns="http://www.w3.org/2000/svg">
<path d="M47.768 50.024C52.712 54.584 63.704 61.352 66.344 61.16L61.688 69.272C61.688 69.272 51.464 60.584 45.416 54.968C45.416 54.968 40.568 66.104 27.464 67.88C37.928 56.024 42.824 46.568 43.112 36.968L51.224 38.168C51.224 38.168 49.88 45.608 47.768 50.024ZM78.968 46.376C83.912 41.288 85.88 35.528 86.36 32.456L92.504 34.376C92.504 34.376 91.88 36.2 90.92 37.784C90.92 37.784 104.168 37.688 107.192 37.208L107 42.44C107 42.44 93.416 41.912 87.944 42.056C87.944 42.056 84.728 46.472 78.968 46.376ZM90.056 48.728L89.768 44.408C89.768 44.408 101.096 44.888 102.392 44.648L102.152 48.344C94.712 48.824 94.712 48.824 90.056 48.728ZM103.784 70.52C103.784 70.52 100.808 63.128 102.008 55.208C102.008 55.208 86.744 55.784 82.904 55.544L82.76 51.08C82.76 51.08 103.016 51.272 106.184 50.984C106.184 50.984 104.984 61.016 106.184 65.336C106.184 65.336 107.96 66.392 111.8 65.192L112.28 61.736C112.28 61.736 114.248 65.96 115.688 66.92C113.528 71 107.72 71.912 103.784 70.52ZM97.4 66.248L94.616 70.328C94.616 70.328 92.12 67.352 90.776 66.152C90.776 66.152 86.84 70.568 80.936 69.608C80.936 69.608 85.352 66.92 87.08 64.184C87.08 64.184 85.16 62.744 83.048 61.448L85.304 58.472C85.304 58.472 88.088 60.344 89.384 61.208C89.384 61.208 91.448 58.712 92.312 57.368L96.056 60.152C96.056 60.152 94.568 62.456 92.456 63.608L97.4 66.248ZM148.136 59.672L148.04 37.784C148.04 37.784 153.368 37.976 155.528 37.976C155.528 37.976 155.816 64.424 155.576 67.208C155.576 67.208 151.784 67.496 147.752 67.496C147.752 67.496 137.144 51.896 135.608 49.352L135.848 67.208C135.848 67.208 131.48 67.448 128.552 67.304C128.552 67.304 128.696 48.152 128.552 38.792L135.032 38.312C135.032 38.312 147.224 57.32 148.136 59.672ZM184.333 44.6C193.021 44.552 195.037 52.184 195.181 56.024C195.421 62.456 191.197 68.264 184.861 68.456C177.133 68.696 172.525 64.088 172.333 56.456C171.997 50.984 175.789 44.648 184.333 44.6ZM188.029 56.6C188.173 53 186.685 51.224 184.285 50.744C182.797 50.456 179.005 51.176 178.909 55.736C178.813 59.48 180.541 61.736 183.517 61.832C186.013 61.88 187.885 59.72 188.029 56.6ZM219.077 67.016C219.077 67.016 215.045 67.208 212.405 66.92C212.405 66.92 212.213 62.408 212.357 60.152C215.333 60.152 216.389 60.248 219.221 60.296C219.221 60.296 219.413 64.664 219.077 67.016ZM242.265 44.936C242.265 44.936 237.561 45.08 236.505 44.936C236.505 44.936 236.553 40.472 236.793 37.976C236.793 37.976 247.497 38.024 249.081 38.12C249.081 38.12 248.889 55.112 249.657 67.016C249.657 67.016 243.033 67.304 241.305 67.112C241.305 67.112 242.361 46.664 242.265 44.936Z" fill="#D9333F"/>
<path d="M36.1148 1.15588C36.0772 0.588432 36.5197 0.103904 37.0883 0.090065L39.7336 0.0256702C40.3051 0.0117606 40.7719 0.478792 40.7577 1.0502L40.3321 18.1881C40.3186 18.7305 39.875 19.1633 39.3324 19.1633H38.2438C37.7172 19.1633 37.2808 18.7548 37.246 18.2294L36.1148 1.15588Z" fill="#2F5D50"/>
<path d="M13.284 12.983C12.8562 12.6083 12.8265 11.9528 13.2187 11.541L15.0438 9.62488C15.438 9.21099 16.0983 9.21115 16.4923 9.62523L28.3097 22.0445C28.6837 22.4376 28.676 23.0573 28.2923 23.4409L27.5226 24.2107C27.1502 24.5831 26.5528 24.6028 26.1567 24.2559L13.284 12.983Z" fill="#2F5D50"/>
<path d="M1.13432 31.3554C0.576477 31.2449 0.223 30.692 0.356777 30.1393L0.979254 27.5674C1.11371 27.0118 1.68565 26.6818 2.23391 26.8434L18.6777 31.6901C19.1982 31.8435 19.5013 32.384 19.3609 32.9081L19.0791 33.9596C18.9428 34.4683 18.4354 34.7841 17.9188 34.6817L1.13432 31.3554Z" fill="#2F5D50"/>
<path d="M36.1148 1.15588C36.0772 0.588432 36.5197 0.103904 37.0883 0.090065L39.7336 0.0256702C40.3051 0.0117606 40.7719 0.478792 40.7577 1.0502L40.3321 18.1881C40.3186 18.7305 39.875 19.1633 39.3324 19.1633H38.2438C37.7172 19.1633 37.2808 18.7548 37.246 18.2294L36.1148 1.15588Z" fill="#2F5D50"/>
<path d="M13.284 12.983C12.8562 12.6083 12.8265 11.9528 13.2187 11.541L15.0438 9.62488C15.438 9.21099 16.0983 9.21115 16.4923 9.62523L28.3097 22.0445C28.6837 22.4376 28.676 23.0573 28.2923 23.4409L27.5226 24.2107C27.1502 24.5831 26.5528 24.6028 26.1567 24.2559L13.284 12.983Z" fill="#2F5D50"/>
<path d="M1.13432 31.3554C0.576477 31.2449 0.223 30.692 0.356777 30.1393L0.979254 27.5674C1.11371 27.0118 1.68565 26.6818 2.23391 26.8434L18.6777 31.6901C19.1982 31.8435 19.5013 32.384 19.3609 32.9081L19.0791 33.9596C18.9428 34.4683 18.4354 34.7841 17.9188 34.6817L1.13432 31.3554Z" fill="#2F5D50"/>
<path d="M116.12 119.72C116.44 122.64 112.48 123.44 111.92 120.68C111.28 117.48 109.64 114.4 107.48 112.92C105.56 111.6 107.72 108.64 110.12 110.44C112.96 112.56 115.72 116.32 116.12 119.72ZM98.64 126.32C96.08 130.48 92.52 130.12 90.28 127.72C87.4 124.6 86.08 119.96 85.76 114.92C85.6 112.64 85.52 111.92 85.56 110.48C85.64 107.96 89.52 107.44 89.64 110.44C89.72 112 89.56 112.08 89.64 113.92C89.8 118.12 90.56 122.08 92.8 124.24C93.84 125.24 94.36 125.36 95.24 124.16C95.72 123.48 96.28 122.44 96.56 121.8C97.64 119.48 100.96 121.16 100.2 123.24C99.8 124.36 99.08 125.6 98.64 126.32ZM137.56 111.36C136.92 114.88 136.32 118.4 136.04 119.8C138.24 118.2 141 116.76 143.96 116.36C152.36 115.24 156.16 122.64 151.12 128.64C148.92 131.28 144.64 133.32 140.36 133.88C136.52 134.4 136.32 130.4 139.32 130.04C142.76 129.64 146 128.32 147.64 126.44C150.56 123.16 149.88 119.36 144.44 119.8C141.92 120 139.08 121.68 137.4 123.48C136.68 124.24 136.48 125.4 135.12 125.76C133.36 126.24 132 124.52 132.28 122.48C132.6 120.2 133.16 116.12 133.76 112.2C132.56 112.32 131.32 112.28 130 112.08C127.04 111.6 127.36 107.56 130.56 108.28C131.68 108.52 133 108.56 134.36 108.32C134.76 105.76 135.16 103.56 135.44 102.32C136.08 99.6 140.04 100.8 139.28 103.28C139 104.2 138.72 105.52 138.4 107C139.12 106.64 139.84 106.2 140.52 105.72C143.28 103.76 145.8 107.76 142.08 109.48C140.4 110.28 138.92 110.88 137.56 111.36ZM194.8 104.8C194.32 104.12 192.48 102.6 191.72 102.2C189.76 101.16 191.56 98.88 193.36 99.72C194.4 100.2 196.28 101.48 197.08 102.48C198.48 104.28 195.96 106.48 194.8 104.8ZM192.48 105.2C193.84 107.04 191.24 109.2 190.12 107.48C189.68 106.8 187.92 105.16 187.16 104.72C185.24 103.64 187.08 101.44 188.84 102.36C189.84 102.88 191.72 104.16 192.48 105.2ZM185.52 111.52C181.8 110.72 177.56 110.64 173.64 111.4C170.48 112 169.96 107.76 173.52 107.24C177.32 106.68 182.96 106.64 186.28 107.36C189.64 108.08 188.76 112.2 185.52 111.52ZM189.44 131C181.52 133.48 171.92 131.6 169.16 127.72C167.72 125.68 170.32 122.92 172.48 125.12C175.88 128.6 182.36 128.32 188.4 126.6C191.72 125.68 192.68 130 189.44 131ZM221.92 109.56C222.36 109.96 222.6 110.6 222.48 111.4C221.84 116.48 218.24 124.04 214.4 127.6C211.32 130.44 207.96 128.88 206.2 125.44C203.68 120.48 206.36 113.04 211.72 109.32C216.64 105.92 223.96 105.36 229 108.4C235.2 112.12 236.2 119.48 232.72 125.2C230.84 128.28 226.92 130.76 222.96 131.8C219.44 132.72 218.2 128.68 221.64 127.88C224.68 127.2 227.76 125.48 229.08 123.4C231.92 118.92 230.84 113.68 226.88 111.16C225.32 110.16 223.64 109.68 221.92 109.56ZM218.76 109.76C216.92 110.16 215.12 111 213.6 112.16C209.88 115.04 207.88 120.36 209.56 123.44C210.16 124.6 211.2 125.2 212.2 124.32C215.2 121.68 218 115.32 218.4 111C218.44 110.52 218.56 110.08 218.76 109.76ZM272.72 104.56C272.16 103.96 270.2 102.64 269.4 102.32C267.36 101.52 268.8 99.08 270.68 99.68C271.76 100.04 273.8 101.04 274.72 101.96C276.32 103.56 274.08 106.08 272.72 104.56ZM269.04 108.12C268.52 107.48 266.56 106.08 265.76 105.72C263.72 104.88 265.32 102.48 267.16 103.16C268.24 103.56 270.24 104.6 271.12 105.56C272.68 107.24 270.36 109.68 269.04 108.12ZM260.28 113.08C259.56 113.88 258.16 114.12 257.08 113C255.84 111.72 254.24 110.56 252.72 109.92C250.44 109 252.04 105.44 254.76 106.64C256.52 107.44 258.56 108.6 260.08 109.96C261.16 110.92 261 112.28 260.28 113.08ZM275.72 111.96C270.6 121.12 261.52 129.68 252.44 132.68C249.28 133.72 247.96 129.4 251.12 128.56C259.08 126.4 267.96 117.6 272.16 109.64C273.48 107.16 277.48 108.8 275.72 111.96ZM255.52 119.44C255 120.4 253.76 120.96 252.44 120.12C250.96 119.16 249.12 118.36 247.48 118.08C245.08 117.68 245.84 113.88 248.76 114.44C250.64 114.8 252.8 115.44 254.6 116.44C255.88 117.12 256.04 118.52 255.52 119.44ZM303.577 117.88L303.617 117.84C301.977 118.32 299.617 119.12 297.137 120C298.337 124.04 299.777 128.6 300.737 131.24C301.817 134.16 298.137 135.4 297.297 132.6C296.497 129.88 295.137 125.28 293.897 121.16C292.217 121.76 290.657 122.36 289.377 122.84C287.017 123.72 286.017 120.36 288.257 119.6C289.657 119.12 291.217 118.56 292.937 117.96C292.457 116.4 292.057 115.08 291.737 114.08C291.297 112.76 291.977 111.88 292.897 111.68C293.737 111.48 294.777 111.96 295.097 113.04C295.377 113.96 295.777 115.28 296.217 116.84C298.857 115.96 301.617 115.04 304.297 114.2C306.297 113.6 308.777 114.68 307.937 117.16C307.017 119.88 305.217 122.24 303.217 124C300.937 126 298.697 123.08 300.737 121.4C301.857 120.52 302.977 119.16 303.577 117.88ZM345.086 127.8C339.926 129.24 331.446 131.04 325.246 132.08C322.246 132.56 321.286 128.48 324.486 128.04C325.126 127.96 325.846 127.88 326.526 127.76C328.486 123.6 332.686 112.52 333.686 107.52C334.366 104.16 338.846 105.28 338.006 108.36C336.806 112.72 333.446 121.56 331.126 126.96C335.286 126.2 339.686 125.24 342.806 124.48C341.766 123.12 340.646 121.96 339.766 121.2C337.926 119.6 340.526 116.8 342.766 118.8C344.686 120.52 348.846 124.6 350.126 128.2C350.606 129.56 349.766 130.72 348.846 131.12C347.886 131.52 346.646 131.2 346.126 129.92C345.846 129.24 345.486 128.52 345.086 127.8Z" fill="#181818"/>
<path d="M40.0552 100.163C46.0916 89.0308 53.0949 90.4731 61.9936 95.3123C70.8924 100.152 78.3174 106.556 72.2809 117.687C66.2445 128.819 50.0499 139.159 41.8737 134.713C32.6208 129.681 34.0187 111.294 40.0552 100.163Z" fill="#D9333F"/>
<path d="M70.5956 101.981C70.1553 102.793 66.6083 100.873 65.8944 101.393C65.1805 101.912 65.9567 105.861 65.0676 106.056C64.1785 106.251 63.173 102.334 62.2647 102.191C61.4092 102.058 59.2894 105.511 58.4688 105.064C57.6482 104.618 59.4013 100.962 58.8261 100.312C58.2133 99.6237 54.3693 100.867 54.0633 100.045C53.7573 99.2223 57.4827 97.7078 57.5274 96.8201C57.572 95.9323 54.0398 93.9935 54.4817 93.1869C54.9236 92.3803 58.1868 94.5413 58.8416 94.2055C59.5434 93.8413 59.602 89.9554 60.4681 90.0355C61.2142 90.1043 61.1086 94.1848 61.9282 94.5002C62.6482 94.7749 65.0715 91.51 65.8137 91.9181C66.556 92.3263 65.0677 96.1087 65.6655 96.5506C66.3601 97.0631 69.7385 94.7938 70.1727 95.3714C70.6817 96.0435 67.3788 98.0574 67.4171 98.842C67.451 99.5434 71.0358 101.169 70.5974 101.978L70.5956 101.981Z" fill="#2F5D50"/>
<path d="M49.0213 96.4773C48.7931 96.6866 48.4367 96.6737 48.2224 96.4429C48.0082 96.2121 48.0231 95.8583 48.2533 95.6454C48.4835 95.4325 49.2536 95.0704 49.4642 95.2992C49.6747 95.528 49.2495 96.2681 49.0213 96.4773Z" fill="#FBFAF5"/>
<path d="M51.366 101.601C51.1378 101.811 50.7814 101.798 50.5672 101.567C50.3529 101.336 50.3678 100.982 50.598 100.77C50.8282 100.557 51.5983 100.195 51.8089 100.423C52.0195 100.652 51.5942 101.392 51.366 101.601Z" fill="#FBFAF5"/>
<path d="M56.1279 105.996C55.9471 106.25 55.596 106.307 55.3424 106.131C55.0888 105.955 55.0288 105.598 55.2039 105.346C55.379 105.094 56.0621 104.575 56.3137 104.754C56.5653 104.934 56.303 105.744 56.1259 106L56.1279 105.996Z" fill="#FBFAF5"/>
<path d="M43.9192 101.537C43.6729 101.726 43.3157 101.68 43.1302 101.431C42.9447 101.183 42.984 100.828 43.2321 100.644C43.4801 100.46 44.2782 100.161 44.4694 100.407C44.6606 100.654 44.1672 101.353 43.9229 101.539L43.9192 101.537Z" fill="#FBFAF5"/>
<path d="M46.2937 107.116C46.0474 107.306 45.6902 107.259 45.5047 107.01C45.3192 106.762 45.3586 106.407 45.6066 106.223C45.8546 106.039 46.6527 105.74 46.8439 105.987C47.0351 106.233 46.5417 106.932 46.2974 107.118L46.2937 107.116Z" fill="#FBFAF5"/>
<path d="M50.9269 111.493C50.7259 111.731 50.3683 111.756 50.1324 111.556C49.8965 111.357 49.8665 110.997 50.0655 110.763C50.2645 110.528 50.9907 110.071 51.2246 110.274C51.4586 110.477 51.1259 111.258 50.9249 111.497L50.9269 111.493Z" fill="#FBFAF5"/>
<path d="M62.2277 109.094C62.1375 109.393 61.8261 109.562 61.5283 109.476C61.2306 109.39 61.0584 109.073 61.143 108.776C61.2275 108.479 61.7045 107.767 62.0002 107.856C62.296 107.946 62.3122 108.797 62.2257 109.098L62.2277 109.094Z" fill="#FBFAF5"/>
<path d="M68.0385 110.232C67.9912 110.539 67.7047 110.75 67.3964 110.702C67.0882 110.653 66.8757 110.366 66.923 110.058C66.9703 109.751 67.3438 108.983 67.6521 109.031C67.9604 109.08 68.0858 109.924 68.0385 110.232Z" fill="#FBFAF5"/>
<path d="M73.71 109.185C73.7849 109.488 73.6007 109.792 73.2981 109.866C72.9955 109.939 72.6898 109.754 72.6149 109.451C72.54 109.149 72.5914 108.296 72.894 108.223C73.1967 108.149 73.6352 108.883 73.71 109.185Z" fill="#FBFAF5"/>
<path d="M57.4798 115.028C57.3617 115.317 57.0344 115.453 56.7452 115.334C56.456 115.215 56.318 114.887 56.4361 114.599C56.5541 114.311 57.0933 113.651 57.3825 113.771C57.6717 113.89 57.5978 114.74 57.4798 115.028Z" fill="#FBFAF5"/>
<path d="M63.5966 116.981C63.5195 117.282 63.2114 117.462 62.9097 117.383C62.608 117.305 62.4262 116.997 62.5033 116.696C62.5804 116.395 63.0316 115.669 63.3313 115.751C63.631 115.833 63.6717 116.684 63.5946 116.984L63.5966 116.981Z" fill="#FBFAF5"/>
<path d="M43.0036 114.333C42.768 114.538 42.414 114.512 42.2074 114.276C42.0008 114.04 42.0251 113.686 42.2607 113.481C42.4963 113.276 43.2751 112.933 43.48 113.163C43.6849 113.394 43.2412 114.124 43.0056 114.329L43.0036 114.333Z" fill="#FBFAF5"/>
<path d="M48.1466 119.14C47.9604 119.386 47.6076 119.437 47.358 119.254C47.1084 119.071 47.0577 118.714 47.2402 118.466C47.4228 118.218 48.1146 117.718 48.3679 117.903C48.6212 118.088 48.3328 118.893 48.1446 119.144L48.1466 119.14Z" fill="#FBFAF5"/>
<path d="M53.6348 122.24C53.5373 122.535 53.2167 122.694 52.9213 122.595C52.6258 122.496 52.4651 122.175 52.5626 121.881C52.6602 121.586 53.1591 120.896 53.4546 120.994C53.75 121.093 53.7304 121.949 53.6328 122.244L53.6348 122.24Z" fill="#FBFAF5"/>
<path d="M60.6429 123.622C60.5825 123.927 60.2889 124.125 59.9809 124.067C59.6729 124.009 59.4758 123.711 59.5325 123.404C59.5891 123.097 59.9923 122.344 60.2983 122.406C60.6043 122.468 60.6995 123.315 60.6392 123.62L60.6429 123.622Z" fill="#FBFAF5"/>
<path d="M69.4036 116.413C69.4463 116.722 69.2309 117.005 68.9254 117.048C68.62 117.092 68.3322 116.873 68.2874 116.568C68.2426 116.263 68.3801 115.419 68.6893 115.378C68.9984 115.336 69.3625 116.11 69.4053 116.419L69.4036 116.413Z" fill="#FBFAF5"/>
<path d="M42.2405 123.088C42.7211 123.349 43.3214 123.173 43.5813 122.693C43.8413 122.214 43.6624 121.614 43.1818 121.352C42.7011 121.091 42.1008 121.267 41.8409 121.747C41.5809 122.226 41.7598 122.827 42.2405 123.088Z" fill="#181818"/>
<path d="M47.4514 125.918C47.932 126.179 48.5323 126.003 48.7923 125.523C49.0522 125.044 48.8733 124.443 48.3927 124.182C47.9121 123.921 47.3117 124.097 47.0518 124.577C46.7919 125.056 46.9708 125.657 47.4514 125.918Z" fill="#181818"/>
<path d="M45.6386 127.19C45.3795 127.668 44.3918 128.011 43.2717 127.402C42.1516 126.793 41.8992 125.78 42.1603 125.299C42.4213 124.818 43.0922 125.059 44.2123 125.668C45.3324 126.277 45.8976 126.713 45.6386 127.19Z" fill="#181818"/>
</svg>
