<svg width="290" height="158" viewBox="0 0 290 158" fill="none" xmlns="http://www.w3.org/2000/svg">
<path d="M290 50.5019C290 91.9134 232 93.9335 145 93.9335C127.78 93.9335 111.52 93.7214 96.56 93.0547C91.97 92.8527 60.33 107.367 56 107.064C49.69 106.63 70.84 91.3276 65.11 90.6609C25.03 85.9946 0 75.0862 0 50.5019C0 15.1506 38 0 145 0C252 0 290 16.1606 290 50.5019Z" fill="#2F5D50"/>
<path d="M62.236 38.556C71.272 36.468 78.004 39.456 78.364 46.188C78.724 53.064 72.856 55.584 67.204 55.332L66.952 60.3C63.604 60.372 63.82 60.408 62.128 60.408C62.2 48.276 62.236 43.524 62.236 38.556ZM67.132 51.516C72.172 51.876 73 48.168 72.64 46.044C72.172 42.984 69.94 42.336 66.844 42.516L67.132 51.516ZM88.4319 47.844C89.4759 44.64 92.3559 42.804 97.6119 44.208L97.4319 50.112C95.9559 49.32 94.6959 48.816 92.9679 48.924C91.0959 49.068 89.5119 49.536 88.9719 51.948C88.9719 51.948 89.3679 59.724 89.4399 60.588L83.6799 60.66C83.6799 60.66 83.7879 46.8 83.7159 43.38L88.8279 43.308L88.4319 47.844ZM111.993 43.2C118.509 43.164 120.021 48.888 120.129 51.768C120.309 56.592 117.141 60.948 112.389 61.092C106.593 61.272 103.137 57.816 102.993 52.092C102.741 47.988 105.585 43.236 111.993 43.2ZM114.765 52.2C114.873 49.5 113.757 48.168 111.957 47.808C110.841 47.592 107.997 48.132 107.925 51.552C107.853 54.36 109.149 56.052 111.381 56.124C113.253 56.16 114.657 54.54 114.765 52.2ZM133.659 43.2C137.043 43.452 138.555 45 139.347 46.152C139.347 46.152 138.951 41.904 138.915 37.944L143.523 38.016C143.415 53.136 143.523 57.276 143.523 61.272L138.915 61.2L139.095 57.816C138.303 59.508 135.891 61.02 131.967 60.696C128.403 60.408 124.803 57.132 124.947 51.408C125.091 45.972 129.267 42.912 133.659 43.2ZM133.947 56.052C135.675 56.052 137.583 54.576 137.583 52.056C137.583 50.58 136.899 48.636 134.487 48.132C132.075 47.628 129.555 49.356 129.807 52.416C129.951 54.54 131.643 56.052 133.947 56.052ZM156.679 60.804C152.215 60.84 148.435 57.564 149.839 43.848L154.987 43.956C154.627 49.032 153.331 55.908 157.831 55.692C159.379 55.764 162.331 53.712 161.467 44.064L166.543 43.956C166.543 43.956 166.687 59.904 166.615 60.804L161.971 60.768C161.971 60.768 162.367 58.104 162.367 57.744C162.367 57.744 160.387 60.804 156.679 60.804ZM184.996 47.736C181.648 46.512 177.688 47.88 177.724 52.02C177.76 54.36 179.668 55.872 181.468 56.124C185.248 56.592 186.688 53.568 186.688 51.48L190.432 54.18C189.64 59.148 185.212 61.416 181 61.128C176.608 60.768 173.476 57.888 172.648 53.712C171.676 48.744 174.736 42.084 184.528 43.128L184.996 47.736ZM205.114 60.66C199.174 59.868 199.678 53.028 199.822 48.096C199.822 48.096 198.022 47.7 196.402 47.52L196.258 43.74L200.542 43.776L200.614 39.132L205.474 39.492L205.294 43.848L209.434 43.884L209.398 47.592C209.398 47.592 206.266 47.88 204.862 47.808C204.646 54.432 204.502 55.548 206.23 55.836C207.994 56.124 209.182 54.252 209.542 53.064L212.242 56.556C210.658 59.292 208.318 61.092 205.114 60.66ZM225.566 46.944C224.522 46.872 223.658 47.412 223.55 48.24C223.514 48.672 223.622 49.212 224.306 49.644C226.106 50.724 230.75 50.724 231.65 54.432C232.334 57.096 231.146 60.624 226.646 61.38C221.93 62.136 218.654 59.148 217.898 56.016L221.174 53.964C221.894 56.016 223.154 57.276 224.99 57.276C226.178 57.276 227.042 56.412 227.114 55.548C227.15 54.9 226.826 53.964 225.422 53.604C221.246 52.488 219.842 51.588 219.266 49.464C218.438 46.44 220.562 43.452 224.522 43.056C228.302 42.696 231.47 44.784 232.082 47.916L228.59 49.572C228.302 48.06 226.826 46.98 225.566 46.944Z" fill="#FDFDFD"/>
<path d="M0 117.686C0 100.371 9.32015 97.5287 23.1146 97.5287C36.9091 97.5287 49.9551 100.371 49.9551 117.686C49.9551 135.001 37.2806 158 24.6061 158C10.2627 158 0 135.001 0 117.686Z" fill="#D9333F"/>
<path d="M37.7318 99.9681C37.7318 101.232 32.2369 101.242 31.7192 102.333C31.2016 103.424 34.6959 107.662 33.7576 108.477C32.8193 109.293 29.0715 105.243 27.8906 105.664C26.7798 106.064 26.4832 111.598 25.2106 111.598C23.9379 111.598 23.6629 106.058 22.5521 105.654C21.3712 105.227 17.5749 109.233 16.6743 108.445C15.7738 107.657 19.2519 103.402 18.7289 102.306C18.2058 101.21 12.7163 101.188 12.7217 99.9303C12.7271 98.6723 18.0386 99.1366 18.6048 98.3052C19.2088 97.4089 16.7552 92.7008 17.8445 92.231C18.7828 91.8261 21.3064 96.7988 22.4928 96.6422C23.5335 96.5018 24.3154 90.9946 25.4694 91C26.6234 91.0054 27.2974 96.5234 28.3004 96.6638C29.4652 96.8258 32.0374 91.8909 32.9325 92.3012C33.9787 92.7763 31.331 97.3549 31.8864 98.2728C32.3825 99.0934 37.7318 98.7047 37.7318 99.9627V99.9681Z" fill="#2F5D50"/>
<path d="M8.28785 107.431C8.15067 107.832 7.71627 108.049 7.31044 107.912C6.90462 107.774 6.69313 107.34 6.83031 106.933C6.96749 106.527 7.65339 105.588 8.0535 105.726C8.45361 105.863 8.42503 107.03 8.28785 107.431Z" fill="#FBFAF5"/>
<path d="M14.4382 112.05C14.3011 112.45 13.8667 112.668 13.4608 112.53C13.055 112.393 12.8435 111.958 12.9807 111.552C13.1179 111.145 13.8038 110.207 14.2039 110.344C14.604 110.482 14.5754 111.649 14.4382 112.05Z" fill="#FBFAF5"/>
<path d="M23.0121 114.219C22.9607 114.642 22.5777 114.94 22.1605 114.894C21.7432 114.848 21.4403 114.459 21.486 114.041C21.5317 113.623 22.0119 112.553 22.4291 112.605C22.8464 112.656 23.0579 113.801 23.0121 114.224V114.219Z" fill="#FBFAF5"/>
<path d="M5.46447 116.823C5.293 117.212 4.83573 117.389 4.45277 117.212C4.0698 117.034 3.8869 116.582 4.06409 116.199C4.24128 115.815 5.00149 114.934 5.39017 115.106C5.77884 115.277 5.64166 116.439 5.47019 116.823H5.46447Z" fill="#FBFAF5"/>
<path d="M11.9464 121.968C11.7749 122.357 11.3177 122.534 10.9347 122.357C10.5517 122.179 10.3688 121.727 10.546 121.344C10.7232 120.96 11.4834 120.079 11.8721 120.251C12.2608 120.422 12.1236 121.584 11.9521 121.968H11.9464Z" fill="#FBFAF5"/>
<path d="M20.3542 124.2C20.2684 124.617 19.8569 124.881 19.4454 124.795C19.0338 124.709 18.7652 124.297 18.8509 123.885C18.9367 123.473 19.5082 122.448 19.9198 122.54C20.3313 122.632 20.4399 123.788 20.3542 124.205V124.2Z" fill="#FBFAF5"/>
<path d="M32.346 113.961C32.4317 114.379 32.1688 114.785 31.7573 114.877C31.3457 114.968 30.9342 114.699 30.8427 114.287C30.7513 113.875 30.8599 112.708 31.2714 112.622C31.683 112.536 32.2545 113.549 32.346 113.967V113.961Z" fill="#FBFAF5"/>
<path d="M40.057 111.54C40.1999 111.941 39.9941 112.382 39.594 112.525C39.1939 112.668 38.7537 112.462 38.6109 112.061C38.468 111.66 38.4165 110.493 38.8166 110.35C39.2167 110.207 39.9141 111.14 40.057 111.54Z" fill="#FBFAF5"/>
<path d="M46.1783 106.59C46.4641 106.905 46.4413 107.391 46.1269 107.677C45.8125 107.963 45.3267 107.941 45.0409 107.626C44.7551 107.311 44.2635 106.252 44.5779 105.966C44.8923 105.68 45.8925 106.275 46.1783 106.59Z" fill="#FBFAF5"/>
<path d="M30.517 124.171C30.5627 124.595 30.2598 124.972 29.8368 125.018C29.4138 125.064 29.0366 124.761 28.9909 124.337C28.9451 123.913 29.1623 122.769 29.5853 122.723C30.0083 122.677 30.4713 123.748 30.517 124.171Z" fill="#FBFAF5"/>
<path d="M39.1251 122.529C39.228 122.941 38.9765 123.358 38.565 123.461C38.1534 123.564 37.7362 123.313 37.6333 122.901C37.5304 122.488 37.599 121.321 38.0105 121.224C38.4221 121.126 39.0222 122.122 39.1251 122.534V122.529Z" fill="#FBFAF5"/>
<path d="M12.7009 132.767C12.5523 133.168 12.1121 133.368 11.712 133.219C11.3119 133.07 11.1119 132.63 11.2605 132.229C11.4091 131.828 12.1179 130.907 12.5122 131.05C12.9066 131.193 12.8495 132.361 12.7009 132.761V132.767Z" fill="#FBFAF5"/>
<path d="M22.0002 135.182C21.9374 135.6 21.5487 135.892 21.1314 135.835C20.7142 135.777 20.4227 135.383 20.4798 134.965C20.537 134.547 21.04 133.494 21.4629 133.551C21.8859 133.608 22.0631 134.764 22.0002 135.188V135.182Z" fill="#FBFAF5"/>
<path d="M30.6024 135.325C30.6767 135.743 30.3966 136.144 29.9794 136.218C29.5621 136.292 29.162 136.012 29.0877 135.594C29.0134 135.176 29.162 134.02 29.5793 133.946C29.9965 133.872 30.5281 134.913 30.6024 135.331V135.325Z" fill="#FBFAF5"/>
<path d="M39.9082 132.418C40.0339 132.824 39.811 133.254 39.4052 133.385C38.9993 133.517 38.5706 133.288 38.4392 132.882C38.3077 132.475 38.302 131.308 38.7078 131.182C39.1137 131.056 39.7767 132.012 39.9024 132.418H39.9082Z" fill="#FBFAF5"/>
<path d="M45.7209 118.065C45.9724 118.408 45.8981 118.889 45.5609 119.141C45.2236 119.392 44.7378 119.318 44.4863 118.98C44.2348 118.643 43.8518 117.538 44.1948 117.286C44.5377 117.034 45.4751 117.727 45.7266 118.07L45.7209 118.065Z" fill="#FBFAF5"/>
<path d="M17.4905 143.767C18.2355 143.767 18.8395 143.162 18.8395 142.416C18.8395 141.67 18.2355 141.065 17.4905 141.065C16.7455 141.065 16.1416 141.67 16.1416 142.416C16.1416 143.162 16.7455 143.767 17.4905 143.767Z" fill="#181818"/>
<path d="M25.5843 143.767C26.3293 143.767 26.9332 143.162 26.9332 142.416C26.9332 141.67 26.3293 141.065 25.5843 141.065C24.8393 141.065 24.2354 141.67 24.2354 142.416C24.2354 143.162 24.8393 143.767 25.5843 143.767Z" fill="#181818"/>
<path d="M24.2351 146.468C24.2351 147.212 23.2749 148.271 21.5372 148.271C19.7996 148.271 18.8394 147.218 18.8394 146.468C18.8394 145.718 19.7996 145.569 21.5372 145.569C23.2749 145.569 24.2351 145.724 24.2351 146.468Z" fill="#181818"/>
</svg>
