<svg width="294" height="154" viewBox="0 0 294 154" fill="none" xmlns="http://www.w3.org/2000/svg">
<path d="M294 50.5019C294 91.9134 236 93.9335 149 93.9335C131.78 93.9335 115.52 93.7214 100.56 93.0547C95.97 92.8527 64.33 107.367 60 107.064C53.69 106.63 74.84 91.3276 69.11 90.6609C29.03 85.9946 4 75.0862 4 50.5019C4 15.1506 42 0 149 0C256 0 294 16.1606 294 50.5019Z" fill="#2F5D50"/>
<path d="M114.74 46.104L117.62 46.284L117.08 51.072L114.308 50.532C113.444 54.996 109.556 58.308 104.444 57.948C98.972 57.552 95.552 53.052 95.624 46.176C95.552 39.012 99.98 34.512 106.316 34.98C112.112 35.412 115.28 40.812 114.74 46.104ZM110.168 46.464C110.42 43.224 109.016 39.984 105.848 39.768C102.716 39.588 100.664 42.072 100.556 46.176C100.556 51.36 102.86 53.268 105.2 53.412C108.08 53.556 109.304 51.684 109.772 49.992L106.028 49.488L106.208 46.212L110.168 46.464ZM141.888 57.732C137.388 57.264 135.048 54.096 135.192 50.532C135.3 48.012 136.884 46.032 139.908 44.808C137.64 43.584 136.344 41.82 136.596 39.516C137.028 35.664 140.52 34.8 142.68 34.872C146.28 35.052 148.188 37.212 148.224 39.768C148.26 41.604 147.324 43.116 145.956 44.052C145.956 44.052 149.232 45.276 149.952 47.94C149.952 47.94 152.076 45.924 153.012 44.772L155.244 47.868C155.244 47.868 151.248 51.432 150.384 51.9L153.588 55.464L150.708 57.912L148.8 54.708C147.648 56.364 145.488 58.056 141.888 57.732ZM142.284 37.896C140.88 37.932 139.872 38.904 140.052 40.164C140.16 40.776 140.952 41.928 142.608 42.504C143.724 42 144.552 40.884 144.552 40.092C144.552 38.4 143.364 37.86 142.284 37.896ZM139.62 50.388C139.404 51.828 140.628 53.484 142.644 53.556C144.912 53.628 145.884 52.08 145.92 50.676C145.956 49.2 145.236 48.12 143.04 47.04C142.284 47.22 139.872 48.156 139.62 50.388ZM170.731 56.4C177.859 41.028 178.147 41.064 182.035 34.044C186.139 40.776 192.331 52.44 194.563 57.192C194.563 57.192 189.487 57.66 187.795 57.66C187.795 57.66 186.679 54.276 185.779 52.08C185.779 52.08 182.719 52.116 178.399 52.188L176.239 57.372C176.239 57.372 173.035 56.832 170.731 56.4ZM179.515 46.968C181.855 47.04 184.231 46.824 184.231 46.824C183.223 44.556 181.747 41.676 181.747 41.676L179.515 46.968Z" fill="#FDFDFD"/>
<path d="M0 113.686C0 96.371 9.32015 93.5287 23.1146 93.5287C36.9091 93.5287 49.9551 96.371 49.9551 113.686C49.9551 131.001 37.2806 154 24.6061 154C10.2627 154 0 131.001 0 113.686Z" fill="#D9333F"/>
<path d="M37.7318 95.9681C37.7318 97.2315 32.2369 97.2423 31.7192 98.333C31.2016 99.4236 34.6959 103.662 33.7576 104.477C32.8193 105.293 29.0715 101.243 27.8906 101.664C26.7798 102.064 26.4832 107.598 25.2106 107.598C23.9379 107.598 23.6629 102.058 22.5521 101.654C21.3712 101.227 17.5749 105.233 16.6743 104.445C15.7738 103.657 19.2519 99.402 18.7289 98.306C18.2058 97.2099 12.7163 97.1883 12.7217 95.9303C12.7271 94.6723 18.0386 95.1366 18.6048 94.3052C19.2088 93.4089 16.7552 88.7008 17.8445 88.231C18.7828 87.8261 21.3064 92.7988 22.4928 92.6422C23.5335 92.5018 24.3154 86.9946 25.4694 87C26.6234 87.0054 27.2974 92.5234 28.3004 92.6638C29.4652 92.8258 32.0374 87.8909 32.9325 88.3012C33.9787 88.7763 31.331 93.3549 31.8864 94.2728C32.3825 95.0934 37.7318 94.7047 37.7318 95.9627V95.9681Z" fill="#2F5D50"/>
<path d="M8.28785 103.431C8.15067 103.832 7.71627 104.049 7.31044 103.912C6.90462 103.774 6.69313 103.34 6.83031 102.933C6.96749 102.527 7.65339 101.588 8.0535 101.726C8.45361 101.863 8.42503 103.03 8.28785 103.431Z" fill="#FBFAF5"/>
<path d="M14.4382 108.05C14.3011 108.45 13.8667 108.668 13.4608 108.53C13.055 108.393 12.8435 107.958 12.9807 107.552C13.1179 107.145 13.8038 106.207 14.2039 106.344C14.604 106.482 14.5754 107.649 14.4382 108.05Z" fill="#FBFAF5"/>
<path d="M23.0121 110.219C22.9607 110.642 22.5777 110.94 22.1605 110.894C21.7432 110.848 21.4403 110.459 21.486 110.041C21.5317 109.623 22.0119 108.553 22.4291 108.605C22.8464 108.656 23.0579 109.801 23.0121 110.224V110.219Z" fill="#FBFAF5"/>
<path d="M5.46447 112.823C5.293 113.212 4.83573 113.389 4.45277 113.212C4.0698 113.034 3.8869 112.582 4.06409 112.199C4.24128 111.815 5.00149 110.934 5.39017 111.106C5.77884 111.277 5.64166 112.439 5.47019 112.823H5.46447Z" fill="#FBFAF5"/>
<path d="M11.9464 117.968C11.7749 118.357 11.3177 118.534 10.9347 118.357C10.5517 118.179 10.3688 117.727 10.546 117.344C10.7232 116.96 11.4834 116.079 11.8721 116.251C12.2608 116.422 12.1236 117.584 11.9521 117.968H11.9464Z" fill="#FBFAF5"/>
<path d="M20.3542 120.2C20.2684 120.617 19.8569 120.881 19.4454 120.795C19.0338 120.709 18.7652 120.297 18.8509 119.885C18.9367 119.473 19.5082 118.448 19.9198 118.54C20.3313 118.632 20.4399 119.788 20.3542 120.205V120.2Z" fill="#FBFAF5"/>
<path d="M32.346 109.961C32.4317 110.379 32.1688 110.785 31.7573 110.877C31.3457 110.968 30.9342 110.699 30.8427 110.287C30.7513 109.875 30.8599 108.708 31.2714 108.622C31.683 108.536 32.2545 109.549 32.346 109.967V109.961Z" fill="#FBFAF5"/>
<path d="M40.057 107.54C40.1999 107.941 39.9941 108.382 39.594 108.525C39.1939 108.668 38.7537 108.462 38.6109 108.061C38.468 107.66 38.4165 106.493 38.8166 106.35C39.2167 106.207 39.9141 107.14 40.057 107.54Z" fill="#FBFAF5"/>
<path d="M46.1783 102.59C46.4641 102.905 46.4413 103.391 46.1269 103.677C45.8125 103.963 45.3267 103.941 45.0409 103.626C44.7551 103.311 44.2635 102.252 44.5779 101.966C44.8923 101.68 45.8925 102.275 46.1783 102.59Z" fill="#FBFAF5"/>
<path d="M30.517 120.171C30.5627 120.595 30.2598 120.972 29.8368 121.018C29.4138 121.064 29.0366 120.761 28.9909 120.337C28.9451 119.913 29.1623 118.769 29.5853 118.723C30.0083 118.677 30.4713 119.748 30.517 120.171Z" fill="#FBFAF5"/>
<path d="M39.1251 118.529C39.228 118.941 38.9765 119.358 38.565 119.461C38.1534 119.564 37.7362 119.313 37.6333 118.901C37.5304 118.488 37.599 117.321 38.0105 117.224C38.4221 117.126 39.0222 118.122 39.1251 118.534V118.529Z" fill="#FBFAF5"/>
<path d="M12.7009 128.767C12.5523 129.168 12.1121 129.368 11.712 129.219C11.3119 129.07 11.1119 128.63 11.2605 128.229C11.4091 127.828 12.1179 126.907 12.5122 127.05C12.9066 127.193 12.8495 128.361 12.7009 128.761V128.767Z" fill="#FBFAF5"/>
<path d="M22.0002 131.182C21.9374 131.6 21.5487 131.892 21.1314 131.835C20.7142 131.777 20.4227 131.382 20.4798 130.965C20.537 130.547 21.04 129.494 21.4629 129.551C21.8859 129.608 22.0631 130.764 22.0002 131.188V131.182Z" fill="#FBFAF5"/>
<path d="M30.6024 131.325C30.6767 131.743 30.3966 132.144 29.9794 132.218C29.5621 132.292 29.162 132.012 29.0877 131.594C29.0134 131.176 29.162 130.02 29.5793 129.946C29.9965 129.872 30.5281 130.913 30.6024 131.331V131.325Z" fill="#FBFAF5"/>
<path d="M39.9082 128.418C40.0339 128.824 39.811 129.253 39.4052 129.385C38.9993 129.517 38.5706 129.288 38.4392 128.881C38.3077 128.475 38.302 127.308 38.7078 127.182C39.1137 127.056 39.7767 128.012 39.9024 128.418H39.9082Z" fill="#FBFAF5"/>
<path d="M45.7209 114.065C45.9724 114.408 45.8981 114.889 45.5609 115.141C45.2236 115.392 44.7378 115.318 44.4863 114.98C44.2348 114.643 43.8518 113.538 44.1948 113.286C44.5377 113.034 45.4751 113.727 45.7266 114.07L45.7209 114.065Z" fill="#FBFAF5"/>
<path d="M17.4905 139.767C18.2355 139.767 18.8395 139.162 18.8395 138.416C18.8395 137.67 18.2355 137.065 17.4905 137.065C16.7455 137.065 16.1416 137.67 16.1416 138.416C16.1416 139.162 16.7455 139.767 17.4905 139.767Z" fill="#181818"/>
<path d="M25.5843 139.767C26.3293 139.767 26.9332 139.162 26.9332 138.416C26.9332 137.67 26.3293 137.065 25.5843 137.065C24.8393 137.065 24.2354 137.67 24.2354 138.416C24.2354 139.162 24.8393 139.767 25.5843 139.767Z" fill="#181818"/>
<path d="M24.2351 142.468C24.2351 143.212 23.2749 144.271 21.5372 144.271C19.7996 144.271 18.8394 143.218 18.8394 142.468C18.8394 141.718 19.7996 141.569 21.5372 141.569C23.2749 141.569 24.2351 141.724 24.2351 142.468Z" fill="#181818"/>
</svg>
