<svg width="448" height="127" viewBox="0 0 448 127" fill="none" xmlns="http://www.w3.org/2000/svg">
<path d="M0 73.2358C0 50.3735 12.3063 46.6205 30.5204 46.6205C48.7346 46.6205 65.9605 50.3735 65.9605 73.2358C65.9605 96.0982 49.2251 126.466 32.4897 126.466C13.5508 126.466 0 96.0982 0 73.2358Z" fill="#D9333F"/>
<path d="M49.8206 49.8415C49.8206 51.5097 42.5652 51.5239 41.8816 52.964C41.1981 54.4041 45.8119 60.0004 44.573 61.0769C43.3341 62.1534 38.3856 56.8066 36.8263 57.3627C35.3596 57.8902 34.968 65.1976 33.2876 65.1976C31.6073 65.1976 31.2441 57.8831 29.7774 57.3484C28.2181 56.7852 23.2055 62.075 22.0164 61.0342C20.8274 59.9933 25.4199 54.3756 24.7292 52.9284C24.0386 51.4811 16.7902 51.4526 16.7974 49.7916C16.8045 48.1305 23.8178 48.7436 24.5654 47.6457C25.3629 46.4623 22.1232 40.2457 23.5615 39.6254C24.8004 39.0908 28.1326 45.6567 29.6991 45.4499C31.0732 45.2646 32.1057 37.9929 33.6294 38C35.1531 38.0071 36.0431 45.2931 37.3675 45.4784C38.9054 45.6923 42.3017 39.1763 43.4837 39.7181C44.865 40.3455 41.369 46.391 42.1024 47.6029C42.7574 48.6865 49.8206 48.1732 49.8206 49.8343V49.8415Z" fill="#2F5D50"/>
<path d="M10.9435 59.6955C10.7624 60.2245 10.1888 60.5116 9.65294 60.3303C9.11709 60.1489 8.83785 59.5746 9.01898 59.0381C9.20011 58.5016 10.1058 57.2623 10.6341 57.4436C11.1624 57.625 11.1246 59.1665 10.9435 59.6955Z" fill="#FBFAF5"/>
<path d="M19.0641 65.7938C18.883 66.3227 18.3094 66.6099 17.7735 66.4285C17.2377 66.2472 16.9585 65.6729 17.1396 65.1363C17.3207 64.5998 18.2264 63.3605 18.7547 63.5419C19.283 63.7232 19.2452 65.2648 19.0641 65.7938Z" fill="#FBFAF5"/>
<path d="M30.3849 68.6578C30.317 69.217 29.8113 69.6099 29.2604 69.5495C28.7094 69.489 28.3094 68.9751 28.3698 68.4235C28.4302 67.8719 29.0641 66.4588 29.6151 66.5268C30.166 66.5948 30.4453 68.1061 30.3849 68.6653V68.6578Z" fill="#FBFAF5"/>
<path d="M7.2152 72.0961C6.98879 72.61 6.38502 72.8442 5.87936 72.61C5.3737 72.3757 5.13219 71.7787 5.36615 71.2724C5.60011 70.7661 6.60388 69.6024 7.11709 69.8291C7.6303 70.0558 7.44917 71.5898 7.22275 72.0961H7.2152Z" fill="#FBFAF5"/>
<path d="M15.7738 78.8896C15.5474 79.4034 14.9436 79.6377 14.4379 79.4034C13.9323 79.1692 13.6908 78.5722 13.9247 78.0659C14.1587 77.5596 15.1625 76.3959 15.6757 76.6226C16.1889 76.8493 16.0078 78.3833 15.7813 78.8896H15.7738Z" fill="#FBFAF5"/>
<path d="M26.8756 81.8366C26.7624 82.3883 26.219 82.7359 25.6756 82.6225C25.1322 82.5092 24.7775 81.9651 24.8907 81.421C25.0039 80.8769 25.7586 79.5243 26.302 79.6452C26.8454 79.7661 26.9888 81.2925 26.8756 81.8442V81.8366Z" fill="#FBFAF5"/>
<path d="M42.7094 68.3178C42.8226 68.8694 42.4754 69.4059 41.932 69.5268C41.3886 69.6477 40.8452 69.2926 40.7245 68.7485C40.6037 68.2044 40.7471 66.6629 41.2905 66.5495C41.8339 66.4362 42.5886 67.7737 42.7094 68.3253V68.3178Z" fill="#FBFAF5"/>
<path d="M52.8908 65.1212C53.0795 65.6502 52.8078 66.232 52.2795 66.421C51.7512 66.6099 51.1701 66.3378 50.9814 65.8089C50.7927 65.2799 50.7248 63.7383 51.2531 63.5494C51.7814 63.3605 52.7022 64.5922 52.8908 65.1212Z" fill="#FBFAF5"/>
<path d="M60.9736 58.5847C61.3509 59.0004 61.3207 59.6427 60.9056 60.0205C60.4906 60.3983 59.849 60.3681 59.4717 59.9525C59.0943 59.5369 58.4453 58.1389 58.8604 57.7611C59.2755 57.3832 60.5962 58.1691 60.9736 58.5847Z" fill="#FBFAF5"/>
<path d="M40.2945 81.7989C40.3549 82.358 39.9549 82.8568 39.3964 82.9172C38.8379 82.9777 38.3398 82.5772 38.2794 82.018C38.219 81.4588 38.5058 79.9475 39.0643 79.887C39.6228 79.8266 40.2341 81.2397 40.2945 81.7989Z" fill="#FBFAF5"/>
<path d="M51.6607 79.6301C51.7965 80.1742 51.4644 80.7259 50.921 80.8619C50.3776 80.9979 49.8267 80.6654 49.6909 80.1213C49.555 79.5772 49.6456 78.0357 50.189 77.9072C50.7324 77.7788 51.5248 79.0936 51.6607 79.6377V79.6301Z" fill="#FBFAF5"/>
<path d="M16.7699 93.1489C16.5737 93.6779 15.9925 93.9424 15.4642 93.7459C14.9359 93.5494 14.6718 92.9676 14.868 92.4386C15.0642 91.9096 16.0001 90.693 16.5208 90.8819C17.0416 91.0708 16.9661 92.6124 16.7699 93.1414V93.1489Z" fill="#FBFAF5"/>
<path d="M29.0492 96.3379C28.9662 96.8895 28.453 97.2749 27.9021 97.1993C27.3511 97.1238 26.9662 96.6024 27.0417 96.0507C27.1171 95.4991 27.7813 94.1087 28.3398 94.1842C28.8983 94.2598 29.1322 95.7863 29.0492 96.3454V96.3379Z" fill="#FBFAF5"/>
<path d="M40.4076 96.5268C40.5057 97.0785 40.1359 97.6074 39.5849 97.7057C39.034 97.8039 38.5057 97.4336 38.4076 96.882C38.3094 96.3304 38.5057 94.8039 39.0566 94.7057C39.6076 94.6074 40.3094 95.9828 40.4076 96.5344V96.5268Z" fill="#FBFAF5"/>
<path d="M52.6944 92.688C52.8604 93.2245 52.5661 93.7913 52.0303 93.9651C51.4944 94.1389 50.9284 93.8366 50.7548 93.3001C50.5812 92.7635 50.5737 91.222 51.1095 91.0557C51.6454 90.8895 52.5208 92.1515 52.6869 92.688H52.6944Z" fill="#FBFAF5"/>
<path d="M60.3697 73.7359C60.7018 74.1893 60.6037 74.8241 60.1584 75.1566C59.7131 75.489 59.0716 75.3908 58.7395 74.945C58.4075 74.4991 57.9018 73.0407 58.3546 72.7082C58.8075 72.3757 60.0452 73.2901 60.3773 73.7435L60.3697 73.7359Z" fill="#FBFAF5"/>
<path d="M23.0946 107.673C24.0783 107.673 24.8757 106.875 24.8757 105.89C24.8757 104.905 24.0783 104.106 23.0946 104.106C22.1109 104.106 21.3135 104.905 21.3135 105.89C21.3135 106.875 22.1109 107.673 23.0946 107.673Z" fill="#181818"/>
<path d="M33.7811 107.673C34.7648 107.673 35.5623 106.875 35.5623 105.89C35.5623 104.905 34.7648 104.106 33.7811 104.106C32.7974 104.106 32 104.905 32 105.89C32 106.875 32.7974 107.673 33.7811 107.673Z" fill="#181818"/>
<path d="M32 111.24C32 112.222 30.7321 113.62 28.4378 113.62C26.1434 113.62 24.8755 112.23 24.8755 111.24C24.8755 110.25 26.1434 110.053 28.4378 110.053C30.7321 110.053 32 110.257 32 111.24Z" fill="#181818"/>
<path d="M448 59.4868C448 109.176 365.845 114.774 264.5 114.774C235.882 114.774 205.99 116.902 181.855 113.375C177.611 112.759 139.678 126.686 135.63 125.972C129.256 124.852 152.691 110.519 146.836 109.176C102.586 99.084 81 97.9782 81 59.4868C81 12.5972 168.758 0 270.103 0C371.448 0 448 11.1975 448 59.4868Z" fill="#2F5D50"/>
<path d="M225.32 56.472L229.16 56.712L228.44 63.096L224.744 62.376C223.592 68.328 218.408 72.744 211.592 72.264C204.296 71.736 199.736 65.736 199.832 56.568C199.736 47.016 205.64 41.016 214.088 41.64C221.816 42.216 226.04 49.416 225.32 56.472ZM219.224 56.952C219.56 52.632 217.688 48.312 213.464 48.024C209.288 47.784 206.552 51.096 206.408 56.568C206.408 63.48 209.48 66.024 212.6 66.216C216.44 66.408 218.072 63.912 218.696 61.656L213.704 60.984L213.944 56.616L219.224 56.952ZM261.517 71.976C255.517 71.352 252.397 67.128 252.589 62.376C252.733 59.016 254.845 56.376 258.877 54.744C255.853 53.112 254.125 50.76 254.461 47.688C255.037 42.552 259.693 41.4 262.573 41.496C267.373 41.736 269.917 44.616 269.965 48.024C270.013 50.472 268.765 52.488 266.941 53.736C266.941 53.736 271.309 55.368 272.269 58.92C272.269 58.92 275.101 56.232 276.349 54.696L279.325 58.824C279.325 58.824 273.997 63.576 272.845 64.2L277.117 68.952L273.277 72.216L270.733 67.944C269.197 70.152 266.317 72.408 261.517 71.976ZM262.045 45.528C260.173 45.576 258.829 46.872 259.069 48.552C259.213 49.368 260.269 50.904 262.477 51.672C263.965 51 265.069 49.512 265.069 48.456C265.069 46.2 263.485 45.48 262.045 45.528ZM258.493 62.184C258.205 64.104 259.837 66.312 262.525 66.408C265.549 66.504 266.845 64.44 266.893 62.568C266.941 60.6 265.981 59.16 263.053 57.72C262.045 57.96 258.829 59.208 258.493 62.184ZM299.975 70.2C309.479 49.704 309.863 49.752 315.047 40.392C320.519 49.368 328.775 64.92 331.751 71.256C331.751 71.256 324.983 71.88 322.727 71.88C322.727 71.88 321.239 67.368 320.039 64.44C320.039 64.44 315.959 64.488 310.199 64.584L307.319 71.496C307.319 71.496 303.047 70.776 299.975 70.2ZM311.687 57.624C314.807 57.72 317.975 57.432 317.975 57.432C316.631 54.408 314.663 50.568 314.663 50.568L311.687 57.624Z" fill="#FDFDFD"/>
</svg>
