<svg width="200" height="200" viewBox="0 0 200 200" fill="none" xmlns="http://www.w3.org/2000/svg">
<circle cx="100" cy="100" r="100" fill="#2F5D50"/>
<circle cx="100" cy="100" r="94" stroke="#FDFDFD" stroke-width="2" stroke-miterlimit="7.11025" stroke-dasharray="3 3"/>
<path d="M62.1 64.844L61.572 61.412L64.3 60.884L64.036 64.14C64.036 64.14 62.892 64.448 62.1 64.844ZM60.296 61.5V64.756C60.296 64.756 59.108 65.064 58.36 65.46L57.524 62.028L60.296 61.5ZM34.688 61.28C34.688 61.28 51.1 60.928 55.412 61.368C55.412 61.368 52.508 67.968 51.012 71.444C51.012 71.444 50.044 68.1 49.516 66.472C49.516 66.472 43.884 65.988 35.304 66.824L34.688 61.28ZM37.02 77.692C40.54 80.332 49.208 80.024 52.464 77.956L52.86 85.216C50 85.92 43.488 87.108 35.744 84.864C35.744 84.864 36.316 80.332 37.02 77.692ZM89.996 56.264C89.468 59.432 87.004 63.656 84.452 64.8L87.356 66.604L84.408 69.816C81.68 67.396 79.348 65.68 77.764 64.756L79.48 62.424C79.48 62.424 82.824 63.92 82.824 63.964C82.824 63.964 84.056 61.72 84.232 60.664C84.232 60.664 76.576 61.544 74.508 61.412L74.244 56.308C74.244 56.308 88.544 56.352 89.996 56.264ZM67.072 71.136C67.072 71.136 90.128 71.004 95.452 70.564C95.452 70.564 94.176 75.404 90.876 78.968C90.876 78.968 91.052 76.24 91.052 75.448C91.052 75.448 85.112 75.448 84.276 75.448C84.276 75.448 84.496 86.668 84.056 90.1C84.056 90.1 78.116 85.26 76.004 83.94C76.004 83.94 79.612 84.116 80.184 84.028C80.184 84.028 80.36 76.328 80.096 75.36C80.096 75.36 68.92 76.064 67.16 76.064L67.072 71.136ZM114.504 73.072C114.504 73.072 109.268 75.184 101.216 73.688C101.216 73.688 104.164 69.728 104.604 68.628C104.604 68.628 100.952 66.824 99.236 65.152C99.236 65.152 105.616 59.564 106.672 58.332L109.928 61.456C109.928 61.456 105.22 64.492 103.856 64.888L108.74 66.296C108.74 66.296 107.904 69.332 106.188 71.532C106.188 71.532 108.74 71.752 110.588 71.224L109.444 69.156L112.348 67.924L114.504 73.072ZM105.616 86.316L105.836 75.932L109.004 75.8L109.18 86.14C109.18 86.14 106.98 86.316 105.616 86.316ZM104.56 80.068C104.252 80.464 101.876 82.488 98.004 82.356C98.884 81.344 101.172 78.748 101.788 77.56L104.56 80.068ZM116.088 79.232L113.492 82.268C113.492 82.268 111.028 79.628 110.676 79.012L112.392 77.164C112.392 77.164 115.076 79.1 116.088 79.232ZM126.648 82.752C126.648 82.752 129.552 83.236 130.432 83.148C130.432 83.148 130.872 73.776 130.74 66.032C130.74 66.032 122.688 66.164 121.368 65.812C121.368 65.812 119.96 68.32 116.396 70.74C117.76 65.46 118.244 62.292 117.672 56.66L124.008 57.1C124.008 57.1 122.864 61.764 122.468 62.468C122.468 62.468 133.996 62.204 135.316 62.204C135.316 62.204 135.316 86.36 134.436 90.452C134.436 90.452 127.792 83.588 126.648 82.752ZM120.4 77.076C120.4 77.076 120.18 72.852 120.268 72.236L124.844 72.412L124.624 76.724L120.4 77.076ZM139.452 62.204L144.688 62.776C144.028 65.768 142.444 73.864 143.324 79.628C143.324 79.628 145.128 79.1 147.68 78C147.68 78 143.016 84.248 141.08 86.536C139.1 82.664 138.044 75.14 139.452 62.204ZM162.816 78.176C164.18 78.924 166.996 80.86 169.196 83.632L165.808 87.724C165.808 87.724 162.992 84.292 161.496 83.412C161.012 84.468 158.988 86.316 155.952 85.832C152.564 85.304 150.804 82.84 150.936 80.464C151.112 76.416 155.028 75.14 158.24 76.196C158.24 76.196 158.196 72.016 157.8 69.684C157.8 69.684 152.212 69.552 151.244 69.376L150.98 63.788C150.98 63.788 154.632 63.788 157.36 63.656L156.656 58.816L162.42 58.684C162.42 58.684 162.024 63.26 162.112 64.184L167.964 64.008L168.448 68.98C168.448 68.98 165.06 69.552 162.816 69.64C162.816 69.64 163.212 76.24 162.816 78.176ZM154.852 81.3C156.04 82.972 158.724 81.124 158.284 80.728C157.492 80.024 157.184 79.804 156.348 79.628C154.984 79.408 154.368 80.552 154.852 81.3ZM68.612 110.692C68.612 110.692 62.98 110.252 54.4 111.088L53.784 105.544C53.784 105.544 70.196 105.192 74.508 105.632C74.508 105.632 71.56 112.232 70.108 115.708C70.108 115.708 69.14 112.364 68.612 110.692ZM55.94 121.824C59.46 124.464 68.172 124.156 71.428 122.044L71.824 129.348C68.964 130.052 62.452 131.24 54.664 128.996C54.664 128.996 55.28 124.464 55.94 121.824ZM94.528 130.668C102.14 130.316 103.68 127.06 103.548 124.948C103.416 122.748 101.656 122 99.72 121.912C97.476 121.824 94.748 122.704 93.208 123.496C93.208 123.496 94.132 116.984 94.616 112.584C94.616 112.584 92.152 112.716 88.632 113.068V107.304C88.632 107.304 91.624 107.348 94.792 107.392L95.056 101.056L101.832 101.452L100.556 107.436C100.556 107.436 105.352 107.216 109.092 107.084L108.916 112.716C105 112.452 103.328 112.452 99.588 112.408L98.708 118.656C100.424 117.864 102.184 117.556 103.768 117.732C107.684 118.172 109.62 120.548 109.84 124.024C110.28 132.516 98.62 133.616 94.528 130.668ZM143.94 104.972L141.256 109.328C141.256 109.328 137.516 106.908 134.876 105.544L137.384 101.496C137.384 101.496 141.168 103.388 143.94 104.972ZM126.956 106.776L132.72 106.952C132.72 106.952 131.972 116.456 131.972 117.688C133.292 116.94 134.964 116.588 136.592 116.72C139.848 117.028 143.192 119.052 143.192 123.672C143.192 133 131.268 132.78 128.496 129.744C135.404 129.568 137.472 126.18 137.164 123.628C137.076 122.616 135.976 120.68 133.336 120.636C131.268 120.636 129.816 121.12 126.868 122.572C126.868 122.572 126.956 108.536 126.956 106.776Z" fill="#FDFDFD"/>
<path d="M115 155.5L97 165L97.9091 155.5L97 146L115 155.5Z" fill="#FDFDFD"/>
<path d="M85 152L102 153.667V157.667L85 159V152Z" fill="#FDFDFD"/>
</svg>
