<svg width="140" height="40" viewBox="0 0 140 40" fill="none" xmlns="http://www.w3.org/2000/svg">
<circle cx="20" cy="20" r="19" fill="#FDFDFD" stroke="#2F5D50" stroke-width="2"/>
<path d="M11.3047 19.8695C10.7524 19.8695 10.3047 20.3172 10.3047 20.8695C10.3047 21.4218 10.7524 21.8695 11.3047 21.8695V19.8695ZM28.5335 21.5766C28.9241 21.1861 28.9241 20.5529 28.5335 20.1624L22.1696 13.7984C21.779 13.4079 21.1459 13.4079 20.7554 13.7984C20.3648 14.189 20.3648 14.8221 20.7554 15.2127L26.4122 20.8695L20.7554 26.5264C20.3648 26.9169 20.3648 27.5501 20.7554 27.9406C21.1459 28.3311 21.779 28.3311 22.1696 27.9406L28.5335 21.5766ZM11.3047 21.8695H27.8264V19.8695H11.3047V21.8695Z" fill="#2F5D50"/>
<path d="M60.808 14.528C61.352 15.312 60.232 16.176 59.768 15.456C59.592 15.168 58.872 14.48 58.552 14.288C57.752 13.808 58.552 12.896 59.288 13.296C59.704 13.52 60.504 14.08 60.808 14.528ZM59.048 15.808C59.576 16.608 58.408 17.44 57.976 16.704C57.8 16.4 57.112 15.664 56.808 15.472C56.04 14.976 56.856 14.112 57.576 14.528C57.992 14.768 58.744 15.36 59.048 15.808ZM49.72 20.736L49.448 20.832C48.04 21.28 47.432 21.456 46.952 21.6C45.688 21.968 45.256 20.272 46.584 19.952C47.304 19.776 48.472 19.488 49.176 19.328L49.64 19.216V19.024C49.608 18.096 49.56 17.424 49.528 16.736C49.48 15.648 51.192 15.552 51.208 16.672C51.208 17.184 51.192 17.92 51.16 18.672L51.144 18.88C52.2 18.656 53.528 18.4 54.84 18.176C54.84 17.696 54.824 17.232 54.824 16.832C54.824 16.48 54.824 16.336 54.808 16.208C54.792 16.08 54.808 15.92 54.792 15.568C54.76 14.576 56.392 14.448 56.392 15.584C56.392 16.128 56.36 16.592 56.328 17.04C56.312 17.312 56.296 17.632 56.28 17.952C56.424 17.936 56.552 17.92 56.696 17.904C57.608 17.792 58.504 17.68 59.352 17.728C60.664 17.808 60.408 19.376 59.112 19.296C58.312 19.248 57.672 19.264 56.856 19.328C56.632 19.344 56.408 19.36 56.184 19.376C56.168 19.648 56.136 19.936 56.104 20.208C55.944 21.296 55.624 22.304 54.872 22.816C54.264 23.232 53.448 23.264 52.904 22.576C52.68 22.304 52.44 22.016 52.264 21.712C51.848 21.008 52.728 20.256 53.352 21.072C53.816 21.68 54.088 21.6 54.312 21.264C54.568 20.864 54.712 20.256 54.776 19.568C53.448 19.776 52.2 20.048 51.144 20.32C51.16 21.072 51.176 21.856 51.224 22.416C51.352 24.144 51.864 24.672 53.208 24.704C54.2 24.736 54.888 24.512 55.816 24.288C57.032 24 57.4 25.536 56.264 25.856C55.16 26.16 53.88 26.224 52.952 26.128C50.856 25.904 50.088 24.912 49.864 22.736C49.8 22.16 49.752 21.408 49.72 20.736ZM72.4548 25.2C70.7268 26.56 67.5268 26.912 67.5588 23.888C67.5588 23.152 67.6708 22.704 67.6388 21.984C67.5588 20.208 65.1268 21.712 64.6788 22.512C64.2948 23.2 63.8468 23.904 63.6708 24.688C63.3828 25.92 63.0308 26 62.7108 26.048C62.1508 26.128 61.3988 25.744 61.7668 24.816C62.4868 23.008 63.3988 21.408 64.3268 19.968C65.2548 18.528 66.0868 17.168 66.8708 15.92C67.1428 15.472 67.5748 14.912 67.7508 14.592C68.2788 13.648 69.7668 14.448 69.2388 15.456C69.1108 15.68 68.9988 15.856 68.8708 16.016C68.7428 16.176 68.5828 16.352 68.4068 16.56C67.6388 17.424 67.1268 18.096 66.7108 18.688C66.2948 19.28 65.9748 19.792 65.6228 20.32C65.5108 20.48 65.5588 20.448 65.6708 20.352C66.2468 19.84 69.0148 19.088 69.2388 21.792C69.2868 22.416 69.1588 22.96 69.1588 23.552C69.1588 24.976 70.5348 24.8 71.4788 23.952C72.2948 23.216 72.6468 22.448 72.9348 21.712C73.3988 20.528 75.0788 21.344 74.4708 22.544C74.0228 23.424 73.3988 24.464 72.4548 25.2ZM91.0948 17.536C91.6228 18.288 90.5668 19.12 90.1348 18.432C89.9588 18.16 89.2708 17.488 88.9668 17.312C88.2148 16.864 88.9508 16 89.6548 16.368C90.0548 16.576 90.7908 17.12 91.0948 17.536ZM89.2228 18.544C89.7188 19.312 88.6308 20.112 88.2148 19.408C88.0548 19.12 87.3828 18.432 87.0948 18.24C86.3588 17.76 87.1428 16.928 87.8308 17.328C88.2148 17.552 88.9348 18.112 89.2228 18.544ZM85.2548 18.144C85.0468 18.176 84.7428 18.304 84.4868 18.368C83.6228 18.576 83.1588 17.616 83.8628 17.232C84.1988 17.056 84.2468 16.928 84.1028 16.704C83.7508 16.112 83.0788 15.712 82.7748 15.312C82.1988 14.544 83.2868 13.84 83.9427 14.496C84.5988 15.152 86.1508 16.144 86.1988 17.072C86.2308 17.52 86.0228 18.032 85.2548 18.144ZM90.1348 23.392C90.6788 24.656 89.0148 25.408 88.6308 24.256C88.2468 23.104 87.3988 22.272 86.8548 21.904C86.0388 21.344 86.8548 20.304 87.7508 20.832C88.6308 21.36 89.6068 22.144 90.1348 23.392ZM85.2388 21.392C87.4148 24.352 84.6308 27.152 81.1108 25.424C80.2468 24.992 80.7588 23.744 81.7188 24.144C84.4228 25.248 84.8228 23.36 83.9108 22.08C83.4788 21.472 82.5508 20.64 82.1988 20.24C81.3028 19.2 82.6468 18.576 83.2388 19.184C83.8468 19.808 84.7268 20.688 85.2388 21.392ZM78.8228 25.024C77.8468 26.176 76.5508 25.088 77.5588 24C77.9588 23.568 78.7588 22.48 79.1748 21.792C79.7988 20.768 80.9508 21.568 80.6148 22.336C80.2308 23.216 79.4468 24.288 78.8228 25.024ZM99.1908 20.064H99.2708C100.471 20.112 101.655 20.384 102.743 20.768C102.839 20.112 102.775 19.52 102.519 19.088C102.071 18.336 103.511 17.728 104.039 18.72C104.391 19.36 104.439 20.32 104.199 21.376C105.031 21.776 105.783 22.256 106.407 22.736C107.415 23.52 106.327 24.992 105.415 24.16C104.887 23.68 104.311 23.248 103.671 22.864C103.079 24.064 102.071 25.264 100.631 26.112C99.5108 26.768 98.7108 25.52 99.7508 24.88C100.951 24.144 101.783 23.152 102.279 22.176C101.095 21.68 99.8308 21.392 98.5508 21.376C97.9588 22.608 97.4148 23.6 96.5028 24.304C95.5428 25.056 94.1348 25.152 93.4468 24.304C92.6308 23.28 93.2228 21.616 95.0628 20.8C95.9108 20.432 96.8068 20.208 97.6868 20.112C98.2468 18.912 98.9828 17.456 99.4308 16.448C99.5268 16.224 99.5748 16.096 99.3348 16.16C98.7108 16.32 98.1028 16.528 97.4468 16.544C96.3908 16.576 96.4388 15.088 97.3988 15.024C98.0388 14.992 99.0148 14.752 99.7028 14.624C101.159 14.336 101.799 15.28 101.079 16.448C100.407 17.568 99.7668 18.864 99.1908 20.064ZM96.9988 21.504C96.5828 21.568 96.1028 21.696 95.5108 21.984C95.0948 22.192 94.3428 22.864 94.6148 23.264C94.8068 23.536 95.3828 23.44 95.6708 23.216C96.1988 22.816 96.6308 22.16 96.9988 21.504ZM117.159 24.816C117.463 24.752 117.799 24.56 118.087 24.304C119.255 23.264 119.207 21.744 118.295 21.136C117.463 20.576 115.735 20.464 114.119 21.408C113.479 21.776 113.143 22.064 112.775 22.608C112.199 23.456 110.599 22.512 111.591 21.536C113.351 19.792 114.647 18.56 116.423 16.368C116.599 16.144 116.439 16.208 116.311 16.272C115.863 16.512 114.807 16.832 113.623 17.088C112.359 17.36 112.119 15.776 113.207 15.648C114.279 15.52 115.815 15.136 116.727 14.864C118.007 14.496 119.063 15.632 118.263 16.528C117.751 17.104 117.111 17.728 116.471 18.32C115.831 18.912 115.191 19.488 114.615 20.048C116.023 19.296 117.927 19.296 119.111 20C121.415 21.376 120.663 24.192 118.983 25.408C117.399 26.544 114.903 26.608 113.687 25.808C111.991 24.704 112.743 22.72 114.631 22.656C115.911 22.608 117.111 23.376 117.159 24.816ZM115.799 25.056C115.815 24.32 115.383 23.76 114.679 23.824C113.975 23.888 113.943 24.544 114.455 24.816C114.823 25.008 115.351 25.072 115.799 25.056ZM131.031 22.528V22.512C131.031 22.416 131.031 22.304 131.031 22.176C131.031 20.624 130.871 16.896 130.775 14.384C130.775 14.368 130.775 14.352 130.775 14.336C130.775 13.744 131.239 13.456 131.703 13.456C132.183 13.456 132.663 13.76 132.663 14.384C132.663 16.272 132.407 20.672 132.407 22.224C132.407 22.608 132.407 23.28 131.703 23.28C131.367 23.28 131.031 23.024 131.031 22.528ZM132.823 25.52C132.823 26.288 132.151 26.576 131.719 26.576C131.111 26.576 130.615 26.064 130.615 25.52C130.615 24.816 131.287 24.416 131.719 24.416C132.343 24.416 132.823 24.8 132.823 25.52Z" fill="#181818"/>
</svg>
