<svg width="140" height="40" viewBox="0 0 140 40" fill="none" xmlns="http://www.w3.org/2000/svg">
<circle cx="20" cy="20" r="19" fill="#FDFDFD" stroke="#2F5D50" stroke-width="2"/>
<path d="M11.3047 19.8695C10.7524 19.8695 10.3047 20.3172 10.3047 20.8695C10.3047 21.4218 10.7524 21.8695 11.3047 21.8695V19.8695ZM28.5335 21.5766C28.9241 21.1861 28.9241 20.5529 28.5335 20.1624L22.1696 13.7984C21.779 13.4079 21.1459 13.4079 20.7554 13.7984C20.3648 14.189 20.3648 14.8221 20.7554 15.2127L26.4122 20.8695L20.7554 26.5264C20.3648 26.9169 20.3648 27.5501 20.7554 27.9406C21.1459 28.3311 21.779 28.3311 22.1696 27.9406L28.5335 21.5766ZM11.3047 21.8695H27.8264V19.8695H11.3047V21.8695Z" fill="#2F5D50"/>
<path d="M54.344 15.872C54.104 15.872 53.88 15.744 53.752 15.456C53.528 14.944 53.08 14.432 52.872 14.192C52.76 14.08 52.712 13.952 52.712 13.824C52.712 13.488 53.064 13.184 53.448 13.184C54.088 13.184 55.112 14.544 55.112 15.088C55.112 15.536 54.712 15.872 54.344 15.872ZM59.416 23.088L56.312 23.072L56.328 26.336C56.328 26.8 55.944 27.04 55.544 27.04C55.176 27.04 54.792 26.816 54.792 26.336V23.072L52.168 23.088C51.704 23.088 51.464 22.752 51.464 22.416C51.464 22.096 51.704 21.76 52.168 21.76L54.808 21.776V20.144L52.872 20.16C52.424 20.16 52.184 19.824 52.184 19.488C52.184 19.168 52.424 18.832 52.872 18.832L54.808 18.848V17.408L52.584 17.424C52.136 17.424 51.896 17.088 51.896 16.752C51.896 16.432 52.136 16.096 52.584 16.096H55.736C56.072 15.52 56.664 14.304 56.872 13.616C56.984 13.264 57.256 13.12 57.528 13.12C57.944 13.12 58.392 13.44 58.392 13.888C58.392 14.224 57.992 14.88 57.224 16.096H59.096C59.544 16.096 59.752 16.432 59.752 16.752C59.752 17.088 59.544 17.424 59.096 17.424L56.296 17.408V18.848L58.392 18.832C58.84 18.832 59.048 19.168 59.048 19.488C59.048 19.824 58.84 20.16 58.392 20.16L56.312 20.144V21.776L59.416 21.76C59.864 21.76 60.072 22.096 60.072 22.416C60.072 22.752 59.864 23.088 59.416 23.088ZM50.536 14.768H47.08C46.648 14.768 46.44 14.448 46.44 14.128C46.44 13.808 46.648 13.488 47.08 13.488H50.536C50.968 13.488 51.192 13.808 51.192 14.128C51.192 14.448 50.968 14.768 50.536 14.768ZM51.096 16.96H46.424C45.96 16.96 45.736 16.64 45.736 16.304C45.736 15.984 45.96 15.648 46.424 15.648H51.096C51.56 15.648 51.784 15.968 51.784 16.304C51.784 16.624 51.56 16.96 51.096 16.96ZM50.568 19.04H47.112C46.68 19.04 46.472 18.72 46.472 18.4C46.472 18.08 46.68 17.76 47.112 17.76H50.568C51 17.76 51.224 18.08 51.224 18.4C51.224 18.72 51 19.04 50.568 19.04ZM50.568 21.104H47.112C46.68 21.104 46.472 20.784 46.472 20.464C46.472 20.144 46.68 19.824 47.112 19.824H50.568C51 19.824 51.224 20.144 51.224 20.464C51.224 20.784 51 21.104 50.568 21.104ZM51.304 25.344C51.288 26.064 50.776 26.576 49.976 26.624C49.64 26.64 49.176 26.656 48.712 26.656C48.264 26.656 47.816 26.64 47.496 26.624C46.776 26.576 46.328 26.064 46.312 25.36C46.312 24.944 46.296 24.576 46.296 24.208C46.296 23.84 46.312 23.488 46.312 23.136C46.328 22.528 46.712 21.968 47.48 21.92C47.784 21.904 48.2 21.888 48.616 21.888C49.128 21.888 49.656 21.904 50.024 21.92C50.632 21.952 51.288 22.368 51.304 23.056C51.32 23.424 51.32 23.824 51.32 24.224C51.32 24.608 51.32 24.992 51.304 25.344ZM49.976 25.008C49.992 24.784 49.992 24.528 49.992 24.256C49.992 24 49.992 23.728 49.976 23.504C49.944 23.104 49.672 23.072 48.792 23.072C48.504 23.072 48.216 23.072 48.04 23.088C47.608 23.12 47.592 23.392 47.592 24.256C47.592 24.512 47.608 24.784 47.608 25.024C47.624 25.296 47.72 25.408 48.744 25.408C49.448 25.408 49.944 25.408 49.976 25.008ZM74.024 24.528C70.904 27.072 65.784 27.536 65.64 23.216C65.576 21.536 65.752 20.176 65.832 18.48C65.88 17.44 65.992 15.872 65.96 14.88C65.928 13.696 67.736 13.792 67.704 14.848C67.672 15.856 67.56 17.376 67.48 18.448C67.368 20.144 67.128 21.6 67.192 23.152C67.288 25.488 70.136 25.328 72.92 23.136C73.96 22.32 74.936 23.792 74.024 24.528ZM86.9034 25.344C87.3994 26.416 85.8474 27.36 85.3354 26.336C84.4074 24.512 83.0474 22.432 81.9434 21.136C80.8874 19.904 80.8874 18.768 82.1354 17.472C83.2234 16.336 84.4554 15.152 85.4154 13.856C86.1514 12.88 87.5914 14.016 86.8394 14.944C86.0394 15.92 84.3434 17.312 83.3514 18.304C82.6634 18.992 82.6314 19.472 83.1594 20.128C84.7594 22.128 86.1194 23.632 86.9034 25.344ZM98.8783 20.064H98.9583C100.158 20.112 101.342 20.384 102.43 20.768C102.526 20.112 102.462 19.52 102.206 19.088C101.758 18.336 103.198 17.728 103.726 18.72C104.078 19.36 104.126 20.32 103.886 21.376C104.718 21.776 105.47 22.256 106.094 22.736C107.102 23.52 106.014 24.992 105.102 24.16C104.574 23.68 103.998 23.248 103.358 22.864C102.766 24.064 101.758 25.264 100.318 26.112C99.1983 26.768 98.3983 25.52 99.4383 24.88C100.638 24.144 101.47 23.152 101.966 22.176C100.782 21.68 99.5183 21.392 98.2383 21.376C97.6463 22.608 97.1023 23.6 96.1903 24.304C95.2303 25.056 93.8223 25.152 93.1343 24.304C92.3183 23.28 92.9103 21.616 94.7503 20.8C95.5983 20.432 96.4943 20.208 97.3743 20.112C97.9343 18.912 98.6703 17.456 99.1183 16.448C99.2143 16.224 99.2623 16.096 99.0223 16.16C98.3983 16.32 97.7903 16.528 97.1343 16.544C96.0783 16.576 96.1263 15.088 97.0863 15.024C97.7263 14.992 98.7023 14.752 99.3903 14.624C100.846 14.336 101.486 15.28 100.766 16.448C100.094 17.568 99.4543 18.864 98.8783 20.064ZM96.6863 21.504C96.2703 21.568 95.7903 21.696 95.1983 21.984C94.7823 22.192 94.0303 22.864 94.3023 23.264C94.4943 23.536 95.0703 23.44 95.3583 23.216C95.8863 22.816 96.3183 22.16 96.6863 21.504ZM116.846 24.816C117.15 24.752 117.486 24.56 117.774 24.304C118.942 23.264 118.894 21.744 117.982 21.136C117.15 20.576 115.422 20.464 113.806 21.408C113.166 21.776 112.83 22.064 112.462 22.608C111.886 23.456 110.286 22.512 111.278 21.536C113.038 19.792 114.334 18.56 116.11 16.368C116.286 16.144 116.126 16.208 115.998 16.272C115.55 16.512 114.494 16.832 113.31 17.088C112.046 17.36 111.806 15.776 112.894 15.648C113.966 15.52 115.502 15.136 116.414 14.864C117.694 14.496 118.75 15.632 117.95 16.528C117.438 17.104 116.798 17.728 116.158 18.32C115.518 18.912 114.878 19.488 114.302 20.048C115.71 19.296 117.614 19.296 118.798 20C121.102 21.376 120.35 24.192 118.67 25.408C117.086 26.544 114.59 26.608 113.374 25.808C111.678 24.704 112.43 22.72 114.318 22.656C115.598 22.608 116.798 23.376 116.846 24.816ZM115.486 25.056C115.502 24.32 115.07 23.76 114.366 23.824C113.662 23.888 113.63 24.544 114.142 24.816C114.51 25.008 115.038 25.072 115.486 25.056ZM130.718 22.528V22.512C130.718 22.416 130.718 22.304 130.718 22.176C130.718 20.624 130.558 16.896 130.462 14.384C130.462 14.368 130.462 14.352 130.462 14.336C130.462 13.744 130.926 13.456 131.39 13.456C131.87 13.456 132.35 13.76 132.35 14.384C132.35 16.272 132.094 20.672 132.094 22.224C132.094 22.608 132.094 23.28 131.39 23.28C131.054 23.28 130.718 23.024 130.718 22.528ZM132.51 25.52C132.51 26.288 131.838 26.576 131.406 26.576C130.798 26.576 130.302 26.064 130.302 25.52C130.302 24.816 130.974 24.416 131.406 24.416C132.03 24.416 132.51 24.8 132.51 25.52Z" fill="#181818"/>
</svg>
