<svg width="290" height="117" viewBox="0 0 290 117" fill="none" xmlns="http://www.w3.org/2000/svg">
<rect y="1" width="290" height="116" rx="25" fill="#FDFDFD"/>
<path d="M41.577 32.1623C52.3879 12.1671 65.042 14.8201 81.1444 23.6047C97.2468 32.3894 110.701 43.9797 99.8899 63.9749C89.079 83.9701 59.9238 102.459 45.1287 94.3871C28.3856 85.2529 30.7662 52.1575 41.577 32.1623Z" fill="#D9333F"/>
<path d="M96.8137 35.5733C96.0259 37.0303 89.6135 33.5482 88.3299 34.4767C87.0464 35.4053 88.477 42.5155 86.8749 42.859C85.2727 43.2025 83.4287 36.1491 81.7894 35.8837C80.2453 35.638 76.4487 41.8317 74.9652 41.0224C73.4816 40.213 76.6152 33.6496 75.5728 32.4761C74.462 31.2332 67.5384 33.4391 66.9801 31.9573C66.4219 30.4755 73.1295 27.7808 73.2031 26.1842C73.2768 24.5875 66.8908 21.0715 67.6815 19.6241C68.4723 18.1767 74.3747 22.0902 75.5532 21.4913C76.8162 20.8418 76.8916 13.8518 78.4544 14.0028C79.8007 14.1325 79.642 21.4722 81.1226 22.0461C82.4233 22.5461 86.7689 16.6922 88.1108 17.4323C89.4526 18.1724 86.7977 24.9648 87.8794 25.7645C89.1363 26.6921 95.2119 22.6367 95.9996 23.6792C96.9229 24.8925 90.9814 28.4889 91.0565 29.9006C91.1231 31.1626 97.6015 34.1162 96.8171 35.567L96.8137 35.5733Z" fill="#2F5D50"/>
<path d="M57.898 25.5991C57.4875 25.9743 56.844 25.9485 56.4555 25.5311C56.067 25.1138 56.0914 24.4766 56.5055 24.0948C56.9195 23.713 58.3073 23.0664 58.6891 23.4801C59.071 23.8939 58.3085 25.2239 57.898 25.5991Z" fill="#FBFAF5"/>
<path d="M62.1241 34.8335C61.7136 35.2087 61.0701 35.1829 60.6816 34.7655C60.293 34.3482 60.3175 33.711 60.7315 33.3292C61.1456 32.9474 62.5333 32.3008 62.9152 32.7145C63.297 33.1282 62.5346 34.4583 62.1241 34.8335Z" fill="#FBFAF5"/>
<path d="M70.7047 42.7543C70.38 43.2108 69.7465 43.3105 69.2875 42.9916C68.8285 42.6727 68.7177 42.03 69.0321 41.5765C69.3465 41.1229 70.5762 40.1926 71.0316 40.518C71.487 40.8435 71.0191 42.3008 70.7011 42.7609L70.7047 42.7543Z" fill="#FBFAF5"/>
<path d="M48.7034 34.7162C48.2601 35.0563 47.615 34.9696 47.2783 34.5207C46.9416 34.0717 47.0101 33.4331 47.4566 33.1033C47.903 32.7735 49.3415 32.2404 49.6885 32.6864C50.0355 33.1324 49.1499 34.3864 48.7101 34.7199L48.7034 34.7162Z" fill="#FBFAF5"/>
<path d="M52.9823 44.7707C52.5389 45.1107 51.8938 45.0241 51.5571 44.5751C51.2204 44.1261 51.2889 43.4875 51.7354 43.1577C52.1818 42.8279 53.6203 42.2949 53.9673 42.7409C54.3143 43.1869 53.4287 44.4409 52.9889 44.7743L52.9823 44.7707Z" fill="#FBFAF5"/>
<path d="M61.3315 52.6605C60.9703 53.0885 60.325 53.1303 59.8977 52.7688C59.4705 52.4073 59.414 51.76 59.7716 51.3386C60.1292 50.9173 61.437 50.0981 61.8607 50.4662C62.2844 50.8343 61.6891 52.2391 61.3279 52.6671L61.3315 52.6605Z" fill="#FBFAF5"/>
<path d="M81.6963 48.3384C81.5355 48.8757 80.9744 49.1776 80.4363 49.021C79.8982 48.8645 79.5853 48.2914 79.7359 47.7571C79.8864 47.2227 80.7427 45.9432 81.2772 46.1063C81.8117 46.2695 81.8468 47.8041 81.6927 48.345L81.6963 48.3384Z" fill="#FBFAF5"/>
<path d="M92.1686 50.3887C92.0855 50.9425 91.5698 51.3202 91.0129 51.2303C90.4559 51.1405 90.0702 50.622 90.1534 50.0682C90.2365 49.5145 90.9054 48.1334 91.4624 48.2233C92.0193 48.3131 92.2518 49.835 92.1686 50.3887Z" fill="#FBFAF5"/>
<path d="M102.388 48.5038C102.525 49.0489 102.195 49.5956 101.649 49.7255C101.104 49.8554 100.551 49.5195 100.414 48.9744C100.276 48.4293 100.363 46.8948 100.908 46.7649C101.454 46.635 102.25 47.9587 102.388 48.5038Z" fill="#FBFAF5"/>
<path d="M73.1408 59.0325C72.9297 59.551 72.3397 59.7943 71.8168 59.5775C71.2939 59.3608 71.0426 58.7699 71.2537 58.2514C71.4649 57.733 72.4338 56.549 72.9567 56.7658C73.4795 56.9825 73.352 58.5141 73.1408 59.0325Z" fill="#FBFAF5"/>
<path d="M84.163 62.5512C84.0258 63.0928 83.471 63.4151 82.9257 63.2718C82.3805 63.1285 82.0503 62.5716 82.1875 62.03C82.3246 61.4884 83.1341 60.1834 83.6757 60.3333C84.2174 60.4832 84.2966 62.0162 84.1594 62.5578L84.163 62.5512Z" fill="#FBFAF5"/>
<path d="M47.0533 57.7774C46.6295 58.1453 45.9901 58.0961 45.6154 57.6691C45.2407 57.2422 45.282 56.6058 45.7059 56.2379C46.1297 55.87 47.5334 55.2578 47.905 55.6745C48.2766 56.0911 47.4807 57.4029 47.0569 57.7708L47.0533 57.7774Z" fill="#FBFAF5"/>
<path d="M56.3213 66.4416C55.9869 66.8842 55.3503 66.9736 54.8985 66.6415C54.4467 66.3094 54.3527 65.6674 54.6805 65.2211C55.0083 64.7749 56.2539 63.8789 56.7124 64.2147C57.171 64.5504 56.6558 65.999 56.3178 66.4482L56.3213 66.4416Z" fill="#FBFAF5"/>
<path d="M66.2112 72.0294C66.037 72.5594 65.4594 72.8437 64.9254 72.6637C64.3913 72.4837 64.099 71.9047 64.2731 71.3746C64.4473 70.8446 65.3431 69.6038 65.8772 69.7838C66.4113 69.9638 66.3817 71.506 66.2076 72.036L66.2112 72.0294Z" fill="#FBFAF5"/>
<path d="M78.8407 74.52C78.7339 75.0695 78.2054 75.4231 77.6488 75.3163C77.0923 75.2096 76.7342 74.6719 76.8343 74.1188C76.9344 73.5657 77.6568 72.2137 78.2098 72.3271C78.7627 72.4404 78.9408 73.9669 78.834 74.5164L78.8407 74.52Z" fill="#FBFAF5"/>
<path d="M94.6274 61.5297C94.7069 62.0862 94.3202 62.5936 93.7693 62.6694C93.2183 62.7451 92.6974 62.3497 92.6144 61.7999C92.5314 61.25 92.7733 59.7314 93.3309 59.6593C93.8885 59.5872 94.5511 60.9835 94.6306 61.54L94.6274 61.5297Z" fill="#FBFAF5"/>
<path d="M45.679 73.5486C46.5483 74.0228 47.6302 73.7096 48.0955 72.849C48.5608 71.9883 48.2333 70.9062 47.364 70.432C46.4947 69.9577 45.4128 70.2709 44.9475 71.1316C44.4822 71.9922 44.8097 73.0743 45.679 73.5486Z" fill="#181818"/>
<path d="M55.0701 78.6487C55.9394 79.1229 57.0213 78.8097 57.4866 77.9491C57.9519 77.0884 57.6244 76.0063 56.7551 75.532C55.8858 75.0578 54.8039 75.371 54.3386 76.2317C53.8733 77.0923 54.2008 78.1744 55.0701 78.6487Z" fill="#181818"/>
<path d="M51.8002 80.9588C51.337 81.8152 49.5599 82.4244 47.5372 81.3214C45.5145 80.2184 45.0523 78.3967 45.5192 77.5338C45.986 76.6708 47.1964 77.1091 49.2192 78.212C51.2419 79.315 52.2635 80.1024 51.8002 80.9588Z" fill="#181818"/>
<path d="M122.78 27.6L129.42 27.56C128.3 36.64 128.22 43.04 131.78 43.88C134.78 44.6 138.06 43.16 139.86 40.44C140.1 46.08 135.78 50.76 129.18 49.4C123.34 48.36 121.06 40.4 122.78 27.6ZM168.06 36.4C171.78 36.32 173.54 38.48 173.54 41.12C173.5 43.56 171.74 46.04 168.3 46.76C169.34 45.36 169.78 43.64 169.86 42.28C169.82 40.8 169.42 39.44 167.54 39.4L165.34 42.52L165.18 39.16C165.18 39.16 161.74 39.76 161.1 40C161.38 41.36 161.74 44.68 164.54 51.4L160.26 52.8C160.26 52.8 158.18 43.72 157.42 41.16C157.42 41.16 154.74 42.44 153.1 43.32L151.82 39.44C151.82 39.44 154.98 38.56 156.74 38.04L155.58 33.6C155.58 33.6 158.14 32.92 159.9 32.56C159.9 32.56 160.34 36.04 160.54 37.32C162.3 36.92 163.02 36.72 164.9 36.4L164.82 33.12H168.58C168.58 33.12 168.14 35.88 168.06 36.4ZM202.66 28V30.96C202.66 30.96 201.62 31.24 200.9 31.6L200.14 28.48L202.66 28ZM206.3 27.44L206.06 30.4C206.06 30.4 205.02 30.68 204.34 31.04L203.82 27.92L206.3 27.44ZM182.06 38.84C182.06 38.84 191.98 30.84 193.22 30.28C193.22 30.28 207.22 39.08 209.9 41.16L205.82 45.88C202.5 43.24 196.14 37.56 193.18 36.12C189.78 38.64 187.38 41.24 185.42 42.92C185.42 42.92 182.66 39.6 182.06 38.84ZM229.26 36.08C230.98 36.32 236.82 37.4 236.82 43.2C236.82 49.84 230.62 52.24 225.18 50.92C222.02 50.16 221.14 47.16 221.66 45.44C222.06 44 223.46 42.64 225.98 42.76C227.14 42.84 229.18 43.64 229.86 46.24C230.7 46.12 231.82 44.8 231.82 43.36C231.82 39.08 226.74 38.04 223.02 38.2L228.14 31.32C228.14 31.32 222.7 31.56 220.9 31.56L220.82 26.44C220.82 26.44 231.26 26.4 235.3 26.56C233.18 30.72 231.9 32.56 229.26 36.08ZM225.62 47.44C226.5 47.52 226.94 46.96 226.9 46.76C226.78 46.36 226.42 45.88 225.98 45.72C225.3 45.52 224.58 45.92 224.7 46.56C224.82 47.2 225.34 47.36 225.62 47.44ZM154.86 72.04L154.78 63.4C154.78 63.4 157.5 63.2 158.7 63.04L158.58 60.84L162.46 60.8L162.54 63.12C162.54 63.12 164.5 63.12 164.94 63.12L164.9 60.84L168.42 61.04V63.12L172.9 62.88C172.9 62.88 173.26 71.88 172.98 72.48C172.98 72.48 155.62 72.12 154.86 72.04ZM169.94 65.16H168.18V66.48C168.86 66.68 169.78 66.6 169.78 66.6L169.94 65.16ZM169.54 68.6L167.78 68.44L167.9 69.6C168.18 69.68 169.62 70 169.62 70L169.54 68.6ZM164.54 69.8L164.58 68.68L163.1 68.52L163.02 69.6C163.62 69.84 164.54 69.8 164.54 69.8ZM164.42 65.08H162.98L163.02 66.52C163.78 66.44 164.5 66.48 164.5 66.48L164.42 65.08ZM159.38 65.44L157.82 65.32L157.94 66.56L159.38 66.44V65.44ZM157.82 68.64L157.78 69.68L159.78 70L159.86 68.6C159.86 68.6 158.34 68.72 157.82 68.64ZM175.54 73.72L175.34 76.88C175.34 76.88 162.58 77.2 154.82 77C154.82 77 156.06 85.04 147.9 87.48C150.42 82.36 151.66 77.64 151.14 73.96C151.14 73.96 171.3 73.8 175.54 73.72ZM171.58 78.44L171.66 81.4C171.66 81.4 158.58 81.4 157.02 81.2V78.8C170.86 78.52 171.06 78.52 171.58 78.44ZM154.74 82.88C162.18 82.84 168.54 83 173.34 82.6L173.18 85.72C173.18 85.72 162.46 85.92 160.82 85.92L160.74 89.92C160.74 89.92 162.98 89.12 163.94 88.52C163.74 90 161.38 93.2 157.54 93.84L157.7 85.84C157.7 85.84 156.22 85.92 154.94 85.76L154.74 82.88ZM168.98 85.92C171.02 88.16 173.7 89.2 175.22 88.96L173.06 93.44C170.58 91.76 168.1 89.84 166.78 88L168.98 85.92ZM174.06 86.32C175.06 85.48 177.06 83.32 177.46 82.68L179.7 85.72C178.66 86.2 176.98 87.32 174.06 86.32ZM208.66 63.72C208.66 63.72 209.18 89.6 209.02 92.6C209.02 92.6 185.58 92.6 183.18 92.6C183.18 92.6 183.5 65.04 183.74 63.56C194.9 63.64 198.7 63.68 208.66 63.72ZM205.62 89.04C205.62 87.16 206.02 67.04 206.02 67.04C205.02 66.96 186.74 67.36 186.74 67.36C186.42 68.36 186.58 89.04 186.58 89.04C187.58 88.96 205.62 89.04 205.62 89.04ZM197.74 73.92L202.98 73.88L203.02 76.08C203.02 76.08 191.82 76.04 189.22 76.12L189.26 73.56C189.26 73.56 193.5 73.36 194.94 73.36L195.02 72.08C192.62 72.12 193.06 72 191.54 72L191.46 70.08C191.46 70.08 193.62 70.04 194.62 70L194.46 68L197.78 68.24L197.74 70.16C197.74 70.16 200.94 70.2 201.58 70.16L201.5 72.6C201.5 72.6 198.22 72.68 197.74 72.68V73.92ZM201.9 83.28C201.9 83.28 201.1 84.12 200.42 84.36C200.42 84.36 201.82 84.92 202.98 85.32L200.9 88.08C200.9 88.08 196.66 84.36 195.9 83.24L196.46 88.04H193.54C193.74 85.92 193.7 85.04 193.78 83.4C193.78 83.4 192.66 85.2 188.62 85.08C190.42 84 192.34 82.56 193.02 81.28C193.02 81.28 191.66 81.28 191.02 81.28C191.02 81.28 190.98 78.08 191.1 77.2C191.1 77.2 198.78 77 200.82 77.08L200.9 81.68C200.9 81.68 199.62 81.76 197.82 81.72C197.86 82.08 198.86 83.24 199.34 83.4L200.42 82L201.9 83.28ZM194.62 80.32C196.22 80.44 197.86 80.28 197.86 80.28L197.82 78.84L194.54 78.76L194.62 80.32Z" fill="#433D3C"/>
</svg>
