<svg width="91" height="107" viewBox="0 0 91 107" fill="none" xmlns="http://www.w3.org/2000/svg">
<path d="M16.6325 36.1377C23.4133 14.3198 36.2852 14.3928 53.6891 19.8018C71.0931 25.2108 86.4395 33.9078 79.6587 55.7256C72.878 77.5435 47.8801 101.555 31.8892 96.5847C13.7927 90.9605 9.85168 57.9555 16.6325 36.1377Z" fill="#D9333F"/>
<path d="M72.662 27.593C72.1533 29.2298 65.0209 27.0285 63.9102 28.2328C62.7995 29.4371 65.6258 36.3371 64.0803 37.015C62.5349 37.693 59.3038 30.9357 57.6023 31.0052C56.0004 31.075 53.3873 38.1255 51.7364 37.6124C50.0856 37.0993 51.9594 29.8114 50.6814 28.839C49.3212 27.8102 42.7835 31.4701 41.9328 30.0858C41.082 28.7014 47.307 24.5915 47.0698 22.9606C46.8326 21.3297 39.7202 19.0885 40.2338 17.4609C40.7473 15.8332 47.4505 18.5762 48.5198 17.7272C49.6642 16.8095 48.3771 9.72052 49.9793 9.5511C51.3595 9.40474 52.631 16.8647 54.2329 17.1401C55.6395 17.3779 58.8713 10.558 60.3661 11.0303C61.8609 11.5025 60.5134 18.9233 61.758 19.5095C63.2037 20.189 68.5275 14.8324 69.5235 15.725C70.6892 16.7623 65.411 21.6267 65.7619 23.0398C66.075 24.3031 73.1708 25.9561 72.6642 27.586L72.662 27.593Z" fill="#2F5D50"/>
<path d="M30.1974 28.2796C29.8774 28.7171 29.2631 28.8177 28.8187 28.4954C28.3742 28.1732 28.2806 27.5611 28.6028 27.1166C28.9251 26.6722 30.121 25.7858 30.5585 26.1059C30.996 26.426 30.5175 27.8421 30.1974 28.2796Z" fill="#FBFAF5"/>
<path d="M35.9694 36.264C35.6493 36.7014 35.0351 36.802 34.5906 36.4798C34.1461 36.1576 34.0526 35.5455 34.3748 35.101C34.697 34.6565 35.893 33.7702 36.3305 34.0903C36.768 34.4103 36.2895 35.8265 35.9694 36.264Z" fill="#FBFAF5"/>
<path d="M45.6384 42.1764C45.4146 42.6745 44.8329 42.8926 44.3396 42.6779C43.8464 42.4632 43.6235 41.8724 43.8381 41.3791C44.0528 40.8858 45.0469 39.7604 45.538 39.982C46.0291 40.2037 45.8531 41.6832 45.6363 42.1834L45.6384 42.1764Z" fill="#FBFAF5"/>
<path d="M23.1746 38.6846C22.8169 39.095 22.1899 39.1379 21.7886 38.7754C21.3873 38.4129 21.3352 37.7907 21.6977 37.3895C22.0602 36.9882 23.3254 36.2001 23.7358 36.5578C24.1463 36.9155 23.5371 38.2833 23.1816 38.6867L23.1746 38.6846Z" fill="#FBFAF5"/>
<path d="M29.1526 47.4387C28.7949 47.8492 28.1679 47.8921 27.7666 47.5296C27.3653 47.1671 27.3133 46.5449 27.6758 46.1436C28.0383 45.7423 29.3034 44.9542 29.7139 45.3119C30.1243 45.6696 29.5151 47.0374 29.1596 47.4409L29.1526 47.4387Z" fill="#FBFAF5"/>
<path d="M38.5943 53.3649C38.3306 53.843 37.727 54.0082 37.2559 53.7468C36.7849 53.4853 36.6127 52.8795 36.8741 52.4084C37.1356 51.9374 38.2242 50.9027 38.6931 51.1711C39.162 51.4396 38.8557 52.8939 38.5921 53.3719L38.5943 53.3649Z" fill="#FBFAF5"/>
<path d="M57.1595 45.4117C57.1057 45.955 56.6296 46.3516 56.0912 46.307C55.5527 46.2624 55.1512 45.7771 55.1959 45.2387C55.2405 44.7002 55.8169 43.3145 56.3531 43.3661C56.8894 43.4177 57.2041 44.8733 57.1573 45.4187L57.1595 45.4117Z" fill="#FBFAF5"/>
<path d="M67.5156 45.3853C67.5383 45.9293 67.1191 46.3897 66.5751 46.4124C66.0311 46.435 65.5707 46.0158 65.548 45.4718C65.5253 44.9278 65.9059 43.4812 66.4499 43.4585C66.9939 43.4358 67.4929 44.8413 67.5156 45.3853Z" fill="#FBFAF5"/>
<path d="M76.8877 41.6629C77.1179 42.1563 76.9052 42.7422 76.4117 42.9724C75.9183 43.2026 75.3324 42.9898 75.1022 42.4964C74.872 42.0029 74.6726 40.5219 75.1661 40.2917C75.6595 40.0615 76.6576 41.1695 76.8877 41.6629Z" fill="#FBFAF5"/>
<path d="M51.0423 57.1953C50.9373 57.7304 50.4231 58.0768 49.8881 57.9719C49.353 57.867 49.0066 57.3528 49.1115 56.8177C49.2164 56.2827 49.917 54.9663 50.4521 55.0712C50.9871 55.1761 51.1472 56.6603 51.0423 57.1953Z" fill="#FBFAF5"/>
<path d="M62.2013 58.4617C62.1707 59.0045 61.7042 59.4195 61.1614 59.3889C60.6186 59.3583 60.2036 58.8918 60.2342 58.349C60.2649 57.8062 60.7923 56.4053 61.3329 56.4429C61.8735 56.4805 62.2297 57.926 62.1991 58.4687L62.2013 58.4617Z" fill="#FBFAF5"/>
<path d="M25.9735 60.9258C25.6395 61.3589 25.0247 61.4363 24.5916 61.1023C24.1585 60.7682 24.081 60.1535 24.4151 59.7204C24.7492 59.2872 25.9666 58.4306 26.3949 58.7555C26.8232 59.0804 26.3097 60.4856 25.9757 60.9188L25.9735 60.9258Z" fill="#FBFAF5"/>
<path d="M36.437 67.4148C36.2014 67.9015 35.6148 68.1104 35.1259 67.8818C34.637 67.6531 34.4303 67.0596 34.6589 66.5707C34.8876 66.0818 35.9032 64.986 36.3991 65.2168C36.895 65.4476 36.6727 66.928 36.4348 67.4218L36.437 67.4148Z" fill="#FBFAF5"/>
<path d="M46.9104 70.8612C46.8426 71.4001 46.3477 71.7833 45.8088 71.7155C45.2699 71.6477 44.8867 71.1528 44.9545 70.6139C45.0223 70.075 45.6433 68.7185 46.1822 68.7862C46.7211 68.854 46.976 70.3293 46.9082 70.8682L46.9104 70.8612Z" fill="#FBFAF5"/>
<path d="M27.0976 75.2512C26.862 75.7379 26.2755 75.9468 25.7865 75.7182C25.2976 75.4895 25.0909 74.896 25.3196 74.4071C25.5482 73.9182 26.5638 72.8224 27.0597 73.0532C27.5556 73.2841 27.3333 74.7645 27.0955 75.2582L27.0976 75.2512Z" fill="#FBFAF5"/>
<path d="M50.3796 81.9115C50.3119 82.4504 49.8169 82.8335 49.278 82.7658C48.7391 82.698 48.356 82.2031 48.4237 81.6642C48.4915 81.1252 49.1125 79.7688 49.6514 79.8365C50.1903 79.9043 50.4452 81.3796 50.3775 81.9185L50.3796 81.9115Z" fill="#FBFAF5"/>
<path d="M38.6308 79.9783C38.4629 80.4937 37.9009 80.7717 37.3855 80.6038C36.87 80.4359 36.5921 79.8739 36.7599 79.3585C36.9278 78.843 37.7973 77.6251 38.3127 77.793C38.8282 77.9608 38.8008 79.4558 38.6329 79.9713L38.6308 79.9783Z" fill="#FBFAF5"/>
<path d="M59.403 70.8473C59.4025 71.3918 58.9666 71.8316 58.42 71.8382C57.8733 71.8447 57.4357 71.4018 57.4291 70.8552C57.4226 70.3085 57.8591 68.8793 58.4036 68.8798C58.9481 68.8803 59.3964 70.3006 59.396 70.8451L59.403 70.8473Z" fill="#FBFAF5"/>
<path d="M71.9697 55.5145C72.147 56.0299 71.8735 56.5892 71.3651 56.7687C70.8567 56.9483 70.2904 56.6725 70.1109 56.1642C69.9314 55.6558 69.8823 54.1601 70.3976 53.9827C70.913 53.8054 71.7972 55.0083 71.9745 55.5237L71.9697 55.5145Z" fill="#FBFAF5"/>
</svg>
