<svg width="63" height="70" viewBox="0 0 63 70" fill="none" xmlns="http://www.w3.org/2000/svg">
<path d="M48.4278 21.5134C42.7659 8.35256 34.668 9.31922 24.0582 13.9475C13.4484 18.5758 4.34379 25.1134 10.0057 38.2743C15.6676 51.4351 32.9368 64.6642 42.6852 60.4117C53.7171 55.5992 54.0897 34.6742 48.4278 21.5134Z" fill="#D9333F"/>
<path d="M13.5252 20.5941C13.9378 21.5529 18.1612 19.7204 18.9149 20.3746C19.6685 21.0289 18.3689 25.4161 19.3556 25.7205C20.3424 26.0249 21.8984 21.6963 22.9429 21.6202C23.9264 21.5513 25.9611 25.652 26.9385 25.2257C27.9158 24.7993 26.3183 20.5031 27.0392 19.8237C27.8068 19.1043 32.0303 20.873 32.4645 19.973C32.8987 19.0731 28.8385 17.0094 28.8823 16.0024C28.9262 14.9953 33.1349 13.14 32.72 12.187C32.3051 11.2341 28.3776 13.3659 27.6713 12.9245C26.9148 12.4467 27.2619 8.05164 26.2719 8.06006C25.4192 8.06707 25.1047 12.6864 24.1425 12.9649C23.2974 13.2071 20.8988 9.28948 20.0143 9.68016C19.1298 10.0708 20.4138 14.4844 19.6894 14.9269C18.8478 15.44 15.2611 12.5565 14.7077 13.1678C14.0594 13.8789 17.5877 16.4666 17.4608 17.3493C17.3478 18.1383 13.1127 19.6353 13.5235 20.59L13.5252 20.5941Z" fill="#2F5D50"/>
<path d="M38.5284 16.4955C38.765 16.754 39.1707 16.7734 39.4383 16.5327C39.7059 16.292 39.7264 15.8903 39.4879 15.6274C39.2494 15.3646 38.4142 14.8815 38.151 15.1203C37.8878 15.3591 38.2917 16.2371 38.5284 16.4955Z" fill="#FBFAF5"/>
<path d="M35.3575 22.06C35.5941 22.3185 35.9998 22.3379 36.2674 22.0972C36.535 21.8564 36.5555 21.4547 36.317 21.1919C36.0785 20.9291 35.2433 20.4459 34.9801 20.6847C34.7169 20.9235 35.1208 21.8015 35.3575 22.06Z" fill="#FBFAF5"/>
<path d="M29.5239 26.5558C29.7021 26.8606 30.0944 26.9582 30.4009 26.7832C30.7073 26.6082 30.8133 26.2105 30.6414 25.9082C30.4695 25.6059 29.7495 24.9534 29.4449 25.1327C29.1404 25.3121 29.352 26.2535 29.5258 26.5602L29.5239 26.5558Z" fill="#FBFAF5"/>
<path d="M43.7941 22.7364C44.0534 22.9746 44.4634 22.9559 44.7003 22.6924C44.9371 22.429 44.93 22.0239 44.6682 21.792C44.4064 21.56 43.533 21.1454 43.2899 21.4065C43.0468 21.6675 43.5323 22.5045 43.7897 22.7383L43.7941 22.7364Z" fill="#FBFAF5"/>
<path d="M40.5446 28.8128C40.8039 29.051 41.2139 29.0323 41.4508 28.7689C41.6876 28.5054 41.6805 28.1003 41.4187 27.8684C41.1569 27.6364 40.2834 27.2218 40.0404 27.4829C39.7973 27.7439 40.2828 28.5809 40.5402 28.8147L40.5446 28.8128Z" fill="#FBFAF5"/>
<path d="M34.8586 33.3023C35.0613 33.5912 35.4644 33.6531 35.7533 33.4496C36.0422 33.2461 36.1143 32.8425 35.9135 32.558C35.7126 32.2735 34.9372 31.6866 34.6502 31.8945C34.3632 32.1023 34.6578 33.0178 34.8605 33.3067L34.8586 33.3023Z" fill="#FBFAF5"/>
<path d="M22.308 29.4489C22.3787 29.7954 22.7141 30.016 23.061 29.9474C23.408 29.8788 23.6369 29.536 23.5726 29.192C23.5082 28.8479 23.0426 27.9967 22.6975 28.0697C22.3525 28.1427 22.2436 29.1049 22.3099 29.4533L22.308 29.4489Z" fill="#FBFAF5"/>
<path d="M15.6158 30.1515C15.6368 30.5041 15.9394 30.77 16.2943 30.7444C16.6492 30.7187 16.9207 30.4143 16.8997 30.0617C16.8787 29.7092 16.5364 28.8044 16.1816 28.83C15.8267 28.8556 15.5948 29.799 15.6158 30.1515Z" fill="#FBFAF5"/>
<path d="M9.30209 28.3965C9.18512 28.7314 9.36161 29.0931 9.69685 29.2049C10.0321 29.3167 10.3982 29.1364 10.5152 28.8015C10.6322 28.4666 10.6644 27.4977 10.3291 27.3859C9.99388 27.2741 9.41905 28.0616 9.30209 28.3965Z" fill="#FBFAF5"/>
<path d="M27.0841 36.6447C27.1874 36.9821 27.5444 37.1675 27.8851 37.0602C28.2259 36.9529 28.4173 36.5955 28.3139 36.2581C28.2106 35.9207 27.6688 35.1234 27.328 35.2306C26.9872 35.3379 26.9807 36.3073 27.0841 36.6447Z" fill="#FBFAF5"/>
<path d="M19.9642 38.2389C20.0197 38.5868 20.3501 38.8199 20.7007 38.76C21.0514 38.7001 21.2904 38.3685 21.2348 38.0206C21.1793 37.6727 20.7445 36.8081 20.3957 36.8724C20.0469 36.9366 19.9105 37.8954 19.966 38.2433L19.9642 38.2389Z" fill="#FBFAF5"/>
<path d="M43.5416 37.3146C43.7871 37.5693 44.1915 37.5737 44.4509 37.3262C44.7103 37.0787 44.7203 36.6765 44.4748 36.4219C44.2293 36.1672 43.3822 35.7048 43.1253 35.9461C42.8684 36.1873 43.2943 37.0557 43.5397 37.3103L43.5416 37.3146Z" fill="#FBFAF5"/>
<path d="M37.2352 42.2388C37.4203 42.5353 37.8152 42.6267 38.1179 42.443C38.4205 42.2593 38.5159 41.8611 38.3352 41.5626C38.1544 41.2642 37.4225 40.6324 37.1154 40.818C36.8083 41.0037 37.0501 41.9422 37.2371 42.2431L37.2352 42.2388Z" fill="#FBFAF5"/>
<path d="M30.7106 45.1961C30.7901 45.5387 31.1369 45.7492 31.4826 45.6656C31.8283 45.582 32.0448 45.2343 31.9653 44.8917C31.8859 44.5491 31.3932 43.72 31.0474 43.8036C30.7017 43.8872 30.633 44.8578 30.7125 45.2004L30.7106 45.1961Z" fill="#FBFAF5"/>
<path d="M22.6387 46.0546C22.6748 46.4058 22.9869 46.6572 23.3424 46.621C23.698 46.5847 23.9533 46.2667 23.9216 45.9136C23.8899 45.5605 23.5124 44.671 23.1587 44.7116C22.805 44.7522 22.607 45.7015 22.6431 46.0527L22.6387 46.0546Z" fill="#FBFAF5"/>
<path d="M13.4487 37.0123C13.3674 37.3576 13.5817 37.6978 13.9234 37.7759C14.2651 37.854 14.6146 37.6344 14.6977 37.2935C14.7809 36.9527 14.7145 35.9851 14.3684 35.9089C14.0223 35.8328 13.5274 36.6734 13.4462 37.0186L13.4487 37.0123Z" fill="#FBFAF5"/>
<path d="M43.5232 47.2977C42.9506 47.5474 42.2889 47.2906 42.0451 46.7241C41.8014 46.1575 42.068 45.4957 42.6405 45.246C43.2131 44.9962 43.8748 45.253 44.1186 45.8196C44.3623 46.3861 44.0957 47.0479 43.5232 47.2977Z" fill="#181818"/>
<path d="M37.3396 49.9764C36.767 50.2262 36.1053 49.9694 35.8615 49.4028C35.6178 48.8362 35.8844 48.1745 36.4569 47.9247C37.0295 47.6749 37.6912 47.9317 37.935 48.4983C38.1787 49.0648 37.9121 49.7266 37.3396 49.9764Z" fill="#181818"/>
<path d="M39.2646 51.612C39.5072 52.1754 40.5886 52.6562 41.9209 52.0754C43.2532 51.4946 43.6462 50.3763 43.4018 49.8086C43.1574 49.2408 42.3726 49.4491 41.0403 50.0299C39.708 50.6107 39.0221 51.0487 39.2646 51.612Z" fill="#181818"/>
</svg>
