<svg width="102" height="111" viewBox="0 0 102 111" fill="none" xmlns="http://www.w3.org/2000/svg">
<path d="M26.3287 31.9297C37.2074 11.8686 49.8285 14.4678 65.8654 23.1889C81.9024 31.9099 95.2835 43.451 84.4048 63.5121C73.5261 83.5732 44.3409 102.208 29.606 94.1946C12.9309 85.1265 15.45 51.9909 26.3287 31.9297Z" fill="#D9333F"/>
<path d="M81.3674 35.2072C80.574 36.6704 74.1817 33.2104 72.8952 34.1464C71.6087 35.0823 73.0075 42.1991 71.4051 42.5504C69.8028 42.9017 67.9908 35.8435 66.3539 35.585C64.8121 35.3457 60.9919 41.5676 59.513 40.7633C58.0341 39.9591 61.1935 33.3698 60.157 32.1988C59.0525 30.9585 52.125 33.1992 51.5735 31.7171C51.0221 30.2351 57.7359 27.5058 57.8164 25.9059C57.8969 24.3059 51.5313 20.8118 52.3276 19.3583C53.1239 17.9048 59.0047 21.7992 60.1849 21.194C61.4496 20.5377 61.5552 13.5346 63.116 13.6789C64.4607 13.8029 64.2704 21.1567 65.7473 21.7251C67.0449 22.2202 71.4122 16.3363 72.7498 17.0718C74.0874 17.8073 71.4053 24.6238 72.4827 25.4202C73.7345 26.3439 79.8228 22.2542 80.6053 23.2951C81.5226 24.5064 75.5704 28.1358 75.6394 29.5498C75.7005 30.8137 82.1609 33.744 81.3708 35.201L81.3674 35.2072Z" fill="#2F5D50"/>
<path d="M42.4856 25.2886C42.0744 25.6659 41.4324 25.6431 41.0467 25.2273C40.661 24.8115 40.6883 24.1738 41.1031 23.7898C41.518 23.4058 42.9054 22.7523 43.2845 23.1645C43.6636 23.5767 42.8969 24.9112 42.4856 25.2886Z" fill="#FBFAF5"/>
<path d="M46.7117 34.5229C46.3004 34.9003 45.6585 34.8775 45.2728 34.4617C44.8871 34.0459 44.9143 33.4082 45.3292 33.0242C45.744 32.6402 47.1315 31.9866 47.5106 32.3988C47.8897 32.811 47.1229 34.1456 46.7117 34.5229Z" fill="#FBFAF5"/>
<path d="M55.2932 42.4428C54.9673 42.9009 54.3348 43.0035 53.8782 42.6865C53.4216 42.3695 53.3138 41.727 53.6294 41.2718C53.9451 40.8167 55.1761 39.8805 55.6291 40.2041C56.0821 40.5277 55.6089 41.9876 55.2896 42.4494L55.2932 42.4428Z" fill="#FBFAF5"/>
<path d="M33.2912 34.4062C32.8473 34.7486 32.204 34.665 31.8701 34.2172C31.5361 33.7695 31.6074 33.13 32.0544 32.7979C32.5014 32.4657 33.9392 31.9255 34.2834 32.3702C34.6276 32.815 33.7382 34.0741 33.2979 34.4099L33.2912 34.4062Z" fill="#FBFAF5"/>
<path d="M37.57 44.4607C37.1261 44.8031 36.4828 44.7194 36.1489 44.2717C35.8149 43.8239 35.8862 43.1845 36.3332 42.8523C36.7802 42.5202 38.218 41.98 38.5622 42.4247C38.9064 42.8694 38.017 44.1285 37.5767 44.4643L37.57 44.4607Z" fill="#FBFAF5"/>
<path d="M45.92 52.349C45.5578 52.7789 44.9136 52.8236 44.4889 52.4638C44.0641 52.104 44.0105 51.4567 44.3691 51.0335C44.7278 50.6103 46.0363 49.785 46.4575 50.1514C46.8786 50.5178 46.2786 51.9259 45.9164 52.3557L45.92 52.349Z" fill="#FBFAF5"/>
<path d="M66.2853 48.0261C66.1225 48.5643 65.5614 48.8688 65.0252 48.7146C64.4889 48.5604 64.1792 47.9884 64.3317 47.4531C64.4843 46.9179 65.3441 45.6339 65.8768 45.7948C66.4094 45.9556 66.4378 47.4908 66.2817 48.0327L66.2853 48.0261Z" fill="#FBFAF5"/>
<path d="M76.7574 50.076C76.6719 50.6306 76.1557 51.0109 75.6005 50.9236C75.0452 50.8363 74.6627 50.3193 74.7482 49.7647C74.8337 49.2102 75.5074 47.8251 76.0626 47.9124C76.6179 47.9997 76.8429 49.5215 76.7574 50.076Z" fill="#FBFAF5"/>
<path d="M86.9793 48.1898C87.1139 48.7351 86.7818 49.284 86.2366 49.4166C85.6913 49.5493 85.1408 49.2156 85.0062 48.6703C84.8716 48.1251 84.965 46.5881 85.5102 46.4554C86.0555 46.3228 86.8447 47.6446 86.9793 48.1898Z" fill="#FBFAF5"/>
<path d="M57.73 58.7202C57.5171 59.2398 56.9273 59.4858 56.4066 59.2713C55.8858 59.0568 55.6375 58.4667 55.8504 57.9471C56.0633 57.4275 57.0352 56.2387 57.556 56.4532C58.0767 56.6677 57.9429 58.2006 57.73 58.7202Z" fill="#FBFAF5"/>
<path d="M68.7527 62.2388C68.6135 62.7813 68.0584 63.1062 67.515 62.9653C66.9716 62.8243 66.6444 62.2686 66.7837 61.7261C66.9229 61.1836 67.7362 59.8744 68.276 60.022C68.8159 60.1696 68.8883 61.7029 68.7491 62.2454L68.7527 62.2388Z" fill="#FBFAF5"/>
<path d="M31.6404 57.467C31.2159 57.8372 30.5781 57.7909 30.2063 57.3654C29.8344 56.9399 29.8785 56.3029 30.3031 55.9327C30.7276 55.5626 32.1309 54.9434 32.4997 55.3586C32.8686 55.7739 32.0686 57.0903 31.644 57.4604L31.6404 57.467Z" fill="#FBFAF5"/>
<path d="M40.9094 66.1299C40.5737 66.5742 39.9382 66.6665 39.4888 66.3362C39.0394 66.006 38.9484 65.3641 39.2774 64.9162C39.6064 64.4683 40.8531 63.5664 41.3092 63.9002C41.7653 64.2341 41.245 65.6856 40.9058 66.1365L40.9094 66.1299Z" fill="#FBFAF5"/>
<path d="M50.8005 71.7169C50.6245 72.248 50.047 72.535 49.5149 72.3572C48.9828 72.1795 48.6936 71.6015 48.8696 71.0704C49.0457 70.5394 49.9449 69.294 50.477 69.4717C51.0091 69.6495 50.973 71.1925 50.7969 71.7235L50.8005 71.7169Z" fill="#FBFAF5"/>
<path d="M63.4298 74.2074C63.3208 74.7577 62.7918 75.114 62.2371 75.0098C61.6823 74.9056 61.3275 74.3693 61.4299 73.8153C61.5323 73.2614 62.2591 71.9052 62.8103 72.016C63.3614 72.1268 63.5322 73.6535 63.4231 74.2038L63.4298 74.2074Z" fill="#FBFAF5"/>
<path d="M79.2183 61.2161C79.2951 61.7729 78.9067 62.2827 78.3564 62.3611C77.8061 62.4395 77.2879 62.0461 77.2075 61.496C77.1272 60.9459 77.3756 59.4243 77.9326 59.3495C78.4895 59.2747 79.1446 60.6696 79.2214 61.2263L79.2183 61.2161Z" fill="#FBFAF5"/>
<path d="M30.2674 73.2451C31.1336 73.7161 32.2155 73.3977 32.6839 72.5338C33.1524 71.67 32.83 70.5878 31.9638 70.1168C31.0977 69.6458 30.0158 69.9642 29.5473 70.8281C29.0789 71.6919 29.4013 72.7741 30.2674 73.2451Z" fill="#181818"/>
<path d="M39.6585 78.3452C40.5247 78.8162 41.6066 78.4978 42.075 77.6339C42.5435 76.7701 42.2211 75.6879 41.3549 75.2169C40.4888 74.7459 39.4069 75.0643 38.9384 75.9282C38.47 76.792 38.7924 77.8742 39.6585 78.3452Z" fill="#181818"/>
<path d="M36.3899 80.638C35.9228 81.4991 34.1428 82.1181 32.1245 81.0207C30.1062 79.9232 29.6519 78.0979 30.1225 77.2302C30.5931 76.3624 31.8019 76.7967 33.8202 77.8941C35.8385 78.9915 36.8569 79.7769 36.3899 80.638Z" fill="#181818"/>
</svg>
