<svg width="75" height="82" viewBox="0 0 75 82" fill="none" xmlns="http://www.w3.org/2000/svg">
<path d="M56.0671 57.7716C48.1292 72.7357 38.7612 70.914 26.8245 64.582C14.8878 58.25 4.90184 49.8051 12.8397 34.8411C20.7776 19.877 42.2892 5.81799 53.2568 11.6359C65.6685 18.2199 64.005 42.8076 56.0671 57.7716Z" fill="#D9333F"/>
<path d="M14.0722 56.2987C14.6677 55.1761 19.5617 57.7599 20.5363 57.035C21.511 56.3102 20.3999 50.8949 21.619 50.6132C22.8381 50.3316 24.2638 55.6987 25.513 55.8818C26.6896 56.0511 29.5622 51.2734 30.6944 51.874C31.8267 52.4746 29.4602 57.5269 30.2576 58.411C31.1073 59.3474 36.3733 57.5791 36.8029 58.7046C37.2325 59.8301 32.1326 61.9692 32.0813 63.19C32.03 64.4108 36.9039 67.0208 36.3061 68.1361C35.7083 69.2514 31.2015 66.332 30.3058 66.8036C29.346 67.315 29.3097 72.6566 28.1191 72.5599C27.0934 72.4769 27.1921 66.8671 26.0628 66.4464C25.0706 66.0799 21.7791 70.6045 20.7549 70.0551C19.7307 69.5057 21.732 64.2843 20.9058 63.6862C19.9459 62.9925 15.3312 66.1637 14.7282 65.3766C14.0214 64.4606 18.5353 61.6418 18.4737 60.564C18.4192 59.6006 13.4766 57.4214 14.0696 56.3035L14.0722 56.2987Z" fill="#2F5D50"/>
<path d="M45.1046 61.633C45.3979 61.3583 45.8593 61.3694 46.1388 61.6652C46.4184 61.961 46.4025 62.4198 46.1066 62.6994C45.8108 62.979 44.8177 63.4604 44.5429 63.1671C44.2682 62.8738 44.8113 61.9078 45.1046 61.633Z" fill="#FBFAF5"/>
<path d="M41.9962 55.0229C42.2895 54.7481 42.7509 54.7593 43.0304 55.0551C43.31 55.3509 43.2941 55.8097 42.9982 56.0893C42.7024 56.3688 41.7093 56.8503 41.4345 56.557C41.1598 56.2637 41.703 55.2977 41.9962 55.0229Z" fill="#FBFAF5"/>
<path d="M35.7642 49.3866C35.9957 49.0545 36.4495 48.9755 36.7794 49.1997C37.1093 49.4238 37.1905 49.885 36.9663 50.2148C36.7422 50.5447 35.8632 51.2281 35.5359 50.9991C35.2086 50.7702 35.5401 49.7165 35.7668 49.3818L35.7642 49.3866Z" fill="#FBFAF5"/>
<path d="M51.6511 55.0172C51.9681 54.7673 52.4308 54.8221 52.6733 55.1414C52.9159 55.4606 52.8684 55.9211 52.5491 56.1636C52.2299 56.4062 51.1999 56.8066 50.95 56.4896C50.7001 56.1726 51.3318 55.2597 51.6463 55.0146L51.6511 55.0172Z" fill="#FBFAF5"/>
<path d="M48.4983 47.8179C48.8153 47.5681 49.278 47.6229 49.5205 47.9422C49.7631 48.2614 49.7155 48.7219 49.3963 48.9644C49.077 49.207 48.047 49.6073 47.7971 49.2903C47.5472 48.9734 48.179 48.0605 48.4935 47.8154L48.4983 47.8179Z" fill="#FBFAF5"/>
<path d="M42.4337 42.2033C42.6914 41.8912 43.1539 41.8538 43.4612 42.109C43.7685 42.3642 43.8107 42.8292 43.5555 43.1365C43.3003 43.4437 42.365 44.048 42.0603 43.788C41.7555 43.528 42.1785 42.5105 42.4362 42.1985L42.4337 42.2033Z" fill="#FBFAF5"/>
<path d="M27.8146 45.4466C27.9284 45.0582 28.3298 44.8346 28.7159 44.9411C29.1021 45.0476 29.3279 45.4563 29.2214 45.8425C29.1149 46.2286 28.5046 47.159 28.121 47.0477C27.7374 46.9364 27.7081 45.8327 27.8171 45.4418L27.8146 45.4466Z" fill="#FBFAF5"/>
<path d="M20.2662 44.0432C20.3244 43.6437 20.6931 43.3659 21.0926 43.4241C21.492 43.4823 21.7698 43.851 21.7116 44.2505C21.6534 44.65 21.1774 45.6516 20.778 45.5934C20.3785 45.5352 20.208 44.4427 20.2662 44.0432Z" fill="#FBFAF5"/>
<path d="M12.9266 45.4674C12.8267 45.0763 13.0622 44.6787 13.4533 44.5787C13.8444 44.4788 14.2421 44.7144 14.342 45.1055C14.4419 45.4966 14.3837 46.6031 13.9925 46.703C13.6014 46.8029 13.0265 45.8585 12.9266 45.4674Z" fill="#FBFAF5"/>
<path d="M33.8902 37.7019C34.0402 37.3265 34.4624 37.1448 34.8378 37.2947C35.2132 37.4447 35.395 37.8669 35.245 38.2423C35.0951 38.6177 34.4038 39.4805 34.0284 39.3306C33.653 39.1806 33.7403 38.0773 33.8902 37.7019Z" fill="#FBFAF5"/>
<path d="M25.9345 35.2464C26.0314 34.8552 26.4283 34.6169 26.8195 34.7138C27.2108 34.8107 27.449 35.2076 27.3522 35.5988C27.2553 35.9901 26.6785 36.9383 26.2898 36.8366C25.9011 36.7349 25.8402 35.6329 25.9371 35.2416L25.9345 35.2464Z" fill="#FBFAF5"/>
<path d="M52.6679 38.4284C52.9708 38.1588 53.4293 38.1868 53.699 38.4897C53.9686 38.7926 53.9406 39.2511 53.6377 39.5208C53.3348 39.7904 52.3301 40.2473 52.0627 39.9517C51.7953 39.6562 52.3625 38.7029 52.6654 38.4332L52.6679 38.4284Z" fill="#FBFAF5"/>
<path d="M45.9358 32.2634C46.1744 31.9411 46.6304 31.8695 46.9552 32.1033C47.28 32.337 47.3491 32.7979 47.1153 33.1226C46.8815 33.4474 45.9911 34.1062 45.6615 33.8699C45.3319 33.6336 45.6973 32.5856 45.9384 32.2586L45.9358 32.2634Z" fill="#FBFAF5"/>
<path d="M38.7789 28.3135C38.9023 27.9302 39.3156 27.719 39.6989 27.8424C40.0822 27.9659 40.2933 28.3791 40.1699 28.7624C40.0465 29.1457 39.4077 30.0487 39.0243 29.9253C38.641 29.8019 38.658 28.692 38.7814 28.3087L38.7789 28.3135Z" fill="#FBFAF5"/>
<path d="M53.8167 27.8371C54.0552 27.5148 54.5113 27.4432 54.8361 27.677C55.1609 27.9108 55.2299 28.3716 54.9962 28.6964C54.7624 29.0212 53.8719 29.68 53.5423 29.4437C53.2128 29.2074 53.5781 28.1593 53.8192 27.8323L53.8167 27.8371Z" fill="#FBFAF5"/>
<path d="M37.7691 19.7857C37.8926 19.4023 38.3058 19.1912 38.6891 19.3146C39.0724 19.438 39.2836 19.8513 39.1601 20.2346C39.0367 20.6179 38.3979 21.5209 38.0146 21.3975C37.6313 21.274 37.6483 20.1642 37.7717 19.7809L37.7691 19.7857Z" fill="#FBFAF5"/>
<path d="M46.0637 22.8087C46.2568 22.4562 46.7045 22.3309 47.0569 22.5241C47.4094 22.7172 47.5347 23.1648 47.3416 23.5173C47.1484 23.8698 46.3477 24.6377 45.9952 24.4445C45.6427 24.2514 45.868 23.166 46.0612 22.8135L46.0637 22.8087Z" fill="#FBFAF5"/>
<path d="M29.6757 26.6069C29.7508 26.2102 30.1288 25.9497 30.528 26.02C30.9271 26.0904 31.1852 26.4732 31.1148 26.8723C31.0445 27.2715 30.5301 28.2528 30.1335 28.1776C29.7368 28.1025 29.6053 27.006 29.6805 26.6094L29.6757 26.6069Z" fill="#FBFAF5"/>
<path d="M18.4128 36.0514C18.3544 35.6515 18.6306 35.2816 19.0256 35.2207C19.4206 35.1597 19.7954 35.4384 19.8563 35.8335C19.9173 36.2285 19.7475 37.325 19.3477 37.3834C18.9478 37.4418 18.4689 36.4439 18.4105 36.044L18.4128 36.0514Z" fill="#FBFAF5"/>
</svg>
