<svg width="160" height="23" viewBox="0 0 160 23" fill="none" xmlns="http://www.w3.org/2000/svg">
<path d="M18.672 12.632C18.864 14.384 16.488 14.864 16.152 13.208C15.768 11.288 14.784 9.44 13.488 8.552C12.336 7.76 13.632 5.984 15.072 7.064C16.776 8.336 18.432 10.592 18.672 12.632ZM8.184 16.592C6.648 19.088 4.512 18.872 3.168 17.432C1.44 15.56 0.648 12.776 0.456 9.752C0.36 8.384 0.312 7.952 0.336 7.088C0.384 5.576 2.712 5.264 2.784 7.064C2.832 8 2.736 8.048 2.784 9.152C2.88 11.672 3.336 14.048 4.68 15.344C5.304 15.944 5.616 16.016 6.144 15.296C6.432 14.888 6.768 14.264 6.936 13.88C7.584 12.488 9.576 13.496 9.12 14.744C8.88 15.416 8.448 16.16 8.184 16.592ZM31.536 7.616C31.152 9.728 30.792 11.84 30.624 12.68C31.944 11.72 33.6 10.856 35.376 10.616C40.416 9.944 42.696 14.384 39.672 17.984C38.352 19.568 35.784 20.792 33.216 21.128C30.912 21.44 30.792 19.04 32.592 18.824C34.656 18.584 36.6 17.792 37.584 16.664C39.336 14.696 38.928 12.416 35.664 12.68C34.152 12.8 32.448 13.808 31.44 14.888C31.008 15.344 30.888 16.04 30.072 16.256C29.016 16.544 28.2 15.512 28.368 14.288C28.56 12.92 28.896 10.472 29.256 8.12C28.536 8.192 27.792 8.168 27 8.048C25.224 7.76 25.416 5.336 27.336 5.768C28.008 5.912 28.8 5.936 29.616 5.792C29.856 4.256 30.096 2.936 30.264 2.192C30.648 0.559999 33.024 1.28 32.568 2.768C32.4 3.32 32.232 4.112 32.04 5C32.472 4.784 32.904 4.52 33.312 4.232C34.968 3.056 36.48 5.456 34.248 6.488C33.24 6.968 32.352 7.328 31.536 7.616ZM65.88 3.68C65.592 3.272 64.488 2.36 64.032 2.12C62.856 1.496 63.936 0.127998 65.016 0.631999C65.64 0.92 66.768 1.688 67.248 2.288C68.088 3.368 66.576 4.688 65.88 3.68ZM64.488 3.92C65.304 5.024 63.744 6.32 63.072 5.288C62.808 4.88 61.752 3.896 61.296 3.632C60.144 2.984 61.248 1.664 62.304 2.216C62.904 2.528 64.032 3.296 64.488 3.92ZM60.312 7.712C58.08 7.232 55.536 7.184 53.184 7.64C51.288 8 50.976 5.456 53.112 5.144C55.392 4.808 58.776 4.784 60.768 5.216C62.784 5.648 62.256 8.12 60.312 7.712ZM62.664 19.4C57.912 20.888 52.152 19.76 50.496 17.432C49.632 16.208 51.192 14.552 52.488 15.872C54.528 17.96 58.416 17.792 62.04 16.76C64.032 16.208 64.608 18.8 62.664 19.4ZM82.152 6.536C82.416 6.776 82.56 7.16 82.488 7.64C82.104 10.688 79.944 15.224 77.64 17.36C75.792 19.064 73.776 18.128 72.72 16.064C71.208 13.088 72.816 8.624 76.032 6.392C78.984 4.352 83.376 4.016 86.4 5.84C90.12 8.072 90.72 12.488 88.632 15.92C87.504 17.768 85.152 19.256 82.776 19.88C80.664 20.432 79.92 18.008 81.984 17.528C83.808 17.12 85.656 16.088 86.448 14.84C88.152 12.152 87.504 9.008 85.128 7.496C84.192 6.896 83.184 6.608 82.152 6.536ZM80.256 6.656C79.152 6.896 78.072 7.4 77.16 8.096C74.928 9.824 73.728 13.016 74.736 14.864C75.096 15.56 75.72 15.92 76.32 15.392C78.12 13.808 79.8 9.992 80.04 7.4C80.064 7.112 80.136 6.848 80.256 6.656ZM112.632 3.536C112.296 3.176 111.12 2.384 110.64 2.192C109.416 1.712 110.28 0.248 111.408 0.607999C112.056 0.823999 113.28 1.424 113.832 1.976C114.792 2.936 113.448 4.448 112.632 3.536ZM110.424 5.672C110.112 5.288 108.936 4.448 108.456 4.232C107.232 3.728 108.192 2.288 109.296 2.696C109.944 2.936 111.144 3.56 111.672 4.136C112.608 5.144 111.216 6.608 110.424 5.672ZM105.168 8.648C104.736 9.128 103.896 9.272 103.248 8.6C102.504 7.832 101.544 7.136 100.632 6.752C99.264 6.2 100.224 4.064 101.856 4.784C102.912 5.264 104.136 5.96 105.048 6.776C105.696 7.352 105.6 8.168 105.168 8.648ZM114.432 7.976C111.36 13.472 105.912 18.608 100.464 20.408C98.568 21.032 97.776 18.44 99.672 17.936C104.448 16.64 109.776 11.36 112.296 6.584C113.088 5.096 115.488 6.08 114.432 7.976ZM102.312 12.464C102 13.04 101.256 13.376 100.464 12.872C99.576 12.296 98.472 11.816 97.488 11.648C96.048 11.408 96.504 9.128 98.256 9.464C99.384 9.68 100.68 10.064 101.76 10.664C102.528 11.072 102.624 11.912 102.312 12.464ZM131.146 11.528L131.17 11.504C130.186 11.792 128.77 12.272 127.282 12.8C128.002 15.224 128.866 17.96 129.442 19.544C130.09 21.296 127.882 22.04 127.378 20.36C126.898 18.728 126.082 15.968 125.338 13.496C124.33 13.856 123.394 14.216 122.626 14.504C121.21 15.032 120.61 13.016 121.954 12.56C122.794 12.272 123.73 11.936 124.762 11.576C124.474 10.64 124.234 9.848 124.042 9.248C123.778 8.456 124.186 7.928 124.738 7.808C125.242 7.688 125.866 7.976 126.058 8.624C126.226 9.176 126.466 9.968 126.73 10.904C128.314 10.376 129.97 9.824 131.578 9.32C132.778 8.96 134.266 9.608 133.762 11.096C133.21 12.728 132.13 14.144 130.93 15.2C129.562 16.4 128.218 14.648 129.442 13.64C130.114 13.112 130.786 12.296 131.146 11.528ZM156.052 17.48C152.956 18.344 147.868 19.424 144.148 20.048C142.348 20.336 141.772 17.888 143.692 17.624C144.076 17.576 144.508 17.528 144.916 17.456C146.092 14.96 148.612 8.312 149.212 5.312C149.62 3.296 152.308 3.968 151.804 5.816C151.084 8.432 149.068 13.736 147.676 16.976C150.172 16.52 152.812 15.944 154.684 15.488C154.06 14.672 153.388 13.976 152.86 13.52C151.756 12.56 153.316 10.88 154.66 12.08C155.812 13.112 158.308 15.56 159.076 17.72C159.364 18.536 158.86 19.232 158.308 19.472C157.732 19.712 156.988 19.52 156.676 18.752C156.508 18.344 156.292 17.912 156.052 17.48Z" fill="#181818"/>
</svg>
